<svg width="262" height="288" viewBox="0 0 262 288" fill="none" xmlns="http://www.w3.org/2000/svg">
<path d="M184.872 140.491C185.845 140.993 187.859 140.11 192.402 137.138C195.124 135.341 197.638 133.904 197.942 133.899C199.558 133.81 198.634 135.201 194.839 138.545C189.837 142.936 187.866 145.829 188.184 148.299C188.614 152.036 190.551 150.869 195.635 143.938C198.86 139.603 201.126 137.242 201.758 137.606C201.938 137.71 200.705 140.367 199.069 143.514C196.729 147.878 196.069 149.543 196.109 150.829C196.339 154.391 198.264 153.036 201.859 146.809C203.239 144.418 204.722 142.266 205.156 142.035C206.024 141.574 205.991 141.735 204.593 146.763C203.752 149.887 203.818 152.272 204.801 152.238C205.105 152.232 206.327 150.532 207.525 148.456C213.23 138.575 211.916 124.701 204.918 121.503C202.532 120.426 197.608 120.411 197.403 121.496C197.337 121.818 198.081 123.03 199.039 124.185C199.996 125.339 200.76 126.622 200.784 126.997C200.849 128.238 198.896 130.058 194.438 132.779C192.086 134.248 189.176 136.057 187.938 136.847C185.799 138.259 184.24 140.126 184.872 140.491Z" fill="white"/>
<path d="M30.8603 120.19C27.1236 119.055 23.3758 120.441 21.0541 123.733C16.7874 129.872 15.9801 141.378 19.3175 147.997C20.7139 150.789 20.8944 150.893 21.6498 149.585C22.249 148.547 22.2825 146.821 21.6988 142.935C21.1012 139.281 22.1217 139.389 23.5334 143.092C26.6117 151.306 28.2616 153.763 29.3557 151.868C29.8506 151.01 29.3144 145.166 28.6827 144.801C28.0962 144.463 25.811 136.646 26.3092 136.513C26.8786 136.36 29.4201 140.294 31.8868 145.087C32.9761 147.16 34.3483 149.576 35.0875 150.484C36.2759 152.073 36.3471 152.054 37.1128 151.353C37.8594 150.581 38.1464 148.521 37.7808 146.445C37.5036 144.841 36.3552 142.974 33.1871 138.979C31.5614 136.898 30.078 134.778 29.8994 134.254C29.6445 133.445 29.8771 133.459 31.366 134.319C32.3587 134.892 34.0974 136.256 35.1524 137.347C38.1699 140.352 41.0106 142.414 42.0902 142.315C43.616 142.173 42.5126 140.333 39.0561 137.254C30.0381 129.22 28.4436 127.397 29.2511 125.999C29.4856 125.592 30.4787 124.602 31.4128 123.817C34.2932 121.329 34.3001 121.213 30.8603 120.19Z" fill="white"/>
<path d="M115.429 106.821C121.79 107.259 128.666 108.649 134.614 110.684C138.735 112.1 144.76 115.087 148.263 117.405C149.808 118.461 151.172 119.336 151.301 119.388C151.404 119.439 151.482 117.817 151.482 115.757C151.482 112.358 151.533 112.023 151.997 111.585C152.409 111.199 152.666 111.147 153.233 111.353L153.928 111.585L154.082 115.061C154.185 116.967 154.263 122.71 154.288 127.808C154.314 140.427 154.7 142.822 156.838 144.727C158.512 146.169 159.774 146.556 163.25 146.684L166.366 146.787L166.263 143.749C166.211 142.049 166.031 137.44 165.902 133.474C165.774 129.508 165.516 123.07 165.336 119.13C165.001 111.456 165.027 111.199 166.314 111.199C167.37 111.199 167.628 111.765 167.808 114.727C167.988 117.765 168.606 132.907 168.89 141.251C169.044 146.401 169.07 146.478 169.611 146.35C174.812 145.294 176.486 144.289 177.8 141.457C178.392 140.169 178.392 140.118 178.521 126.006C178.598 118.203 178.752 111.688 178.855 111.508C179.139 111.07 180.452 111.121 180.838 111.585C181.096 111.894 181.199 114.804 181.302 124.28C181.431 137.285 181.276 139.86 180.298 142.487C179.113 145.629 175.92 147.869 171.439 148.719L169.121 149.131V177.483C169.121 205.424 168.787 221.647 168.194 222.754C167.885 223.321 166.623 223.372 166.16 222.832C165.902 222.497 165.877 220.437 166.134 212.196C166.289 206.582 166.417 200.943 166.417 199.655V197.363L164.795 200.042C162.168 204.342 159.568 207.664 156.117 211.14C151.172 216.136 147.078 219.123 141.155 222.033C126.451 229.295 108.528 229.27 92.2272 221.905C84.991 218.634 79.3514 214.694 73.8149 209.003C68.4328 203.467 64.467 197.518 61.4541 190.41L60.3468 187.81L56.8188 187.629C54.8617 187.526 53.2394 187.475 53.1879 187.501C53.1621 187.552 53.0591 195.329 52.9561 204.831C52.7758 223.398 52.8016 223.218 51.4368 223.218C51.102 223.218 50.6385 223.012 50.4067 222.78C49.9947 222.394 49.9947 221.415 50.1234 211.012C50.3552 195.741 50.7157 177.174 51.1792 156.65C51.411 147.302 51.6685 134.736 51.7973 128.71C52.029 116.246 52.0033 116.452 54.0377 115.525C55.2737 114.984 56.3295 115.061 57.4369 115.782C58.4927 116.478 63.6172 124.847 64.8276 127.886C65.0851 128.478 65.3426 128.967 65.4456 128.942C65.5229 128.942 66.2954 127.937 67.1452 126.701C72.4758 119.027 80.6648 113.13 90.6049 109.834C98.0728 107.362 107.163 106.254 115.429 106.821ZM103.481 109.782C98.8196 110.323 95.4977 111.044 91.5062 112.383C81.257 115.782 73.7633 121.396 68.2268 129.817L66.7332 132.057L67.6345 134.452C73.0166 148.847 74.3041 164.71 71.2397 179.234C70.4156 183.2 69.7204 185.389 69.0508 186.239C68.201 187.346 66.7332 187.938 64.9563 187.938C63.1022 187.938 63.128 187.732 64.7246 191.183C68.3813 199.166 74.8192 207.252 81.6176 212.48C95.2401 222.883 113.009 227.055 128.794 223.578C144.554 220.076 157.765 209.132 165.387 193.295L166.675 190.642V176.196C166.675 168.264 166.598 158.942 166.495 155.517L166.34 149.259L165.001 149.44C162.941 149.697 159.31 149.156 157.533 148.307C153.155 146.272 151.739 142.95 151.739 134.71C151.739 132.341 151.662 128.71 151.559 126.675L151.404 122.993L148.984 121.19C140.563 114.958 129.541 110.89 117.618 109.679C114.142 109.319 107.009 109.37 103.481 109.782ZM61.7116 145.32C61.6086 145.526 61.9176 146.839 62.3812 148.255C64.364 154.436 65.2653 162.058 64.7246 168.238C64.57 170.195 64.1838 173.002 63.9005 174.496C63.3597 177.277 63.3855 177.895 64.0293 177.895C64.57 177.895 64.5958 177.792 65.1881 174.934C66.9907 165.895 66.3212 155.569 63.4112 147.148C62.6902 145.062 62.0721 144.392 61.7116 145.32Z" fill="white"/>
<path d="M113.885 115.602C118.469 116.066 123.902 117.534 128.357 119.516C129.825 120.186 130.289 120.83 129.465 121.139C129.259 121.242 128.126 120.907 126.941 120.392C121.276 117.997 117.387 117.122 111.31 116.941C106.082 116.787 103.095 117.147 99.0264 118.435C91.1465 120.933 84.4768 126.186 80.8973 132.727C80.202 134.015 79.687 134.633 79.378 134.633C78.5282 134.633 78.6312 133.937 79.7385 132.006C84.451 123.74 93.3353 117.714 103.456 115.963C106.314 115.473 110.975 115.319 113.885 115.602Z" fill="white"/>
<path d="M117.128 127.19C133.712 128.658 147.335 139.268 152.099 154.384C153.618 159.225 153.901 161.363 153.901 167.337C153.901 172.101 153.824 173.234 153.335 175.475C150.322 189.38 140.691 200.84 128.485 205.166C124.184 206.686 121.506 207.098 116.201 207.098C110.845 207.098 108.682 206.789 104.252 205.346C98.1493 203.338 93.1535 200.196 88.2607 195.278C81.2047 188.222 77.1875 179.852 76.0287 169.784C74.6381 157.5 78.7326 144.341 86.3293 136.693C93.4625 129.482 104.561 126.057 117.128 127.19Z" fill="white"/>
<path d="M156.838 195.484C157.07 195.767 156.915 196.205 156.091 197.492C150.967 205.424 139.971 213.741 130.494 216.883C119.73 220.411 107.266 219.51 96.6307 214.437C93.8753 213.123 93.489 212.84 93.7208 212.222C93.9268 211.707 94.3388 211.81 96.7852 213.02C107.369 218.274 120.58 219.123 131.164 215.235C135.644 213.561 141.078 210.368 145.687 206.66C148.469 204.419 153.13 199.552 154.7 197.209C156.091 195.175 156.4 194.943 156.838 195.484Z" fill="white"/>
<path d="M150.992 197.106C151.301 197.466 151.121 197.75 149.498 199.269C143.704 204.805 136.262 209.595 129.721 212.016C124.262 214.05 117.927 214.952 112.777 214.488C108.219 214.05 103.841 212.866 103.841 212.042C103.841 211.372 104.304 211.346 106.159 211.887C112.004 213.638 119.395 213.638 125.73 211.887C133.326 209.801 140.717 205.449 148.288 198.574C149.447 197.544 150.451 196.694 150.503 196.694C150.58 196.694 150.812 196.874 150.992 197.106Z" fill="white"/>
<path d="M101.576 210.239C102.89 210.909 103.018 211.141 102.452 211.604C102.194 211.836 101.834 211.784 100.932 211.398C99.5934 210.832 99.3101 210.471 99.7221 209.956C100.134 209.467 100.134 209.467 101.576 210.239Z" fill="white"/>
<path d="M252.079 12.3104C250.585 11.5643 249.697 11.5781 249.486 12.345C249.278 13.1472 248.701 13.0602 248.476 12.1928C248.303 11.4981 248.12 11.4445 246.823 11.6397C245.458 11.8769 245.314 11.8551 245.24 11.0799C245.156 10.1989 244.669 9.56984 243.534 8.86049C242.968 8.52343 242.725 8.58226 242.011 9.29071C240.741 10.5146 240.199 10.4242 240.061 8.97941C239.932 7.64036 239.268 7.38389 238.584 8.40948C238.364 8.71498 237.894 9.00884 237.507 9.04592C236.872 9.1066 236.82 8.93378 236.88 7.32783C236.976 5.36277 236.674 5.1783 235.176 6.24619C233.975 7.07231 233.831 7.05055 233.716 5.85245C233.642 5.07721 233.481 4.87927 233.107 5.0573C232.803 5.22859 232.283 4.99388 231.851 4.57286L231.101 3.79119L230.15 4.62895C228.477 6.10468 228.477 6.10468 228.527 4.39302C228.513 3.50532 228.446 2.80056 228.34 2.81067C227.565 2.88483 226.387 3.95762 226.119 4.87228C225.74 6.11757 225.403 5.93648 224.259 4.01892L223.532 2.73717L223.608 3.90341C223.691 5.14011 223.627 5.21733 222.551 4.75128C221.961 4.52331 221.647 4.58888 221.261 5.01695C220.776 5.52561 220.603 5.57771 219.996 5.17355C219.581 4.92872 218.786 4.79145 218.222 4.84539C217.2 4.94314 217.203 4.97838 217.508 6.30058C217.884 8.00702 217.678 8.45348 216.371 8.54297C215.772 8.60027 214.795 8.80037 214.175 9.002C213.173 9.31119 213.045 9.46562 213.289 10.1535C213.439 10.6015 213.724 11.3565 213.877 11.8398C214.124 12.5629 214.032 12.714 213.468 12.7679C213.045 12.8084 212.609 12.7078 212.483 12.5065C212.196 12.1073 210.501 12.2338 209.939 12.6788C209.674 12.8819 209.666 13.1672 209.907 13.4641C210.552 14.2559 210.43 14.8366 209.69 14.9074C209.302 14.9444 209.009 15.2214 209.039 15.5386C209.066 15.8205 208.549 16.3678 207.907 16.7137C206.858 17.2763 206.763 17.3921 207.157 18.1723C207.601 19.09 207.534 19.132 206.22 19.151C205.512 19.1832 205.416 19.299 205.653 19.9164C205.851 20.502 205.769 20.7588 205.25 20.9151C204.841 21.0965 204.653 21.3633 204.786 21.6351C204.919 21.9069 205.174 22.3448 205.307 22.6166C205.478 22.9203 205.255 23.1905 204.673 23.424C203.639 23.7718 203.632 23.7013 204.408 25.1207C205.065 26.4092 205.168 27.8573 204.589 28.126C204.112 28.3494 202.696 31.0098 202.75 31.5736C202.773 31.8202 203.02 31.7966 203.49 31.5028C204.291 30.9638 204.664 31.1415 204.421 31.9471C204.321 32.3834 203.975 32.4876 203.045 32.4343C201.429 32.2688 201.205 32.8949 202.599 33.7216C203.878 34.4527 204.109 34.9996 203.122 35.094C201.466 35.2524 200.862 36.377 201.943 37.2693C202.561 37.7792 201.875 38.4138 200.677 38.5284C199.655 38.6261 199.672 38.8023 200.889 40.0016C202.225 41.3318 202.192 41.7262 200.688 41.6211C199.22 41.5126 199.084 41.9523 200.406 42.3948C201.546 42.7836 201.566 42.9951 200.669 45.1434C200.264 46.1068 199.967 47.0953 199.991 47.3419C200.051 47.9762 198.978 48.6479 197.744 48.7659C195.912 48.9412 195.677 49.4615 196.869 50.7699C198.093 52.0397 198.256 52.6286 197.481 52.7028C197.058 52.7432 197.011 52.9966 197.258 53.7198C197.45 54.2349 197.75 54.7751 197.911 54.973C198.491 55.451 198.449 56.8774 197.921 56.928C197.004 57.0156 196.969 57.7657 197.899 58.5658L198.756 59.3373L198.029 60.2958L197.268 61.2577L198.144 62.2407C198.621 62.764 199.024 63.2589 199.034 63.3646C199.041 63.4351 198.212 63.6922 197.239 63.9275L195.398 64.3881L197.115 65.6107C198.492 66.617 199.009 66.8164 199.802 66.5627C200.977 66.2014 201.59 67.0318 200.706 67.8276C200.278 68.1886 200.228 68.4067 200.562 68.5526C201.236 68.9148 200.72 69.462 199.592 69.5699C198.324 69.6913 198.332 70.1527 199.658 70.6304L200.657 71.0327L199.719 71.2647C199.162 71.3891 198.766 71.7115 198.793 71.9934C198.82 72.2753 198.523 72.5171 198.135 72.5541C197.113 72.6519 197.305 73.167 198.622 73.93C200.014 74.7214 200.083 75.0704 198.947 75.4636C198.467 75.6517 198.11 76.006 198.137 76.2879C198.201 76.9574 197.39 77.0349 195.35 76.5189C194.477 76.3179 193.685 76.2159 193.589 76.3317C193.529 76.4442 193.751 77.2764 194.156 78.1623C194.975 80.0397 194.875 80.476 193.653 80.344C192.9 80.2738 192.67 80.4736 192.43 81.3144C192.308 81.8951 191.904 82.5027 191.561 82.6421C191.046 82.8337 190.984 83.3019 191.146 84.9933C191.322 86.8257 191.416 87.0656 192.05 87.0049C192.437 86.9679 192.778 87.1842 192.805 87.4661C192.832 87.748 192.539 88.025 192.151 88.0621C191.481 88.1261 190.517 89.6338 190.948 94.1443C191.38 98.6548 192.392 97.6404 193.061 97.5764C193.449 97.5393 193.79 97.7556 193.816 98.0375C193.843 98.3195 192.464 97.6325 192.077 97.6696C191.442 97.7302 192.481 98.9476 192.656 100.78C192.849 102.789 192.891 102.856 193.985 103.142C194.639 103.293 195.537 103.385 196.03 103.338C196.77 103.267 196.851 103.366 196.749 104.158C196.612 104.953 196.728 105.049 197.644 104.961C198.208 104.907 198.823 105.026 198.946 105.192C199.275 105.659 200.47 105.509 200.599 104.999C200.674 104.671 200.921 104.648 201.403 104.851C201.81 105.025 202.75 105.184 203.504 105.254C204.687 105.354 204.856 105.267 205.166 104.42C205.552 103.245 205.798 103.221 206.544 104.323L207.09 105.196L207.299 104.038C207.411 103.351 207.656 102.937 207.948 103.016C208.17 103.101 208.755 102.903 209.19 102.612C209.758 102.238 210.178 102.162 210.483 102.382C211.091 102.786 213.275 101.83 213.624 101.015C213.891 100.456 214 100.481 214.881 101.143C215.994 101.997 216.474 101.809 215.809 100.806C215.102 99.7352 215.167 99.3023 215.983 99.651C216.387 99.7901 216.862 99.9224 217.038 99.9056C217.426 99.8685 216.923 97.214 216.378 96.3416C215.793 95.4374 216.395 93.9218 217.346 93.8308C217.875 93.7803 218.338 93.4159 218.566 92.8251C218.794 92.2344 219.257 91.87 219.785 91.8195C220.49 91.752 220.551 91.6396 220.18 91.1061C219.553 90.1348 219.617 90.0576 221.132 89.9126C221.907 89.8384 222.532 89.672 222.521 89.5663C222.468 89.0025 221.037 87.4324 220.26 87.1156C218.963 86.5641 219.208 86.1495 220.81 86.174L222.272 86.212L221.949 85.0693C221.63 83.9619 221.665 83.9586 222.7 84.0018C223.63 84.0551 223.729 83.9745 223.502 83.4628C223.286 83.0568 223.425 82.6523 223.948 82.1755C224.602 81.5795 224.624 81.4352 224.127 80.7004C223.837 80.2659 223.606 79.7189 223.618 79.4689C223.633 79.2541 223.5 78.9823 223.275 78.8616C222.678 78.5631 222.778 78.1268 223.604 77.8344L224.324 77.5522L223.449 76.9602L222.575 76.3682L223.682 76.0489C224.405 75.802 224.83 75.4058 225.019 74.7831C225.148 74.2729 225.499 73.8482 225.78 73.8213C226.591 73.7437 226.088 71.836 225.063 71.1517L224.153 70.5631L225.034 69.7321C225.621 69.1781 225.849 68.5873 225.778 67.8473C225.684 66.8606 225.747 66.7834 227.866 66.2606L230.021 65.7345L228.589 65.2669L227.158 64.7993L227.884 63.8408C228.486 63.072 228.533 62.8186 228.101 62.3976C227.705 61.9732 227.734 61.8994 228.368 61.8387C229.425 61.7376 229.227 61.152 227.933 60.6357C226.27 59.9769 226.456 59.319 228.402 58.8484L230.038 58.4785L229.723 56.3038C229.446 54.5168 229.177 53.938 228.363 53.2335L227.352 52.3345L228.304 52.2435C229.255 52.1525 229.528 51.664 228.818 51.3052C228.446 51.1275 228.173 49.7667 228.49 49.7364C228.596 49.7262 229.289 49.9089 230.021 50.1234C231.709 50.6731 231.706 50.6378 230.897 49.6128L230.21 48.754L231.178 48.8391C231.717 48.8943 232.133 48.7834 232.113 48.5719C232.096 48.3957 232.407 48.2949 232.804 48.3636C233.635 48.4975 234.245 47.4434 233.844 46.5928C233.495 45.915 233.847 45.8812 235.779 46.3721C237.454 46.7809 237.578 46.5912 236.434 45.4204C235.326 44.2462 235.415 44.0599 237.13 44.1447L238.634 44.2498L237.89 43.5386C237.42 43.0858 237.291 42.8492 237.608 42.8189C237.89 42.7919 237.962 42.4294 237.789 41.7347C237.498 40.5535 237.533 40.5501 239.169 40.927C240.626 41.2855 240.884 41.0119 240.072 39.9517C239.508 39.2589 239.459 39.1213 239.935 38.8979C240.207 38.7652 240.321 38.4698 240.16 38.2719C239.992 38.0035 240.13 37.9547 240.675 38.0804C241.4 38.2244 241.429 38.1505 241.089 36.8317C240.798 35.6505 240.81 35.4004 241.268 35.3566C241.761 35.3094 241.78 35.1298 241.427 34.4168C240.456 32.4471 240.983 32.0056 242.809 33.2533C244.295 34.2847 244.538 34.2259 244.531 32.6619C244.497 31.5628 244.646 31.264 245.309 31.1295C246.003 30.9564 246.092 30.7701 245.849 30.0822C245.556 29.2567 245.984 28.8957 246.471 29.5248C246.919 30.122 247.741 29.7944 247.671 29.0544C247.63 28.6316 247.907 28.1784 248.348 27.9583C248.86 27.7316 248.949 27.5453 248.615 27.3994C248.277 27.2183 248.321 26.9297 248.859 26.2381C249.238 25.7396 249.765 25.298 250.047 25.271C250.611 25.2171 250.572 24.4385 249.954 23.9286C249.607 23.6418 249.664 23.4941 250.07 23.2775C250.511 23.0575 250.529 22.8779 250.193 22.341C249.612 21.472 249.87 19.7049 250.694 19.0216C251.054 18.7026 251.229 18.2948 251.064 18.0616C250.9 17.8284 251.124 17.2024 251.602 16.6232C252.172 15.893 252.337 15.3795 252.152 14.9349C251.935 14.5289 252.074 14.1244 252.598 13.6476L253.383 12.9324L252.079 12.3104ZM237.881 36.7475C237.775 36.7576 237.37 36.6185 236.927 36.4475C235.851 35.9814 235.751 36.4178 236.708 37.4997C237.707 38.6488 237.841 39.3116 237.074 39.1005C236.709 38.9932 236.45 39.2669 236.261 39.8895C236.031 40.836 235.961 40.8428 234.927 40.4438C233.521 39.8672 233.308 40.2431 234.288 41.5718L235.139 42.6638L234.339 42.8471C233.712 42.9782 233.594 43.2384 233.725 43.8659C233.867 44.5992 233.768 44.6798 232.761 44.5627C231.613 44.4592 229.446 42.9951 229.382 42.3256C229.311 41.5856 228.2 41.1229 226.755 41.2611C225.628 41.369 225.226 41.2651 225.074 40.7819C224.882 40.2668 224.481 40.1629 223.424 40.2641C221.909 40.409 221.944 40.4056 222.27 38.2408C222.339 37.843 222.043 37.7291 221.12 37.7462C220.447 37.775 219.739 37.8072 219.598 37.8207C219.454 37.7989 219.669 37.0672 220.113 36.1357C220.522 35.2075 220.772 34.4724 220.666 34.4826C220.525 34.496 219.681 34.9679 218.777 35.5523C216.799 36.8083 216.693 36.8184 216.76 36.0297C216.802 35.3501 216.766 35.3534 215.006 35.913C213.761 36.281 213.681 36.182 214.108 35.0743C214.371 34.4802 214.291 34.3812 213.551 34.452C212.881 34.516 212.692 34.3919 212.827 33.9522C212.956 33.442 212.742 33.427 211 33.807C208.983 34.2844 208.72 34.1318 209.457 32.9233C209.702 32.5087 209.888 31.8508 209.855 31.4984C209.797 30.8994 209.579 30.8491 207.866 31.1553C206.819 31.3621 205.938 31.4464 205.931 31.3759C205.924 31.3054 206.226 30.7431 206.563 30.1775C206.932 29.5732 207.083 28.9187 206.957 28.7174C206.796 28.5194 206.448 27.4859 206.164 26.3751C205.675 24.6083 205.687 24.3583 206.312 23.8361C206.807 23.4332 206.911 23.0321 206.713 22.4465C206.469 21.7586 206.526 21.6109 207.16 21.5502C207.689 21.4997 207.816 21.3452 207.635 20.9359C207.415 20.4946 207.581 20.3721 208.616 20.4153C209.969 20.4281 210.115 20.0941 209.2 19.0793C208.369 18.1986 208.375 17.5223 209.221 17.4414C209.573 17.4077 210.011 17.1525 210.132 16.9276C210.249 16.6674 210.702 16.1974 211.137 15.9069C211.773 15.4905 211.914 15.477 212.134 15.9182C212.528 16.6984 213.463 16.4311 214.793 15.0948C215.996 13.913 215.996 13.913 216.073 14.7234C216.184 15.8863 216.777 16.5053 217.455 16.1559C217.762 16.0199 218.269 16.1137 218.616 16.4005C219.041 16.751 219.58 16.8061 220.271 16.5978C221.17 16.3339 221.283 16.3943 221.164 17.0102C221.077 17.5875 221.231 17.715 222.042 17.6374C222.782 17.5667 223.084 17.7511 223.321 18.3685C223.662 19.3316 225.404 20.4451 227.297 20.9041C228.061 21.08 228.704 21.4808 228.811 21.8617C229.026 22.6234 229.592 22.9605 230.614 22.8627C231.283 22.7987 231.367 22.9329 231.296 24.0421C231.231 25.2219 231.315 25.3561 232.374 25.6459C233.323 25.9107 233.555 26.1019 233.478 26.7849C233.433 27.4293 233.601 27.6977 234.256 27.8485C234.987 28.0629 235.075 28.2324 234.884 29.2108C234.693 30.1892 234.78 30.3586 235.589 30.6369C236.584 31.0039 236.678 31.2439 236.216 32.355C235.959 33.0196 236.015 33.2276 236.58 33.5647C236.921 33.781 237.16 34.0427 237.067 34.1938C236.972 34.3096 237.125 34.7928 237.457 35.2944C238.083 36.2658 238.198 36.7171 237.881 36.7475ZM226.719 56.1289L224.828 56.0609L225.72 56.8291C226.695 57.7315 226.834 58.0737 226.13 58.1412C225.848 58.1681 225.589 58.4418 225.475 58.7371C225.397 59.0292 225.033 59.3129 224.645 59.35C223.553 59.4545 223.476 60.1375 224.506 60.5012C225.569 60.8263 225.799 61.3733 224.988 61.4508C224.178 61.5283 224.404 62.04 225.442 62.4742C225.959 62.6737 226.38 62.989 226.393 63.13C226.441 63.6233 224.229 64.2971 223.699 63.9567C223.393 63.737 223.048 63.8412 222.63 64.3079C222.308 64.6587 221.796 64.8855 221.43 64.7782C221.103 64.7029 220.447 64.9079 219.987 65.3074C219.196 65.9522 219.125 65.9589 218.571 65.3718C218.291 65.043 218.007 64.679 217.997 64.5733C217.983 64.4323 217.717 64.2445 217.425 64.1657C217.023 64.0619 216.765 64.3355 216.583 65.0286L216.286 66.0171L215.513 64.633C214.954 63.6197 214.414 63.1736 213.538 62.9373C211.754 62.5035 211.517 62.6328 211.187 64.0156C211.04 64.7054 210.812 65.2962 210.706 65.3063C210.636 65.313 209.454 64.8571 208.153 64.2703C206.002 63.3382 205.607 63.3048 205.826 64.1018C205.933 64.4827 205.292 64.4729 203.861 64.0053C203.164 63.7874 202.375 63.7206 202.104 63.8533C201.765 64.028 201.572 63.8687 201.524 63.3753C201.484 62.9525 201.162 62.5566 200.831 62.446C200.469 62.3739 199.871 62.0755 199.527 61.8239C198.919 61.4198 198.909 61.3141 199.364 60.4883C199.662 59.8907 199.704 59.2111 199.499 58.555C199.284 57.7933 199.356 57.4308 199.694 57.2561C199.963 57.0882 200.179 56.7475 200.156 56.5008C200.129 56.2189 200.514 55.7908 201.058 55.5255L201.972 55.0468L200.393 54.5223C198.522 53.9189 198.605 53.3064 200.579 53.1176C202.341 52.9491 202.3 52.5262 200.39 51.891C199.103 51.4452 198.176 50.6804 198.112 50.0109C198.102 49.9052 198.48 49.7624 198.973 49.7152C199.431 49.6713 200.225 49.4176 200.695 49.1238C201.842 48.4806 202.084 48.7775 201.511 50.2192L201.019 51.4041L202.832 51.0174C204.468 50.6475 204.612 50.6693 204.461 51.3238C204.339 51.9045 204.525 51.9933 205.663 51.9912C207.083 51.9621 207.166 52.0963 206.859 54.0816C206.703 55.0566 206.742 55.0885 207.5 54.8381C207.948 54.6886 209.246 54.1376 210.337 53.6421C212.755 52.5218 212.931 52.505 212.995 53.1745C213.062 53.8793 213.27 53.8238 214.596 52.808L215.723 51.9534L215.804 52.7991C215.891 53.7153 216.565 54.4333 217.234 54.3692C217.481 54.3456 218.113 53.8939 218.63 53.3467C219.408 52.561 219.818 52.3796 220.789 52.5C221.469 52.5417 222.169 52.7948 222.337 53.0632C222.501 53.2964 223.121 53.4505 223.72 53.3932C224.424 53.3258 225.089 53.5823 225.678 54.166C226.422 54.8772 226.714 54.9559 227.068 54.5665C227.655 54.0124 228.414 54.5088 228.511 55.5307C228.569 56.1298 228.396 56.1819 226.719 56.1289ZM217.776 89.7714C218.065 90.5616 218.001 90.6388 217.315 90.5267C216.484 90.3928 216.33 91.0121 217.064 91.6176C217.72 92.1593 217.245 92.7737 216.153 92.8782C215.307 92.9591 215.148 93.1521 214.962 94.5567C214.845 95.5636 214.923 96.3741 215.181 96.8472C215.74 97.8606 215.405 98.0705 214.076 97.5575C212.704 96.9775 212.528 96.9943 212.839 97.6403C213.143 98.2157 212.522 98.4173 212.116 97.8872C211.506 97.0921 211.317 97.7147 211.727 99.0268C212.481 101.337 211.513 101.999 210.222 100.024C209.771 99.3918 209.329 98.8651 209.188 98.8785C209.047 98.892 208.854 99.4794 208.813 100.159C208.676 101.701 208.256 101.777 207.561 100.457C206.911 99.2386 206.372 99.1835 206.484 100.346C206.588 101.439 206.061 101.88 205.663 101.065C205.443 100.624 205.217 100.859 204.675 102.262C203.874 104.294 203.013 104.59 201.296 103.367C200.229 102.616 200.193 102.619 199.694 103.343C199.353 103.873 199.046 104.009 198.674 103.832C198.076 103.533 198.358 102.759 199.098 102.689C200.225 102.581 194.715 103.712 196.037 101.915C199.441 97.3573 196.677 91.5053 192.151 88.0621C190.427 86.769 193.357 82.826 196.827 81.9251C193.435 83.6365 196.201 81.7005 196.138 80.6752C196.068 79.9352 195.871 78.9939 195.689 78.5845C195.372 77.8681 195.442 77.8613 196.604 78.1059C197.691 78.3219 198.072 78.2143 199.58 77.2522C201.657 75.9155 201.728 75.9088 201.685 76.9442C201.643 77.6238 201.833 77.7479 203.079 77.7709C204.006 77.789 204.34 77.9348 204.075 78.138C203.417 78.6987 204.06 79.0995 205.399 78.9714C206.421 78.8737 206.607 78.9625 206.446 79.5113C206.099 80.718 206.219 80.8488 207.427 80.8399C208.103 80.8464 208.87 81.0575 209.109 81.3192C209.347 81.5809 210.012 81.8373 210.582 81.8539C211.188 81.867 211.723 81.8869 211.794 81.8802C211.868 81.9087 211.747 82.1336 211.562 82.4357C211.091 83.0854 211.355 83.238 213.323 83.3697C214.612 83.4598 214.837 83.5805 214.908 84.3205C214.968 84.9548 215.165 85.1494 215.799 85.0887C217.631 84.9134 218.158 85.2186 218.062 86.4369C218.015 87.4371 218.141 87.6384 219.062 87.977L220.1 88.4112L218.771 88.645C217.583 88.8653 217.484 88.9459 217.776 89.7714Z" fill="white"/>
<path d="M85.1309 0.219497C85.0707 0.430125 84.4088 0.640751 83.6866 0.73102C82.9645 0.791199 81.6405 1.15228 80.7378 1.51336C79.1732 2.14524 79.113 2.20542 79.3236 3.07802C79.4139 3.58954 79.775 4.22142 80.0759 4.46214C80.6476 4.94357 80.9485 6.77905 80.5573 7.41093C80.4369 7.59147 80.4971 8.16317 80.7077 8.70478C81.0086 9.57738 80.9786 9.72783 80.3467 10.2093C79.775 10.6305 79.6847 10.9314 79.775 12.3155C79.8953 13.7598 79.8351 13.9705 79.2033 14.3015C78.2404 14.7829 77.6988 15.3245 78.1802 15.3245C78.451 15.3245 78.451 15.475 78.1802 15.9564C77.8793 16.4378 77.8793 16.6485 78.1501 16.7387C78.3307 16.7989 78.8723 17.1901 79.3537 17.6113C79.8051 18.0025 80.4068 18.3335 80.6777 18.3335C81.3697 18.3335 81.5803 18.6645 81.1892 19.1459C80.9184 19.4769 80.9184 19.7176 81.1892 20.1389C81.3697 20.4698 81.46 20.9513 81.3396 21.2221C81.2193 21.523 81.3396 21.8239 81.6405 22.0044C82.2423 22.3053 82.3025 23.1779 81.8211 23.6593C81.3095 24.1709 81.7308 24.9532 82.483 24.9532C82.8441 24.9532 83.1751 25.1939 83.2654 25.555C83.3556 25.886 83.5663 26.1568 83.7167 26.1568C84.2884 26.1568 85.1309 27.5108 84.9504 28.1728C84.8601 28.594 84.9203 28.8649 85.1309 28.8649C85.7628 28.8649 85.8531 29.7675 85.2814 30.1888C84.83 30.5499 84.7999 30.6702 85.1309 31.0915C85.6725 31.7234 85.2814 33.4084 84.5291 33.5889C83.7769 33.7996 83.807 34.1907 84.6194 34.612L85.2814 34.9731L84.5893 35.5147C84.1981 35.8457 83.7167 36.0864 83.5061 36.0864C83.2955 36.0864 83.0547 36.297 82.9344 36.5377C82.814 36.8687 82.3326 36.9891 81.2193 36.9891C79.8351 36.9891 79.6847 37.0492 79.8351 37.5909C79.9856 38.1325 79.8351 38.1926 78.3006 38.2227C76.7359 38.2528 74.2686 38.6741 75.1712 38.7643C75.3518 38.7643 75.5323 38.9148 75.5323 39.0652C75.5323 39.3361 74.5995 39.7272 72.5835 40.2989C71.2295 40.66 71.1392 40.9308 72.2826 41.1113C73.2455 41.2618 73.3057 41.4423 72.6136 42.1645L71.9517 42.7964L72.7039 43.7893C73.6367 44.9929 73.396 45.1734 70.9888 45.1734C69.1232 45.1734 68.702 45.5345 69.9657 46.016C70.387 46.1664 70.718 46.4071 70.6879 46.5275C70.6879 46.6779 69.9958 47.3098 69.1533 47.9417C67.7391 49.0249 67.6488 49.1453 68.2506 49.3559C68.5816 49.4763 69.033 49.8975 69.2436 50.2586C69.5746 50.9206 69.5746 50.9206 67.5285 50.74C65.9036 50.5896 65.3921 50.6498 64.9709 51.0108C64.5195 51.4321 64.3089 51.402 62.9248 50.7099C60.999 49.717 60.3671 49.6869 60.668 50.5896C61.1796 52.2144 62.7141 54.8322 63.2257 54.9526C63.9177 55.1331 63.9779 55.6446 63.346 55.6446C63.0752 55.6446 62.8044 55.8854 62.684 56.1562C62.5938 56.4571 62.2327 57.0589 61.9318 57.5102C61.4504 58.2023 61.4203 58.4129 61.7513 58.9545C61.9619 59.2855 62.2929 59.4961 62.4734 59.4359C62.6539 59.3758 63.4363 59.1952 64.2186 59.105C65.4523 58.8943 65.6027 58.9545 65.6027 59.466C65.6027 60.0077 65.7833 60.0678 67.1975 59.9776C68.04 59.9174 68.5515 59.9475 68.3108 60.0377C68.0701 60.1581 67.7692 60.4289 67.6488 60.6094C67.5285 60.8201 67.047 61.0909 66.5957 61.1811C66.1143 61.3015 65.031 61.8732 64.1584 62.475C62.9548 63.2874 62.5938 63.7087 62.6539 64.1901C62.7442 64.8521 62.8044 64.8521 65.3018 64.5211L66.6559 64.3105L65.7532 65.0627C64.6098 66.0256 64.8505 66.2663 66.355 65.7247C67.9497 65.153 68.6418 65.153 68.4312 65.7247C68.2205 66.2663 68.8223 66.3265 69.9958 65.8751C70.4472 65.6946 70.8684 65.6344 70.9587 65.6946C71.0189 65.7849 70.5374 66.0858 69.8454 66.3566C68.4613 66.8982 68.4913 66.8681 68.9728 67.6504C69.2737 68.1619 69.2135 68.3425 68.6418 68.8239L67.9196 69.3655L68.7321 69.9974C69.6347 70.7196 69.725 70.9904 69.063 70.9904C68.8223 70.9904 68.6117 71.1709 68.6117 71.4116C68.6117 71.7125 68.8223 71.7727 69.3038 71.6824C69.9056 71.532 69.9056 71.5621 69.0931 72.4648C67.8595 73.7586 68.2807 74.0595 70.8082 73.6082C72.2826 73.3675 72.9145 73.3675 73.065 73.6082C73.1853 73.7887 73.5464 73.9993 73.8774 74.0595C74.3889 74.1498 74.3287 74.2401 73.4862 74.7215C71.8012 75.5941 72.2826 76.226 74.9305 76.4968C76.1642 76.6472 77.3076 76.8579 77.4882 77.0384C77.6386 77.2189 77.6386 77.3092 77.3979 77.3092C77.1873 77.3092 77.0368 77.5198 77.0368 77.7605C77.0368 78.1216 77.3377 78.2119 78.3307 78.1517C79.4741 78.0614 79.5944 78.1216 79.5042 78.7234C79.4139 79.2951 79.5643 79.4155 80.1661 79.4155C81.0688 79.4155 81.0989 79.5058 80.467 80.4686C79.8953 81.3412 79.9856 81.4014 82.5432 81.612C83.7468 81.7324 84.6194 81.6421 85.4017 81.3111C86.2142 80.9801 86.6354 80.9501 87.0266 81.1908C87.3275 81.3713 87.8992 81.5218 88.2903 81.5218C88.6815 81.5218 89.0727 81.7324 89.193 81.9731C89.2833 82.2439 89.7346 82.4244 90.2763 82.4244C90.848 82.4244 91.1789 82.5749 91.1789 82.8457C91.1789 83.3873 91.8409 83.628 93.3153 83.628C94.4286 83.628 94.4587 83.6581 94.1277 84.2599C93.7967 84.7714 93.8268 84.9219 94.2782 85.1626C94.549 85.3431 94.7897 85.7343 94.7897 86.0352C94.7897 86.7874 95.7225 88.8335 96.234 89.1344C96.4145 89.2548 96.5951 89.646 96.5951 89.9469C96.5951 90.2778 96.8057 90.5487 97.0765 90.5487C97.3172 90.5487 97.7385 91.0301 97.9792 91.6018C98.2199 92.1735 98.581 92.6549 98.7916 92.6549C99.0023 92.6549 99.7545 92.9257 100.447 93.2567C101.169 93.6178 101.861 93.7983 101.981 93.7081C102.132 93.6479 102.884 93.678 103.696 93.8284C104.719 94.0391 105.772 93.9789 107.277 93.678C111.55 92.8054 112.212 92.5346 113.897 90.9097C114.769 90.0672 115.852 89.1946 116.274 89.0141C116.815 88.7433 117.026 88.4725 116.906 88.1114C116.514 86.9379 119.463 86.1255 120.817 87.0583C122.231 88.0211 125 87.8406 124.007 86.8476C123.405 86.2458 123.646 86.0352 124.909 86.0352C126.384 86.0352 126.956 86.3361 129.002 88.0512C130.897 89.6761 131.379 89.5557 130.596 87.66C130.265 86.9078 129.995 86.2157 129.995 86.1556C129.995 86.0954 130.356 86.0352 130.837 86.0352C131.288 86.0352 132.612 86.637 133.846 87.3892C135.05 88.1415 136.193 88.7433 136.434 88.7433C137.096 88.7433 137.216 87.991 136.855 86.2157C136.644 85.283 136.584 84.4705 136.705 84.3502C136.975 84.0493 139.262 85.3431 140.887 86.6972C142.241 87.8105 142.933 87.9609 142.933 87.1485C142.933 86.9379 142.452 85.7945 141.88 84.5909C141.308 83.3873 140.977 82.4244 141.128 82.4244C141.278 82.4244 142.181 83.3873 143.114 84.5307C144.077 85.7042 145.039 86.637 145.25 86.637C145.822 86.637 145.732 86.3361 144.739 84.8316C144.257 84.0794 143.836 83.3271 143.836 83.1767C143.836 82.7855 144.708 83.8688 146.393 86.3963C148.289 89.2247 148.65 89.1344 147.868 85.9449C147.687 85.1927 147.748 85.1325 148.62 85.1325C149.733 85.1325 149.824 84.7714 148.891 84.1396C148.229 83.6882 148.229 83.6581 148.801 83.6581C149.132 83.628 150.125 83.959 150.997 84.3803C152.983 85.3131 153.043 84.8918 151.057 83.8086C149.282 82.8457 147.597 82.8156 147.597 83.7484C147.597 84.621 146.995 84.6511 146.604 83.7785C145.852 82.1536 146.153 82.0333 151.358 81.7324C153.314 81.6421 153.224 80.7996 151.148 79.596C150.275 79.0845 149.342 78.4225 149.041 78.1216C148.59 77.6703 148.861 77.7305 150.726 78.3623C153.043 79.1447 154.789 79.3252 155.119 78.8137C155.21 78.6632 154.909 78.3022 154.458 78.0314C149.282 74.8719 144.739 71.3815 144.739 70.539C144.739 70.3284 144.588 70.0877 144.377 70.0275C143.685 69.7868 144.438 69.2753 145.701 69.0947C146.393 69.0045 147.025 68.7637 147.086 68.5832C147.176 68.3726 147.717 68.3425 148.68 68.4628C150.004 68.6434 150.155 68.6133 150.155 68.0717C150.155 67.6805 149.583 67.2292 148.139 66.507C146.995 65.9353 146.273 65.4238 146.484 65.3636C147.326 65.0627 146.724 64.4007 144.678 63.4981L142.482 62.5352L143.264 61.8732C143.716 61.5121 144.347 60.9705 144.708 60.6997C145.039 60.3988 145.34 60.0377 145.34 59.8572C145.34 59.4059 144.107 58.7138 142.843 58.4731C141.429 58.2324 141.85 57.8713 143.896 57.6005C144.678 57.4801 145.431 57.2695 145.521 57.119C145.822 56.6075 145.009 55.9455 144.107 55.9455C143.565 55.9455 143.234 55.7951 143.234 55.5243C143.234 54.8924 142.602 54.772 141.007 55.0729C139.473 55.3438 139.022 55.2535 139.022 54.6216C139.022 54.3809 138.841 54.0499 138.63 53.8694C138.39 53.6888 138.269 53.1773 138.36 52.6658C138.48 51.8534 138.36 51.7029 137.397 51.2215C136.675 50.8905 136.223 50.8002 136.013 51.0108C135.561 51.4622 133.906 51.1613 133.906 50.6197C133.906 50.2285 133.635 50.1683 132.552 50.3188C131.74 50.4391 131.198 50.409 131.198 50.2285C131.198 49.7471 130.566 49.8674 128.941 50.6799C128.129 51.071 127.256 51.4321 127.016 51.4321C126.775 51.4321 126.324 51.6728 126.023 51.9436C125.541 52.3649 125.391 52.395 125.18 52.064C125 51.7631 124.609 51.7029 123.736 51.8233C122.743 52.0038 122.382 51.8834 121.329 51.1312C120.456 50.4993 120.035 49.9577 119.915 49.2356C119.644 47.7612 120.246 45.8354 121.389 44.6017C122.412 43.4583 123.074 43.4583 123.074 44.5717C123.074 44.9628 123.224 45.1133 123.495 45.023C123.736 44.9327 124.067 45.1734 124.278 45.5947C124.518 45.9859 124.789 46.3169 124.94 46.3169C125.06 46.3169 125.18 46.6779 125.18 47.0992C125.18 47.8514 125.24 47.8815 126.324 47.6709C128.34 47.2797 129.513 47.1895 133.004 47.0992C134.899 47.0691 136.855 46.8585 137.306 46.6779C138.45 46.1965 138.691 46.2266 137.998 46.7682C137.667 47.0089 137.457 47.2496 137.547 47.2797C139.022 48.2125 139.984 48.4833 141.79 48.6338C142.963 48.6939 144.197 48.9347 144.558 49.1754C144.889 49.386 146.123 49.8674 147.236 50.2285C148.379 50.5896 149.372 51.071 149.463 51.3117C149.553 51.5525 150.155 51.8834 150.817 52.0941C151.479 52.2746 152.08 52.6357 152.171 52.8463C152.261 53.087 152.863 53.4782 153.495 53.7189C154.096 53.9897 154.698 54.3809 154.789 54.6216C154.879 54.8623 155.3 55.0429 155.691 55.0429C156.233 55.0429 156.413 55.1632 156.293 55.4942C156.173 55.7951 156.504 56.096 157.436 56.5173C158.429 56.9385 158.851 57.3297 159.152 58.1421C159.392 58.7439 159.813 59.2855 160.054 59.3156C160.325 59.3758 160.536 59.6767 160.536 60.0076C160.536 60.459 160.746 60.6094 161.438 60.6395C161.95 60.6696 162.552 60.7599 162.792 60.8803C163.304 61.0909 167.547 61.9635 167.847 61.9334C167.968 61.9334 167.516 61.6626 166.854 61.3617C165.801 60.8802 165.741 60.79 166.403 60.79C167.577 60.7298 168.028 60.3386 167.486 59.8873C167.155 59.5864 167.095 59.3457 167.306 58.9545C167.757 58.112 167.667 57.5102 167.005 56.8482C166.554 56.3969 166.463 56.096 166.644 55.7048C167.005 55.0429 166.794 54.4712 165.861 53.4481L165.079 52.6357L166.283 52.6056C167.938 52.5755 166.734 52.0941 164.899 52.0339C163.815 52.0339 163.665 51.9436 164.086 51.7029C164.899 51.2215 164.688 50.9206 163.244 50.5595C161.649 50.1683 161.168 49.4161 161.378 47.7311C161.559 46.4372 160.596 43.8194 159.693 43.0371C158.881 42.4052 159.091 42.1043 160.114 42.4654C160.596 42.6459 161.077 42.7061 161.168 42.6158C161.258 42.5556 160.987 41.9539 160.536 41.3521C160.114 40.7202 159.783 39.9078 159.783 39.5166C159.783 39.1254 159.663 38.7944 159.482 38.7944C159.001 38.7944 159.121 40.3892 159.663 41.1414C160.114 41.8034 160.114 41.8335 159.272 41.6229C158.821 41.5025 158.399 41.2919 158.339 41.1414C158.279 41.0211 157.707 40.991 157.105 41.0813C156.082 41.2317 155.902 41.1715 155.33 40.3892C154.427 39.1254 154.187 37.9519 154.789 37.7112C155.661 37.3802 155.3 37.1395 153.856 37.1395C152.562 37.1395 152.411 37.0492 152.321 36.4174C152.171 35.3341 149.824 33.1677 147.928 32.3252C145.701 31.3322 145.521 30.8207 147.025 29.587C148.018 28.7445 148.139 28.5038 147.868 28.0524C147.687 27.7515 147.206 27.4206 146.815 27.3002C146.424 27.1798 145.491 26.909 144.739 26.6984C142.843 26.1568 142.843 25.555 144.739 23.5691C146.273 21.9442 146.303 21.9141 145.792 21.1619C145.31 20.4397 145.34 20.3796 145.852 19.9583C146.845 19.2061 148.68 18.845 149.433 19.2663C150.034 19.5671 150.365 19.4769 151.96 18.6645C152.953 18.1529 153.916 17.7919 154.066 17.8821C154.247 18.0025 154.758 17.7919 155.24 17.4609C155.691 17.1299 156.173 16.9494 156.293 17.0396C156.383 17.16 156.865 16.8892 157.316 16.4679C157.767 16.0166 158.64 15.5652 159.272 15.475C159.874 15.3546 160.475 15.144 160.566 14.9634C160.656 14.813 160.927 14.8431 161.198 15.0838C161.559 15.3847 161.709 15.3546 162.04 14.9333C162.642 14.0908 162.853 14.3616 162.341 15.3546C161.619 16.7086 162.07 16.829 163.123 15.5351C164.237 14.1811 165.561 13.3988 166.012 13.8501C166.192 14.0307 167.005 14.2112 167.878 14.2413C168.72 14.2714 169.472 14.3917 169.563 14.482C169.773 14.6926 171.609 14.0607 172.21 13.5492C172.812 13.0678 173.143 13.2784 173.625 14.4218C173.835 14.9033 174.106 15.3245 174.257 15.3245C174.407 15.3245 174.527 15.505 174.527 15.7157C174.527 16.2573 176.423 17.1299 177.205 16.9193C178.319 16.6485 177.897 17.2803 176.604 17.822C175.641 18.2432 175.43 18.4538 175.611 18.8751C175.881 19.507 175.881 21.0115 175.611 21.6734C175.46 22.0345 175.611 22.215 176.303 22.3354C177.687 22.6363 177.416 23.1478 175.911 23.1478C174.497 23.1478 174.196 23.4186 174.016 25.0736C173.956 25.6753 174.196 26.2771 174.828 27.0595C175.34 27.6914 175.731 28.4135 175.731 28.6843C175.731 29.3463 174.557 29.3162 174.046 28.6241C173.655 28.1427 173.625 28.1728 173.444 28.8047C173.294 29.2861 173.083 29.4366 172.722 29.3162C172.361 29.1958 171.819 29.4666 171.187 30.0684C170.345 30.8207 170.255 31.0313 170.616 31.272C170.856 31.4225 171.338 31.5729 171.669 31.603C172 31.603 171.729 31.8136 170.977 32.0845C170.104 32.3853 169.713 32.6862 169.833 32.957C170.044 33.5287 168.509 34.281 167.155 34.281C166.223 34.281 166.102 34.3713 166.253 34.8527C166.403 35.3341 166.162 35.5147 164.778 35.9359C163.725 36.2669 163.033 36.6581 162.943 37.0192C162.792 37.4705 162.461 37.5909 161.258 37.5909C159.693 37.5909 159.543 37.7112 160.235 38.6139C160.626 39.1254 160.686 39.1555 160.686 38.7042C160.686 38.3431 160.957 38.1926 161.649 38.1926C162.251 38.1926 162.913 37.9218 163.364 37.4705C163.815 37.0793 165.109 36.4474 166.253 36.0864C167.426 35.6952 168.57 35.2138 168.81 34.9731C169.051 34.7323 169.713 34.281 170.255 33.95C170.766 33.6491 171.217 33.2279 171.217 33.0172C171.217 32.8066 171.759 32.3853 172.421 32.1145C173.233 31.7836 173.625 31.4225 173.625 31.0313C173.625 30.6401 173.956 30.3693 174.828 30.0985C176.182 29.7074 176.573 28.8949 176.062 27.571C175.851 26.9993 175.851 26.7285 176.092 26.578C176.303 26.4276 176.212 26.2771 175.791 26.1267C175.039 25.8559 174.888 24.6523 175.58 24.6523C175.821 24.6523 176.032 24.4718 176.032 24.231C176.032 23.9903 176.333 23.7496 176.724 23.6894C177.265 23.6293 177.386 23.4186 177.356 22.6363C177.296 21.854 177.446 21.6433 178.108 21.4628C178.68 21.3124 178.74 21.2221 178.379 21.1318C178.108 21.0716 177.687 20.6203 177.476 20.1088C177.265 19.6273 176.965 19.2362 176.814 19.2362C176.634 19.2362 177.025 18.7547 177.657 18.183C178.74 17.1901 178.89 16.5281 177.988 16.5281C177.777 16.5281 177.536 16.3175 177.416 16.0767C177.326 15.836 177.055 15.6254 176.784 15.6254C176.453 15.6254 176.363 15.4449 176.513 14.9033C176.694 14.0908 176.122 13.5191 175.851 14.2413C175.761 14.5121 175.58 14.7227 175.46 14.7227C175.219 14.7227 175.28 13.128 175.55 12.6766C175.851 12.1952 175.039 12.2253 174.588 12.6766C174.287 12.9775 174.136 12.9775 173.926 12.6164C173.715 12.2554 173.444 12.2554 172.361 12.5262C170.917 12.9173 170.646 12.8271 171.217 12.1651C171.458 11.8642 171.488 11.7137 171.248 11.7137C170.826 11.7137 169.713 12.797 169.713 13.2182C169.713 13.3687 169.442 13.5191 169.111 13.5191C168.78 13.5191 168.509 13.4289 168.509 13.2784C168.509 12.8572 167.095 12.4058 166.584 12.6766C166.313 12.8271 165.681 12.8572 165.169 12.7669C164.538 12.6164 163.966 12.7368 163.184 13.2182C162.371 13.6997 162.04 13.7598 161.86 13.489C161.649 13.1581 161.408 13.1881 160.385 13.7598C160.144 13.9103 159.332 14.3015 158.58 14.6324C154.789 16.3476 152.923 17.0998 152.05 17.2803C151.057 17.491 150.395 18.0025 151.118 18.0627C151.328 18.0627 151.178 18.2131 150.787 18.3636C150.305 18.5441 149.944 18.5441 149.703 18.3335C149.433 18.0928 148.379 18.0928 146.213 18.3335C143.144 18.6344 143.084 18.6344 142.572 17.9724C141.97 17.16 141.91 16.5883 142.331 15.4449C142.512 14.9935 142.542 14.5121 142.392 14.3616C142.271 14.2413 141.218 14.5121 140.075 15.0236C137.788 15.9865 136.915 16.1068 135.982 15.5953C135.411 15.2944 135.381 15.2342 135.862 14.7227C136.524 14.0006 136.043 13.7598 134.719 14.1811C133.304 14.6324 133.094 14.3917 133.906 13.2483C134.628 12.1952 134.448 12.1049 132.853 12.7669C131.92 13.1581 131.619 13.1881 130.867 12.8572C130.386 12.6465 129.995 12.2855 129.995 12.1049C129.995 11.4429 129.303 11.6837 128.58 12.5262C127.949 13.3085 127.918 13.3386 127.888 12.7368C127.888 11.8642 127.166 11.3226 126.384 11.5633C126.023 11.6837 125.541 11.5934 125.301 11.3828C125.06 11.2022 124.428 11.0217 123.886 11.0518C123.285 11.0518 122.653 10.8411 122.262 10.45C121.66 9.90837 121.57 9.87828 121.57 10.2995C121.57 10.6606 121.329 10.8111 120.787 10.8111C120.276 10.8111 119.945 10.9916 119.854 11.3828C119.734 11.8642 119.463 11.9545 118.621 11.8943C118.019 11.8642 117.507 11.6837 117.417 11.473C117.237 10.9314 116.815 11.0518 116.605 11.7137C116.304 12.6164 115.852 12.466 114.288 10.9013L112.844 9.48711V10.6305C112.844 11.6837 112.783 11.7739 112.182 11.5633C110.587 11.0819 110.196 11.0819 109.744 11.5633C109.443 11.8341 108.661 12.1049 107.969 12.135C107.096 12.2253 106.585 12.4359 106.224 12.9173C105.803 13.489 105.381 13.6395 104.087 13.6696C103.125 13.6997 102.192 13.5191 101.801 13.2784C101.349 13.0076 101.109 12.9775 101.109 13.1881C101.109 13.3687 100.868 13.5191 100.537 13.5191C100.206 13.5191 99.6341 12.9474 99.0624 12.0146C98.5509 11.1721 97.919 10.5102 97.6783 10.5102C97.4376 10.5102 96.8057 9.96855 96.2942 9.30657C95.7827 8.6446 95.1809 8.10299 94.9702 8.10299C94.7897 8.10299 93.887 7.35075 92.9843 6.41797C92.0816 5.51528 90.848 4.49223 90.2763 4.19133C89.7046 3.89044 88.9824 3.37891 88.6815 3.04792C88.3505 2.71694 87.9594 2.47622 87.7487 2.56649C87.5682 2.62667 87.1469 2.08505 86.8159 1.33281C86.154 -0.17167 85.6425 -0.472567 85.9433 0.791199C86.2142 2.02487 87.5682 3.89044 88.17 3.89044C88.4709 3.89044 88.862 4.10106 89.0727 4.34178C89.2833 4.5825 89.6143 4.79313 89.7948 4.79313C90.0055 4.79313 90.5471 5.21438 91.0586 5.72591C91.54 6.23743 92.3524 6.8994 92.8941 7.23039C93.4959 7.62155 93.7967 7.98263 93.6764 8.28353C93.5861 8.52425 94.0676 9.87828 94.7295 11.3527C95.6623 13.3085 95.9933 14.4519 96.0836 15.836C96.1437 16.8892 96.0535 17.7317 95.9331 17.7317C95.7827 17.7317 95.7526 18.6645 95.8729 19.8079C96.1137 22.2752 95.8428 24.0505 95.2411 24.0505C95.0304 24.0505 94.7897 23.7797 94.7295 23.4487C94.6092 22.5761 94.0676 22.6965 93.9472 23.5992C93.8569 24.231 93.7366 24.3514 93.3454 24.1709C91.4197 23.3885 90.8781 23.7195 90.8781 25.7656V27.0595H89.3435C88.2602 27.0595 87.6885 27.2099 87.4177 27.5409C86.9062 28.2631 85.9433 27.8117 85.6124 26.6984C85.3416 25.7957 84.2884 24.9231 82.9946 24.4718C82.3928 24.2611 82.3025 23.7195 82.7538 23.2682C82.9946 23.0275 82.9645 22.6664 82.7238 22.0646C82.5131 21.5832 82.3928 20.9513 82.4229 20.6504C82.4529 20.3796 82.3627 20.1389 82.1821 20.1389C82.0317 20.1389 81.9414 19.7176 82.0317 19.1459C82.1821 18.2733 82.0919 18.1228 80.798 17.3405C80.0458 16.8892 79.2634 16.5281 79.113 16.5281C78.4209 16.5281 79.0829 15.7759 79.8351 15.6856C80.4971 15.5953 80.6476 15.4449 80.6476 14.7528C80.6476 14.2714 80.8582 13.7298 81.0989 13.5191C81.5202 13.1581 81.5202 13.0678 81.0989 12.6164C80.467 11.9244 80.5272 11.0518 81.2794 10.0889C81.791 9.42693 81.8512 9.12604 81.6104 8.43397C81.3998 7.83218 81.3998 7.47111 81.6104 7.26048C81.8512 7.01976 81.8512 6.77905 81.5803 6.47815C81.3697 6.23743 81.2794 5.78609 81.3697 5.48519C81.46 5.18429 81.4299 4.43205 81.2794 3.83026C81.129 3.19838 81.129 2.74703 81.2494 2.8373C81.3697 2.89748 81.791 2.68685 82.2122 2.29569C82.6034 1.93461 83.3556 1.63371 83.8972 1.60362C85.0707 1.57353 85.5522 1.15228 85.4017 0.400034C85.3416 0.0389576 85.2212 -0.02122 85.1309 0.219497ZM118.711 29.2259C118.26 30.7605 117.838 37.32 118.109 38.1926C118.26 38.7042 118.41 38.7643 118.741 38.4635C118.952 38.2829 119.373 38.2227 119.644 38.313C120.155 38.5236 121.269 38.2227 123.796 37.2599C124.609 36.959 125.331 36.7483 125.391 36.8085C125.451 36.8687 124.759 37.5608 123.826 38.3732C122.893 39.1555 121.78 40.4193 121.359 41.1715C120.908 41.9238 120.185 43.0371 119.734 43.6088C118.922 44.6619 117.598 47.5806 117.237 49.0851C117.056 49.8975 115.822 50.5896 115.612 49.9878C115.552 49.8073 115.311 49.7471 115.07 49.8373C114.529 50.048 113.746 49.4161 113.746 48.7842C113.746 48.5435 113.536 48.0921 113.265 47.7912C112.452 46.8886 113.174 43.4884 114.589 41.5627C115.19 40.7503 115.943 39.998 116.274 39.9078C116.785 39.7573 116.815 39.4263 116.725 35.8156C116.665 33.6792 116.514 31.8136 116.394 31.6933C116.274 31.5729 115.732 31.8437 115.19 32.2951C114.649 32.7464 113.505 33.5588 112.663 34.1305C111.339 35.0031 111.098 35.3341 110.888 36.4474C110.767 37.1696 110.677 38.4334 110.707 39.306C110.767 40.2688 110.497 41.8937 109.985 43.6991L109.173 46.5275L107.909 46.9186C107.247 47.1594 106.464 47.5806 106.194 47.9116C105.863 48.3329 105.532 48.4231 105.08 48.2727C104.719 48.1824 104.418 47.9718 104.418 47.8213C104.418 47.6709 104.268 47.1895 104.057 46.708C103.877 46.2567 103.756 45.7151 103.787 45.5646C103.847 45.3841 104.057 43.6389 104.298 41.683C104.659 38.4635 104.659 38.0422 104.238 37.5608C103.817 37.1094 103.847 36.8687 104.418 35.1536C104.779 34.1005 105.11 33.1978 105.141 33.1677C105.201 33.1075 105.863 33.6792 106.675 34.4013L108.119 35.7554L109.052 35.1235C109.564 34.7624 110.527 33.9801 111.189 33.4084C111.851 32.8066 113.566 31.6632 115.01 30.8508C116.454 30.0684 117.929 29.0755 118.29 28.6843C118.651 28.2932 119.012 27.9622 119.042 27.9622C119.072 27.9622 118.922 28.5339 118.711 29.2259ZM95.903 37.4705C96.6854 37.9519 97.4978 38.0121 97.4978 37.5909C97.4978 36.9289 98.0996 37.3501 98.9421 38.6139C100.085 40.2989 100.236 40.7503 100.477 43.6389C100.657 45.8354 100.507 46.6478 100.116 45.5646C99.9952 45.3239 99.3934 44.8726 98.7315 44.5416C98.0695 44.1805 96.7154 43.2477 95.7225 42.4052C93.887 40.8706 93.195 40.6901 93.4959 41.8034C93.6463 42.345 93.4959 42.3149 92.0515 41.5025C90.4267 40.5998 89.3736 40.3591 89.3736 40.8706C89.3736 41.0211 89.5842 41.2919 89.855 41.5326C90.0957 41.7432 90.2462 42.1645 90.1559 42.4955C90.0957 42.8265 90.1559 43.3079 90.3665 43.6088C90.848 44.4212 90.1258 45.1734 88.9523 45.0531C88.2001 44.9929 88.0195 45.0832 88.0195 45.5646C88.0195 46.1965 87.5381 46.4071 85.0106 46.8886C84.3486 47.0089 83.3255 47.4001 82.7538 47.7311C82.1821 48.0921 81.1591 48.5134 80.4971 48.724C79.8351 48.9347 79.1732 49.2055 79.0227 49.3559C78.6015 49.717 79.4139 50.5294 80.1962 50.5294C80.5573 50.5294 81.0387 50.74 81.2494 50.9808C81.46 51.2215 81.791 51.4321 81.9715 51.4321C82.152 51.4321 82.5131 51.5525 82.7538 51.733C83.1149 51.9436 83.1149 52.0941 82.6335 52.6056C81.9414 53.3879 82.2423 53.8393 83.4459 53.8393C84.3787 53.8393 84.3486 53.8694 82.7538 54.742C81.8512 55.2535 81.0387 55.765 80.9485 55.8854C80.8582 56.0057 80.4068 56.2765 79.9555 56.4872C79.5042 56.6677 79.1431 57.0288 79.2033 57.2695C79.2634 57.4801 78.9625 57.9616 78.5413 58.2925L77.789 58.8943L78.6917 59.2554C79.1732 59.4359 79.8652 59.5262 80.2263 59.4359C80.6175 59.3156 81.0387 59.4359 81.2494 59.7068C81.5503 60.0678 81.5503 60.1581 81.1591 60.1581C80.4971 60.1581 80.1661 60.7599 80.6777 61.0608C80.9184 61.2413 80.6777 61.3918 79.9555 61.5121C79.3537 61.6325 78.8422 61.8431 78.8422 61.9635C78.8422 62.3246 80.3166 62.6255 80.9786 62.4148C82.0919 62.0537 81.5503 62.5954 80.1962 63.1671C78.5714 63.8591 78.3608 64.6715 79.8351 64.6715C80.3467 64.7016 81.129 64.9724 81.5202 65.3034L82.2423 65.8751L80.4971 67.7106C78.6616 69.6063 78.5714 70.4187 80.1962 69.7868C80.8281 69.5461 81.0989 69.5461 81.2494 69.8169C81.3998 70.0275 81.8211 70.0877 82.4229 69.9372C83.6264 69.6664 83.5964 69.8771 82.2724 70.6594C80.9485 71.4417 81.1892 71.8931 82.9946 71.8931L84.4088 71.9232L83.145 72.6754C81.46 73.6984 81.3697 74.6011 82.9645 74.6011C83.8371 74.6011 83.9875 74.6914 83.7167 74.9622C83.145 75.5339 83.2955 76.1056 84.0477 76.1056C84.4389 76.1056 84.83 76.3764 85.0106 76.7676C85.1911 77.1888 85.6725 77.5198 86.2142 77.6101C86.9363 77.7305 86.9965 77.8207 86.6053 77.9712C86.3044 78.0915 86.0637 78.3924 86.0637 78.6632C86.0637 78.9942 86.3947 79.1146 87.3576 79.1447C88.0496 79.1447 88.8921 79.265 89.2231 79.4155C89.7346 79.596 89.6143 79.6863 88.6213 79.8668C87.9594 79.9872 86.7859 80.258 86.0035 80.4987C85.2513 80.7394 83.9273 80.92 83.0848 80.8598C81.5803 80.7695 81.5503 80.7394 81.7007 79.9571C81.8812 79.265 81.791 79.1146 81.129 78.934C80.6777 78.8438 80.4369 78.6031 80.5272 78.3623C80.7077 77.911 79.8051 77.3092 78.9625 77.3092C78.6917 77.3092 78.2705 77.0685 78.0899 76.7676C77.8191 76.4065 76.9465 76.1658 75.3217 75.9251L72.9747 75.5941L74.419 74.9321C76.0138 74.1799 76.2244 73.548 75.0208 73.0666C74.1482 72.7055 70.9888 72.6754 69.9657 72.9763C69.4241 73.1568 69.4241 73.1267 70.056 72.4046C71.049 71.3515 70.8684 69.9673 69.7551 69.847C69.2737 69.7868 68.9126 69.6664 68.9126 69.5762C68.9126 69.3354 70.7481 67.6805 71.049 67.6805C71.1994 67.6805 71.3198 67.5301 71.3198 67.3796C71.3198 67.1991 71.1091 67.0787 70.8383 67.0787C70.1162 67.0787 70.6578 66.507 71.8313 66.0256C73.2455 65.4238 72.9446 65.1831 70.8684 65.2432C69.9657 65.2432 69.2135 65.153 69.2135 65.0025C69.2135 64.8521 68.8524 64.6715 68.4011 64.6114C67.5887 64.5211 67.6187 64.491 69.033 63.5281C70.4472 62.6254 70.5073 62.1741 69.1232 62.9263C68.4312 63.2874 63.4965 64.16 63.2858 63.9494C63.015 63.6786 66.024 61.9936 67.709 61.5422C68.702 61.2714 69.5144 60.8803 69.5144 60.7298C69.5144 60.5493 69.8153 60.1581 70.2065 59.8271C70.8985 59.2554 70.718 59.135 69.2737 59.2554C68.8825 59.2855 68.1002 59.0749 67.4984 58.8041C66.7161 58.4129 66.024 58.3527 65.0009 58.4731C63.2257 58.7138 62.5336 58.1722 63.4965 57.2996C63.8274 56.9987 64.0983 56.5774 64.0983 56.3969C64.0983 56.1863 64.3691 55.9455 64.7 55.8553C65.5726 55.6146 65.4222 55.3137 63.7372 53.9897C62.323 52.9065 60.8787 50.9507 61.1796 50.6197C61.2698 50.5595 61.9017 50.9206 62.6539 51.4321C63.3761 51.9436 64.4593 52.4251 65.0611 52.5153C66.6559 52.7861 68.9126 52.395 68.9126 51.8534C68.9126 51.6126 69.1232 51.4321 69.3639 51.4321C69.9356 51.4321 69.9356 50.5595 69.3639 49.717C68.9427 49.1152 68.9728 49.0249 69.9056 48.3028C70.5675 47.7912 71.1091 47.6107 71.5605 47.7311C72.2826 47.9116 72.4933 47.3098 71.8915 46.708C71.3799 46.1965 71.7711 45.8053 73.0048 45.5947C73.8774 45.4142 74.0278 45.2637 73.8473 44.8726C73.3659 43.669 73.5464 43.1875 74.6898 42.8565C75.2916 42.7061 75.9837 42.3751 76.1943 42.1645C76.766 41.5928 77.0368 41.7432 77.0368 42.7061C77.0368 43.6389 77.3076 43.7592 78.3908 43.338C78.7218 43.1875 79.1431 43.2176 79.3537 43.3681C79.5944 43.5787 80.2865 43.3982 81.4299 42.8866C82.3627 42.4654 84.0176 41.9539 85.1008 41.8034C88.1098 41.322 88.862 40.66 87.1469 39.998C86.5752 39.7874 86.6655 39.6971 88.0195 39.1254C89.7046 38.4033 91.9914 37.32 92.6834 36.959C93.2551 36.628 95.0605 36.8988 95.903 37.4705ZM98.9421 46.8886C100.386 47.9417 100.778 48.8745 100.085 49.5665C99.6341 50.0179 99.6041 49.9878 99.6041 49.2356C99.6041 48.7541 99.3032 48.0921 98.8518 47.6709C97.588 46.377 95.903 46.8284 95.4517 48.5736L95.211 49.4763L94.6693 48.6638C94.0676 47.7311 94.1879 47.4001 95.5119 46.5877C96.8057 45.8053 97.4978 45.8655 98.9421 46.8886ZM98.581 47.9417C99.8448 49.1754 99.0624 50.3489 97.1969 49.9577C96.3243 49.7772 96.1137 49.5966 96.0535 48.8745C95.8729 47.4001 97.4677 46.7983 98.581 47.9417ZM67.4984 51.6427C67.1072 51.7029 66.5054 51.7029 66.1443 51.6427C65.7532 51.5825 66.0541 51.5224 66.8063 51.5224C67.5586 51.5224 67.8595 51.5825 67.4984 51.6427ZM134.568 54.08C134.839 54.3508 133.009 56.5473 130.932 57.1491C128.081 57.2454 129.955 57.6362 123.736 55.8252C123.465 55.9155 123.646 55.7048 124.157 55.3738C126.384 53.8694 133.455 52.9667 134.568 54.08ZM100.055 56.2765C100.236 56.7881 100.447 56.8783 101.139 56.7279C101.71 56.6075 102.011 56.6978 102.011 56.9385C102.011 57.119 102.493 57.9014 103.094 58.6536C104.118 59.9475 104.148 60.0076 103.546 60.2785C102.613 60.6696 102.763 61.1511 103.756 60.9404C106.495 60.3085 107.668 60.3687 109.263 61.1811C110.858 61.9635 111.64 62.144 111.64 61.7228C111.64 61.6024 111.369 61.3316 111.038 61.121C110.196 60.6094 110.256 60.3988 111.79 59.2554C112.543 58.7138 113.205 57.9916 113.325 57.6907C113.415 57.3297 113.776 57.1491 114.348 57.1491C114.92 57.1491 115.341 56.9385 115.552 56.5473C116.003 55.7349 116.394 55.7951 116.635 56.7279L116.815 57.4801L117.477 56.8783C118.35 56.0659 118.5 56.096 118.621 57.0589C118.681 57.6306 118.861 57.8713 119.162 57.781C120.727 57.3898 120.968 57.3899 120.968 57.8713C120.968 58.1421 121.118 58.3527 121.269 58.3527C121.449 58.3527 121.57 58.6235 121.57 58.9545C121.57 59.4359 121.78 59.5563 122.623 59.5563C123.224 59.5563 123.917 59.797 124.217 60.0979C124.699 60.5794 124.699 60.7599 124.368 61.6024C123.977 62.5352 123.977 62.5653 124.789 62.5653C125.271 62.5653 126.925 62.3546 128.49 62.1139C131.83 61.6024 136.434 61.5121 136.163 61.9635C136.073 62.1139 135.08 62.2644 133.966 62.2644C131.95 62.2644 127.618 62.8963 126.625 63.3175C125.963 63.5883 125.933 63.9494 126.534 64.1901C126.775 64.2804 126.986 64.5512 126.986 64.7618C126.986 65.1229 127.858 65.2433 131.108 65.4238C136.945 65.7247 137.126 66.0256 131.499 66.0256C127.828 66.0256 126.625 66.1159 126.324 66.4468C125.993 66.7778 125.993 66.8681 126.324 66.9885C126.625 67.1088 126.564 67.2292 126.173 67.5301C125.662 67.8911 125.692 67.9513 126.384 68.2221C126.805 68.3726 127.768 68.6434 128.52 68.8239C129.272 69.0045 130.777 69.516 131.83 69.9372C133.906 70.7497 133.846 70.7497 129.122 69.9372C124.94 69.185 123.285 69.4257 124.819 70.5691C125.301 70.9001 125.271 70.9603 124.488 71.2612C124.007 71.4417 123.465 71.5922 123.224 71.5922C122.322 71.5922 122.502 72.1639 123.435 72.3143C127.226 72.886 130.055 73.4577 131.048 73.8489C131.71 74.0896 131.92 74.2401 131.499 74.1799C130.506 73.9993 124.759 73.1568 123.164 72.9462C122.472 72.886 121.81 72.9462 121.72 73.0967C121.63 73.2772 121.69 73.3975 121.87 73.3975C122.051 73.3975 122.141 73.5179 122.021 73.6684C121.931 73.8489 121.208 74.0595 120.426 74.1498C119.644 74.2701 118.591 74.4808 118.049 74.6312C117.537 74.8118 116.183 75.0525 115.04 75.2029C111.881 75.6242 110.918 75.8348 110.436 76.2561C110.196 76.4667 108.932 76.888 107.668 77.1888C106.194 77.5198 105.321 77.8809 105.321 78.1216C105.321 78.6632 104.448 78.6031 103.365 78.0013C102.222 77.3995 98.6111 77.3995 97.6181 78.0314C97.2571 78.2721 96.8659 78.3924 96.7756 78.2721C96.6553 78.1818 96.2039 78.0915 95.7526 78.0614C95.2711 78.0614 94.9702 77.911 95.0003 77.7004C95.1508 77.0384 94.5189 75.8047 94.0375 75.8047C93.7967 75.8047 93.5861 75.5339 93.5861 75.2029C93.5861 74.8719 93.4959 74.6011 93.3755 74.6011C93.225 74.6011 92.0215 75.564 90.6674 76.7074C89.2833 77.8809 88.17 78.7234 88.17 78.573C88.17 78.4225 89.0426 77.4597 90.1258 76.4366C92.0515 74.571 92.533 73.548 91.6303 73.217C91.2692 73.0666 91.2391 72.9161 91.5099 72.6152C92.5631 71.3515 87.6585 72.9462 86.154 74.3604C85.7628 74.7215 85.4619 74.8719 85.4619 74.6914C85.4619 73.879 88.9824 71.6223 90.3364 71.5621C90.9984 71.532 90.9984 71.532 90.2763 71.3214L89.524 71.1107L90.2161 70.7196C90.5772 70.539 90.7878 70.208 90.6975 70.0275C90.5772 69.847 90.7276 69.516 90.9984 69.3054C91.6303 68.854 91.54 68.0115 90.8179 67.5602C90.4568 67.3495 89.4638 67.4097 87.2071 67.7708C85.492 68.0717 83.7167 68.3726 83.2052 68.4328L82.3025 68.5832L83.2955 68.1319C84.6194 67.5 88.2001 66.7778 89.855 66.7778C91.209 66.7778 91.4498 66.5672 90.8179 65.9353C90.6072 65.7247 90.5772 65.5742 90.7577 65.5742C91.2993 65.5742 92.8339 64.0998 92.5631 63.8591C92.4427 63.7388 90.2161 62.8963 87.6284 62.0237C83.2955 60.5794 83.0547 60.459 84.7097 60.6094C86.9062 60.8201 90.3364 61.7829 91.7807 62.6254L92.8339 63.2272L93.6463 62.2343C94.1879 61.5723 94.4888 60.8802 94.4888 60.2484C94.4888 59.2253 94.7295 59.0147 95.3012 59.5864C95.5119 59.797 95.6623 59.4961 95.8128 58.5333C96.0234 57.2093 96.3544 56.8181 96.7455 57.45C96.8358 57.6306 97.3774 57.2695 97.919 56.6978C99.0624 55.4942 99.7846 55.3438 100.055 56.2765ZM119.162 75.4436C119.162 75.7746 116.695 78.6933 115.01 80.3483C112.482 82.8156 110.737 84.8015 110.737 85.2228C110.737 85.4635 110.497 85.975 110.196 86.3662C109.865 86.7574 109.534 87.4494 109.413 87.9008C109.323 88.3521 108.992 88.8335 108.691 88.984C108.119 89.2849 104.539 88.8636 103.817 88.4123C103.576 88.2618 103.004 87.9609 102.523 87.7503C101.951 87.5096 101.771 87.2689 101.891 86.9379C102.312 86.0051 102.733 82.7855 102.763 80.6792C102.763 78.8739 102.824 78.5429 103.215 78.6933C103.456 78.8137 104.178 78.9641 104.81 79.0544C105.652 79.1447 105.923 79.0845 105.923 78.7234C105.923 78.4526 106.434 78.1818 107.427 78.0013C108.27 77.8207 108.932 77.7906 108.932 77.9411C108.932 78.0614 108.511 79.3553 107.999 80.8297C106.826 84.1997 106.525 85.4033 106.826 85.5839C106.946 85.6741 107.157 85.283 107.247 84.7414C107.337 84.2298 107.969 82.936 108.601 81.8828C109.564 80.2881 109.744 79.7766 109.624 78.8137C109.443 77.4296 110.015 76.888 110.677 77.8508C111.369 78.8739 112.182 78.6933 112.422 77.4897C112.633 76.226 113.054 76.0153 115.642 75.9552C116.785 75.895 117.868 75.7145 118.049 75.5339C118.44 75.1427 119.162 75.0826 119.162 75.4436ZM111.941 77.1588C111.941 77.7305 111.339 78.0314 110.978 77.6703C110.737 77.4296 110.767 77.1888 111.038 76.888C111.459 76.3764 111.941 76.5269 111.941 77.1588ZM120.336 77.7305C120.908 79.2349 120.426 79.6863 119.403 78.6031C118.771 77.911 118.681 77.6101 118.892 77.0685C119.253 76.1056 119.824 76.3764 120.336 77.7305ZM119.523 79.265C120.246 80.1075 120.306 80.2881 119.915 80.6191C119.343 81.1005 118.801 80.8598 118.29 79.927C117.899 79.1748 117.989 78.1818 118.47 78.242C118.591 78.242 119.072 78.6933 119.523 79.265ZM101.65 79.4757C102.132 79.9571 102.101 80.6492 101.56 81.3412C101.139 81.8828 101.078 81.9129 100.537 81.4014C100.055 80.9501 100.025 80.7394 100.296 79.9872C100.657 79.0544 101.078 78.904 101.65 79.4757ZM118.199 80.4987C118.982 81.7023 118.982 82.5749 118.139 82.5749C117.507 82.5749 116.575 80.589 116.876 79.8668C117.116 79.1748 117.447 79.3252 118.199 80.4987ZM116.755 81.5518C117.447 82.8758 117.357 83.7484 116.575 83.5679C115.913 83.4475 115.281 81.8227 115.582 80.9801C115.913 80.0775 116.033 80.1376 116.755 81.5518ZM115.311 82.5147C116.033 84.3201 116.093 84.952 115.521 85.0723C114.89 85.1927 113.957 82.9962 114.228 81.9731C114.498 80.92 114.739 81.0403 115.311 82.5147ZM100.657 82.1236C101.078 82.605 101.139 82.9962 100.958 84.3803C100.868 85.283 100.687 86.0352 100.567 86.0352C99.0925 86.0051 98.3704 84.8316 99.8448 84.8316C100.597 84.8015 100.627 84.8015 100.055 84.4705C99.2129 84.0192 99.2129 84.0192 99.4536 83.6581C99.574 83.4174 99.8147 83.4174 100.236 83.628C100.537 83.8086 100.808 83.8387 100.808 83.6882C100.808 83.5378 100.477 83.267 100.055 83.0864C99.6041 82.8758 99.3032 82.4846 99.3032 82.1236C99.3032 81.3713 99.9651 81.3412 100.657 82.1236ZM114.318 84.4705C114.739 85.644 114.739 85.7644 114.258 86.2458C113.235 87.299 111.911 85.4334 112.543 83.8086C112.964 82.6351 113.746 82.936 114.318 84.4705ZM112.182 86.0051C112.663 87.5999 112.633 88.3521 112.061 88.5627C111.79 88.6831 111.52 88.7132 111.52 88.6831C110.918 87.63 110.797 86.8777 111.098 85.9148C111.279 85.3131 111.52 84.8316 111.64 84.8316C111.76 84.8316 112.001 85.3431 112.182 86.0051ZM99.3633 88.2919C99.2731 88.7433 99.3332 88.8035 99.5439 88.5026C99.8749 87.991 100.988 88.1716 100.868 88.7132C100.808 88.9539 100.988 89.0141 101.409 88.8937C102.342 88.5928 102.613 88.9539 102.222 89.9168C101.861 90.8796 101.409 90.8796 101.409 89.9168C101.409 89.6159 101.289 89.3451 101.109 89.3451C100.958 89.3451 100.808 89.5858 100.808 89.8566C100.808 90.2778 100.717 90.2778 100.146 89.7362C99.7545 89.3752 99.1828 89.0442 98.8819 88.984C98.25 88.8937 96.8057 86.4565 97.0765 85.975C97.3774 85.4936 99.4837 87.63 99.3633 88.2919ZM99.7244 86.2157C99.9952 86.306 100.206 86.6671 100.206 86.968C100.206 87.4795 100.116 87.5096 99.6041 87.2388C99.2731 87.0583 99.0023 86.7273 99.0023 86.4866C99.0023 85.975 99.0624 85.975 99.7244 86.2157ZM110.888 88.6229C111.128 90.3079 110.617 91.0301 109.413 90.7292C108.481 90.4885 108.42 89.9469 109.233 89.1946C109.564 88.8937 109.835 88.4123 109.835 88.1415C109.835 87.5999 110.075 87.2388 110.466 87.2388C110.557 87.2388 110.767 87.8707 110.888 88.6229ZM103.456 90.4885C103.516 90.9097 103.395 91.1504 103.125 91.1504C102.613 91.1504 102.342 90.5787 102.553 90.007C102.763 89.4353 103.365 89.7362 103.456 90.4885ZM108.15 89.9168C108.24 90.0672 108.119 90.338 107.909 90.5186C107.427 90.9097 106.946 90.4584 107.277 89.9469C107.518 89.5858 107.939 89.5557 108.15 89.9168ZM106.645 90.4283C106.916 91.1504 106.645 91.2708 105.953 90.7894C105.592 90.5487 105.411 90.2478 105.532 90.1575C105.893 89.7964 106.464 89.9469 106.645 90.4283ZM105.141 90.8195L105.983 91.3912L105.291 91.6018C104.81 91.7522 104.509 91.662 104.208 91.2708C103.395 90.1575 103.817 89.9469 105.141 90.8195Z" fill="white"/>
<path d="M102.161 62.2943C100.145 62.7758 97.8279 65.6042 97.7979 67.6202C97.7979 68.7034 100.055 71.6823 101.439 72.4947C102.492 73.0664 102.973 73.1567 104.568 73.0363C109.051 72.6753 113.053 68.6132 112.421 65.1228C112.241 64.19 112 63.9192 110.857 63.4377C109.232 62.7156 105.862 61.9633 104.418 61.9934C103.846 62.0235 102.823 62.1439 102.161 62.2943ZM105.531 63.5882C105.019 63.9793 105.049 64.0395 105.802 64.6413C106.464 65.1528 106.524 65.3033 106.103 65.4537C105.832 65.544 105.17 65.4236 104.598 65.1528C103.695 64.7316 103.455 64.7316 102.311 65.1228C100.747 65.6644 100.807 65.6644 100.807 65.1528C100.807 64.9121 101.048 64.6413 101.379 64.521C101.679 64.4307 102.251 64.0997 102.612 63.7687C103.094 63.3475 103.726 63.1669 104.688 63.1669C105.922 63.197 106.012 63.2271 105.531 63.5882ZM101.017 66.9582C101.71 67.1388 102.131 67.8609 101.83 68.3423C101.74 68.4928 101.439 68.3423 101.198 68.0114C100.957 67.6503 100.506 67.3795 100.175 67.3795C99.8439 67.3795 99.6634 67.229 99.7537 67.0786C99.9643 66.7476 100.115 66.7175 101.017 66.9582ZM106.975 67.3795C107.065 67.5299 106.915 67.6804 106.614 67.6804C106.283 67.6804 105.892 67.8308 105.681 68.0414C105.411 68.3123 105.32 68.3123 105.32 67.9512C105.32 67.6804 105.411 67.3795 105.531 67.2892C105.832 66.9883 106.765 67.0485 106.975 67.3795Z" fill="white"/>
<path d="M95.3916 66.176C95.3916 66.3265 95.542 66.4769 95.6925 66.4769C95.873 66.4769 95.9934 66.3265 95.9934 66.176C95.9934 65.9955 95.873 65.8751 95.6925 65.8751C95.542 65.8751 95.3916 65.9955 95.3916 66.176Z" fill="white"/>
<path d="M115.099 66.4769C115.009 66.6274 115.069 66.7778 115.219 66.7778C115.4 66.7778 115.55 66.6274 115.55 66.4769C115.55 66.2964 115.49 66.176 115.43 66.176C115.34 66.176 115.189 66.2964 115.099 66.4769Z" fill="white"/>
<path d="M129.618 57.6361C129.103 57.6361 128.686 57.4499 128.495 57.1084C128.301 56.7602 128.387 56.3336 128.701 55.9544C129.003 55.5234 129.402 55.1664 129.8 54.9161C130.196 54.6674 130.614 54.51 130.952 54.51C131.24 54.51 131.483 54.7128 131.644 54.9814C131.808 55.2563 131.909 55.6343 131.909 56.073C131.909 56.5067 131.612 56.9007 131.204 57.1754C130.789 57.4543 130.227 57.6361 129.618 57.6361Z" fill="black" stroke="white" stroke-width="0.390754"/>
<path d="M94.791 67.9813C94.791 68.1318 94.9415 68.2822 95.122 68.2822C95.2725 68.2822 95.3326 68.1318 95.2424 67.9813C95.1521 67.8008 95.0016 67.6804 94.9114 67.6804C94.8512 67.6804 94.791 67.8008 94.791 67.9813Z" fill="white"/>
<path d="M114.949 69.1549C114.949 69.3054 115.1 69.5461 115.25 69.6364C115.431 69.7266 115.551 69.6966 115.551 69.516C115.551 69.3656 115.431 69.1249 115.25 69.0346C115.1 68.9443 114.949 68.9744 114.949 69.1549Z" fill="white"/>
<path d="M113.746 71.2914C113.746 71.4418 113.897 71.5923 114.047 71.5923C114.228 71.5923 114.348 71.4418 114.348 71.2914C114.348 71.1109 114.228 70.9905 114.047 70.9905C113.897 70.9905 113.746 71.1109 113.746 71.2914Z" fill="white"/>
<path d="M84.3484 5.45512C84.1678 5.66574 83.9271 6.3879 83.8068 7.04987C83.7165 7.71184 83.3855 8.49417 83.1448 8.76498C82.6333 9.33668 81.9111 13.6696 82.2722 14.0307C82.3926 14.151 82.7235 14.0908 83.0244 13.9103C83.5059 13.6094 83.5961 13.6997 83.6563 14.813C83.6864 15.5051 83.7165 16.829 83.6864 17.7317C83.6563 18.6344 83.7767 19.6574 83.9271 19.9884C84.0776 20.3194 84.3183 21.1318 84.4386 21.7938C84.6493 22.7567 84.89 23.0576 85.6121 23.2983C86.7255 23.6594 86.9662 23.9603 86.9662 25.0134C86.9662 26.0364 87.3874 26.3073 89.0123 26.3073H90.3061L90.0955 24.4116C89.915 22.6363 89.9451 22.546 90.5468 22.546C90.9079 22.546 91.6602 22.7266 92.2319 22.9673L93.2549 23.4186L93.4655 22.0646C93.6762 20.6203 93.9771 20.4097 94.4886 21.3725C95.0603 22.3956 95.1506 21.8239 94.9399 19.1158C94.7293 16.5883 94.6992 16.5281 94.0072 16.7086C93.3753 16.8591 93.285 16.7989 93.285 15.9865C93.285 15.0236 92.5929 14.151 92.2319 14.7227C91.8407 15.3847 91.5699 14.6926 91.7203 13.3687C91.8407 12.2253 91.7805 12.0147 91.3292 12.0147C90.9079 12.0147 90.8477 11.8341 90.9681 11.112C91.0885 10.5704 91.0283 10.1491 90.7876 9.99865C90.5769 9.8783 90.276 9.48713 90.0955 9.15614C89.8849 8.76498 89.4335 8.55435 88.8919 8.55435C88.3202 8.55435 87.9892 8.37381 87.929 8.04283C87.8689 7.77202 87.5078 7.32067 87.1166 7.07996C86.6954 6.80915 86.4547 6.41798 86.5449 6.17727C86.8458 5.36485 84.9201 4.73296 84.3484 5.45512Z" fill="white"/>
<path d="M167.456 16.528C165.531 17.0696 163.786 17.7918 162.672 18.5741C161.589 19.3264 161.499 19.3264 161.108 18.8148C160.746 18.2732 160.626 18.3033 158.58 19.3264C157.437 19.9282 156.263 20.3494 155.992 20.2291C155.691 20.1388 155.09 20.4999 154.307 21.222C153.525 21.9743 153.044 22.2451 152.953 22.0043C152.532 20.8309 146.514 22.6663 144.709 24.5319C143.866 25.4045 143.776 25.6151 144.137 25.8558C144.378 26.0063 144.799 26.1567 145.04 26.1567C146.634 26.1868 148.951 27.4205 148.951 28.263C148.951 28.4134 148.47 29.0754 147.928 29.7073L146.875 30.8507L148.741 31.7534C149.764 32.2348 150.907 32.957 151.298 33.3782C151.689 33.7694 152.291 34.1305 152.652 34.1305C153.344 34.1305 153.375 34.2208 153.044 35.5447C152.863 36.3872 152.863 36.3872 154.337 36.3872C155.15 36.3872 156.714 36.1164 157.828 35.7553C159.182 35.3341 160.205 35.2137 160.957 35.3341C161.95 35.4845 162.251 35.3942 163.424 34.4615C164.147 33.8597 165.741 32.9269 166.945 32.3552C169.111 31.3021 169.593 30.6702 168.81 29.8878C168.57 29.6471 168.901 29.4064 169.864 29.0453C170.616 28.7444 171.368 28.2329 171.549 27.8718C171.85 27.3302 171.789 27.1497 171.037 26.5479C170.315 25.9461 170.225 25.7956 170.616 25.5549C170.857 25.3744 171.428 25.1638 171.88 25.0735C173.053 24.8027 173.354 24.3213 173.053 23.238C172.903 22.7265 172.903 22.1548 173.053 21.9141C173.685 20.9211 173.354 20.1388 172.06 19.537C171.338 19.2361 171.007 18.9653 171.278 18.9653C171.549 18.9352 172.15 18.7848 172.632 18.6042C173.685 18.2131 173.294 17.9422 170.857 17.4307C169.111 17.0997 168.63 16.7086 169.653 16.4378C169.924 16.3475 169.773 16.2873 169.262 16.2873C168.78 16.2873 167.968 16.4077 167.456 16.528Z" fill="white"/>
<path d="M165.35 62.8662C165.259 63.0167 165.952 63.4981 166.914 63.9495C167.877 64.3707 169.081 64.9123 169.562 65.123L170.465 65.5442H169.051C166.463 65.6044 167.516 66.4469 171.638 67.6806C174.136 68.4328 174.256 68.493 173.323 68.6735C172.782 68.7939 171.969 68.8842 171.488 68.8842C171.007 68.8842 170.615 69.0346 170.615 69.2152C170.615 69.4559 171.067 69.5161 172 69.3656C172.782 69.2753 174.256 69.1851 175.309 69.1851C176.393 69.1851 177.235 69.0647 177.235 68.8842C177.235 68.7036 176.934 68.5833 176.573 68.5833C175.821 68.5833 169.111 66.5673 168.84 66.2664C168.75 66.1761 169.502 66.1761 170.555 66.2664C171.638 66.3566 172.421 66.2965 172.421 66.146C172.421 65.9655 171.578 65.454 170.555 65.0026C169.502 64.5212 168.389 63.9194 168.058 63.6486C167.456 63.1972 167.456 63.1972 168.208 63.1671C168.629 63.1671 169.171 63.0167 169.412 62.8662C169.713 62.6556 169.201 62.5653 167.697 62.5653C166.523 62.5653 165.44 62.6857 165.35 62.8662Z" fill="white"/>
<path d="M170.014 69.6964C170.014 69.8469 170.164 70.1177 170.345 70.2982C170.556 70.5089 170.435 70.6593 169.894 70.8098C168.961 71.0505 168.901 71.4416 169.743 71.893C170.736 72.4346 170.285 72.4948 168.359 72.0134C165.952 71.4717 165.711 71.4717 165.892 72.1939C166.042 72.7355 165.952 72.7054 164.959 72.0434C163.785 71.231 162.371 71.0204 162.552 71.6523C162.612 71.8629 163.545 72.4948 164.598 73.0364C167.216 74.3904 171.699 78.2118 170.947 78.4525C170.826 78.4826 169.623 78.0313 168.329 77.4596C167.005 76.8578 165.2 76.0755 164.297 75.7445C163.394 75.3834 162.281 74.8418 161.8 74.5409C160.325 73.4877 157.527 72.555 155.721 72.4346C154.097 72.3443 153.916 72.4045 153.916 72.9461C153.916 73.4577 154.458 73.6984 157.527 74.5409C163.665 76.2259 164.357 76.4365 167.697 77.8207C170.826 79.1145 171.518 79.2048 171.518 78.3924C171.518 78.0012 169.803 76.2861 168.058 74.9621C167.246 74.3303 167.276 74.3303 168.54 75.0223C170.134 75.925 170.315 75.9551 170.315 75.3533C170.315 75.1126 169.803 74.6612 169.202 74.3303C168.57 74.0294 167.727 73.4276 167.366 73.0063L166.644 72.2541L169.171 72.8258C170.526 73.1267 171.91 73.3975 172.211 73.3975C173.143 73.3975 172.752 72.916 171.187 72.1939C169.202 71.231 169.743 71.0806 172.391 71.8629C174.858 72.555 175.49 72.224 173.444 71.3213C172.662 70.9602 171.97 70.6894 171.91 70.6894C171.819 70.6894 171.368 70.4186 170.887 70.0575C170.405 69.7265 170.014 69.5761 170.014 69.6964ZM158.189 73.578C160.506 74.3603 160.355 74.6011 157.948 73.9692C155.15 73.247 154.939 73.1568 155.932 73.1267C156.383 73.0966 157.406 73.3072 158.189 73.578Z" fill="white"/>
<path d="M160.235 76.557C160.506 77.7305 160.716 78.0013 162.913 79.4456L164.748 80.6793L162.492 80.4687C159.001 80.1076 157.286 80.1377 157.166 80.4988C157.075 80.7395 157.798 80.8899 159.302 80.9802C160.536 81.0404 161.649 81.1908 161.769 81.3112C161.89 81.4316 161.709 81.8528 161.348 82.2139C160.987 82.605 160.776 82.9962 160.867 83.1166C161.138 83.3874 162.792 82.0935 162.792 81.6121C162.792 81.3413 163.244 81.2209 164.147 81.2209C164.899 81.2209 165.501 81.0705 165.501 80.92C165.501 80.7395 164.568 80.0173 163.394 79.2651C162.04 78.3925 161.107 77.55 160.686 76.7977C160.084 75.7145 160.054 75.7145 160.235 76.557Z" fill="white"/>
<path d="M156.172 82.2138C156.172 82.4545 156.383 82.7554 156.654 82.8456C156.925 82.966 157.075 83.1465 156.955 83.2669C156.503 83.6882 154.848 83.5377 153.946 82.9961C152.05 81.8527 151.147 82.4545 152.622 83.8988C153.675 84.9218 154.216 84.6209 153.284 83.5377L152.712 82.9058L153.765 83.5076C154.969 84.1997 156.263 84.5908 155.992 84.1997C155.811 83.8988 156.293 83.8386 158.068 83.9289C159.241 83.989 159.542 83.5678 158.67 83.0563C158.249 82.8156 158.369 82.7554 159.181 82.8757L160.234 83.0262L159.181 82.5447C157.587 81.7925 156.172 81.6421 156.172 82.2138Z" fill="white"/>
<path d="M141.913 169.616C141.402 169.511 140.873 169.574 140.355 169.638C139.345 169.762 138.332 169.879 137.319 169.997C136.873 169.648 136.398 169.336 135.894 169.077C135.891 169.09 135.891 169.105 135.889 169.118C135.807 169.091 135.724 169.07 135.639 169.063C135.401 169.044 135.164 169.097 134.935 169.169C134.552 167.575 133.739 166.084 132.584 164.919C131.171 163.492 129.266 162.561 127.273 162.322C127.274 162.335 127.28 162.349 127.281 162.361C127.196 162.364 127.111 162.374 127.029 162.397C126.759 162.473 126.523 162.64 126.306 162.817C125.451 163.512 124.78 164.426 124.357 165.444C124.076 165.544 123.819 165.688 123.617 165.9C124.205 164.863 124.145 163.6 123.681 162.485C124.29 161.972 124.743 161.273 124.948 160.504C125.197 159.568 124.797 158.758 124.511 157.834C123.971 156.089 122.513 154.656 120.758 154.146C120.213 153.987 119.609 153.965 119.187 153.586C119.639 152.408 119.917 151.231 120.072 149.979C120.329 150.018 120.55 150.056 120.687 150.275C120.583 149.361 120.247 148.534 119.945 147.665C119.157 149.466 118.746 151.431 118.748 153.397C118.328 153.761 118.446 154.474 118.717 154.959C118.989 155.444 119.465 155.773 119.935 156.071C121.243 156.902 122.62 157.623 124.048 158.226C124.233 159.157 124.187 160.185 123.695 160.997C123.536 161.258 123.463 161.591 123.409 161.929C123.227 161.606 123.012 161.301 122.767 161.029C121.593 159.718 119.891 159.026 118.239 158.416C118.23 157.734 118.03 157.377 117.478 156.977C117.801 156.378 117.752 155.597 117.358 155.043C116.965 154.488 116.252 154.242 115.58 154.349C115.223 154.034 114.434 154.002 113.967 154.097C114.394 151.371 113.77 148.494 112.251 146.189C110.732 143.885 108.334 142.177 105.66 141.495C103.79 141.018 101.636 141.464 100.296 142.854C101.428 142.204 102.819 142.09 104.092 142.378C105.365 142.666 106.529 143.331 107.548 144.146C107.841 144.38 108.145 144.667 108.177 145.04C108.204 145.366 107.792 145.741 107.482 145.689C108.964 146.24 110.249 147.309 111.051 148.672C111.877 150.074 112.187 151.773 111.91 153.377C111.76 154.246 111.432 155.105 110.84 155.759C110.761 155.846 110.676 155.928 110.588 156.006C110.4 156.026 110.213 156.053 110.027 156.087C109.469 154.881 108.613 153.812 107.546 153.018L109.764 156.142C108.353 156.448 107.009 157.143 105.911 158.241C104.814 159.338 104.119 160.682 103.813 162.093L100.689 159.875C101.482 160.942 102.552 161.798 103.758 162.357C103.724 162.543 103.697 162.729 103.677 162.917C103.599 163.005 103.517 163.09 103.43 163.169C102.775 163.761 101.917 164.09 101.048 164.239C99.4437 164.516 97.7452 164.206 96.3427 163.38C94.9801 162.578 93.9115 161.293 93.3599 159.811C93.4117 160.121 93.0371 160.533 92.7112 160.506C92.3371 160.474 92.051 160.17 91.8167 159.877C91.0021 158.858 90.3369 157.694 90.0488 156.421C89.7607 155.148 89.8747 153.757 90.5247 152.625C89.1356 153.965 88.6884 156.119 89.1655 157.989C89.848 160.663 91.5563 163.061 93.8602 164.58C96.1642 166.099 99.0417 166.724 101.768 166.296C101.673 166.763 101.705 167.552 102.019 167.909C101.913 168.581 102.159 169.294 102.714 169.688C103.269 170.081 104.048 170.13 104.647 169.808C105.048 170.359 105.405 170.56 106.087 170.568C106.697 172.22 107.388 173.921 108.7 175.097C108.972 175.341 109.277 175.556 109.6 175.738C109.262 175.792 108.928 175.865 108.667 176.024C107.856 176.516 106.828 176.562 105.897 176.377C105.294 174.95 104.573 173.572 103.742 172.264C103.445 171.795 103.115 171.318 102.63 171.046C102.145 170.775 101.432 170.658 101.067 171.077C99.1018 171.076 97.1369 171.486 95.3359 172.274C96.2046 172.576 97.0322 172.912 97.9461 173.017C97.7268 172.879 97.6886 172.658 97.65 172.402C98.9023 172.246 100.078 171.968 101.256 171.516C101.636 171.938 101.658 172.543 101.816 173.087C102.326 174.842 103.759 176.3 105.505 176.84C106.43 177.127 107.239 177.526 108.175 177.277C108.944 177.072 109.642 176.619 110.156 176.011C111.271 176.474 112.534 176.534 113.571 175.947C113.359 176.148 113.214 176.405 113.114 176.686C112.097 177.109 111.183 177.78 110.487 178.635C110.31 178.853 110.144 179.088 110.068 179.358C110.045 179.44 110.035 179.525 110.032 179.611C110.019 179.608 110.006 179.603 109.993 179.602C110.232 181.596 111.164 183.5 112.59 184.914C113.755 186.068 115.246 186.881 116.84 187.264C116.768 187.493 116.715 187.73 116.734 187.968C116.741 188.053 116.761 188.136 116.789 188.218C116.776 188.221 116.761 188.22 116.748 188.223C117.006 188.728 117.318 189.202 117.668 189.648C117.55 190.661 117.433 191.675 117.308 192.684C117.245 193.202 117.181 193.731 117.287 194.242C117.392 194.753 117.697 195.253 118.179 195.452C118.661 195.652 119.313 195.447 119.486 194.954C119.05 195.142 118.578 194.691 118.507 194.223C118.436 193.754 118.651 193.294 118.861 192.869C118.716 192.146 118.641 191.421 118.629 190.698C119.336 191.357 120.144 191.907 121.024 192.307C122.852 193.14 124.963 193.335 126.912 192.852C127.313 194.554 127.74 196.261 128.141 197.964C128.26 198.472 128.384 198.99 128.659 199.433C128.935 199.876 129.394 200.24 129.916 200.26C130.437 200.28 130.978 199.862 130.97 199.34C130.626 199.667 130.027 199.408 129.798 198.993C129.569 198.577 129.612 198.072 129.662 197.6C128.555 195.804 127.951 193.8 127.913 191.69C125.256 191.248 122.462 190.876 119.805 190.433C119.274 190.344 118.947 189.939 118.676 189.472C118.732 188.862 118.834 188.256 118.988 187.657C119.393 187.256 119.964 186.997 120.275 186.541C121.37 187.336 122.512 188.067 123.699 188.718C125.281 189.585 126.97 190.33 128.764 190.515C129.297 190.57 129.84 190.562 130.377 190.503C132.372 190.503 134.368 189.743 135.89 188.221C137.413 186.698 138.173 184.703 138.172 182.707C138.232 182.17 138.24 181.627 138.184 181.094C137.999 179.3 137.255 177.611 136.388 176.03C135.737 174.843 135.006 173.701 134.211 172.605C134.666 172.295 134.926 171.724 135.326 171.319C135.926 171.165 136.532 171.062 137.142 171.006C137.609 171.277 138.014 171.604 138.103 172.135C138.545 174.793 138.918 177.586 139.36 180.243C141.47 180.281 143.474 180.885 145.27 181.992C145.742 181.942 146.247 181.899 146.663 182.128C147.078 182.357 147.337 182.956 147.01 183.3C147.532 183.308 147.95 182.768 147.93 182.246C147.909 181.725 147.546 181.265 147.103 180.99C146.66 180.714 146.142 180.59 145.634 180.471C143.931 180.07 142.224 179.643 140.522 179.242C141.005 177.293 140.81 175.182 139.977 173.354C139.576 172.475 139.027 171.666 138.368 170.959C139.091 170.971 139.816 171.046 140.539 171.191C140.964 170.981 141.424 170.766 141.892 170.837C142.361 170.908 142.812 171.38 142.624 171.816C143.117 171.644 143.322 170.991 143.122 170.509C142.924 170.026 142.424 169.721 141.913 169.616ZM117.546 185.752C115.73 184.746 113.87 183.744 112.096 182.732C111.439 182.357 111.374 181.537 111.279 180.786C111.27 180.712 111.247 180.637 111.217 180.563C111.323 180.524 111.425 180.465 111.516 180.398C111.696 180.266 111.854 180.104 112.04 179.981C112.429 179.724 112.922 179.649 113.363 179.498C113.683 180.171 114.157 180.775 114.644 181.346C115.73 182.62 116.921 183.802 118.191 184.892C117.954 185.162 117.738 185.449 117.546 185.752ZM129.018 166.973C128.447 166.486 127.843 166.012 127.17 165.692C127.321 165.251 127.396 164.758 127.653 164.369C127.776 164.182 127.938 164.025 128.07 163.845C128.136 163.753 128.196 163.652 128.235 163.546C128.309 163.575 128.383 163.598 128.458 163.607C129.209 163.702 130.029 163.767 130.404 164.425C131.416 166.198 132.417 168.059 133.424 169.874C133.121 170.066 132.834 170.283 132.564 170.52C131.474 169.25 130.292 168.059 129.018 166.973Z" fill="#131313"/>
<path d="M11.9046 170.158L25.8193 169.889L25.8899 173.54L20.5214 173.644L20.6299 179.249L25.9985 179.145L26.0691 182.797L12.1544 183.066L12.0838 179.415L17.6496 179.307L17.5411 173.702L11.9752 173.809L11.9046 170.158Z" fill="white"/>
<path d="M12.2654 185.583L27.1493 189.403L27.6984 192.313L15.2378 201.334L14.5606 197.746L18.0128 195.387L17.2834 196.951L15.7678 188.92L17.0134 190.091L12.9426 189.171L12.2654 185.583ZM23.7345 191.534L17.894 190.286L18.7033 189.571L19.7758 195.255L18.7726 194.942L23.7528 191.631L23.7345 191.534Z" fill="white"/>
<path d="M18.1406 210.041C17.6305 208.616 17.4681 207.284 17.6531 206.043C17.8426 204.815 18.3433 203.734 19.1553 202.801C19.9718 201.879 21.0615 201.175 22.4245 200.687C23.7875 200.199 25.0706 200.054 26.2738 200.253C27.4939 200.459 28.5668 200.977 29.4925 201.805C30.4226 202.647 31.1427 203.78 31.6527 205.205C31.9765 206.109 32.1475 206.978 32.1658 207.81C32.1965 208.637 32.0797 209.385 31.8155 210.053L28.7546 209.995C28.9595 209.279 29.0559 208.65 29.0441 208.109C29.049 207.576 28.9428 207.006 28.7255 206.399C28.3263 205.284 27.6897 204.54 26.8157 204.168C25.9585 203.804 24.9228 203.839 23.7085 204.274C22.4818 204.713 21.6465 205.348 21.2027 206.177C20.7757 207.015 20.7618 207.992 21.1609 209.107C21.3783 209.714 21.6517 210.224 21.9813 210.637C22.3278 211.058 22.8074 211.481 23.4204 211.904L21.0913 213.891C20.4634 213.543 19.8924 213.041 19.3785 212.387C18.877 211.728 18.4643 210.946 18.1406 210.041Z" fill="white"/>
<path d="M22.7691 220.114L32.4604 214.962L30.4773 211.232L33.0744 209.851L38.7552 220.536L36.158 221.916L34.1749 218.186L24.4835 223.339L22.7691 220.114Z" fill="white"/>
<path d="M33.4661 225.362C34.62 224.488 35.7926 223.955 36.9841 223.762C38.186 223.561 39.3408 223.702 40.4487 224.183C41.5565 224.665 42.5436 225.477 43.4099 226.621C44.2841 227.775 44.8031 228.95 44.9669 230.147C45.1306 231.344 44.9533 232.494 44.4349 233.596C43.9349 234.702 43.1079 235.691 41.954 236.566C40.8106 237.432 39.634 237.96 38.4241 238.15C37.2222 238.351 36.0621 238.214 34.9438 237.741C33.8359 237.259 32.8449 236.441 31.9707 235.288C31.1044 234.144 30.5894 232.974 30.4256 231.777C30.2803 230.583 30.4629 229.429 30.9733 228.316C31.4918 227.213 32.3227 226.229 33.4661 225.362ZM35.7669 228.399C34.7284 229.186 34.0744 230.012 33.8048 230.876C33.5458 231.733 33.7421 232.592 34.3938 233.452C35.0455 234.312 35.8228 234.738 36.7256 234.731C37.6388 234.716 38.6147 234.316 39.6532 233.529C40.6917 232.742 41.3365 231.915 41.5876 231.048C41.8387 230.181 41.6384 229.317 40.9867 228.457C40.335 227.597 39.5617 227.175 38.6669 227.193C37.7826 227.202 36.8159 227.604 35.7669 228.399Z" fill="white"/>
<path d="M38.6764 243.331L43.0195 241.993C43.6281 241.806 44.1808 241.765 44.6776 241.871C45.1929 241.975 45.6569 242.221 46.0695 242.609L46.7027 243.203L46.5171 243.516C45.3273 242.399 44.6768 241.256 44.5655 240.086C44.4541 238.917 44.8578 237.843 45.7767 236.864C46.7135 235.866 47.7598 235.386 48.9155 235.424C50.0808 235.472 51.2535 236.049 52.4336 237.157L57.4276 241.846L47.9015 251.992L45.2678 249.519L48.8215 245.734L48.0443 245.005C47.7853 244.761 47.5241 244.597 47.2607 244.512C46.9973 244.428 46.709 244.437 46.3957 244.54L41.5691 246.047L38.6764 243.331ZM48.6505 242.081L50.5646 243.878L52.9022 241.388L50.9881 239.591C49.9039 238.573 48.9745 238.476 48.1998 239.302C47.4161 240.136 47.5663 241.063 48.6505 242.081Z" fill="white"/>
<path d="M64.9264 267.538L66.7302 264.591L51.0558 254.995L58.3226 243.125L61.3699 244.991L55.6286 254.369L59.3831 256.667L65.1244 247.29L68.1381 249.135L62.3967 258.513L66.168 260.821L71.9094 251.444L74.923 253.289L69.1817 262.666L70.9158 263.728L67.5865 269.166L64.9264 267.538Z" fill="white"/>
<path d="M72.8588 267.331L77.5084 254.213L80.6901 255.341L77.7421 263.658L77.2583 263.487L86.8117 257.511L89.3236 258.401L84.674 271.519L81.4923 270.391L84.4403 262.074L84.9241 262.246L75.3707 268.221L72.8588 267.331Z" fill="white"/>
<path d="M88.4109 272.524L90.8645 258.824L94.1873 259.42L92.6316 268.106L92.1264 268.015L100.58 260.565L103.204 261.034L100.75 274.734L97.4272 274.139L98.9829 265.453L99.4881 265.543L91.0342 272.994L88.4109 272.524ZM97.2158 258.859C96.3737 258.708 95.678 258.45 95.1285 258.084C94.5919 257.721 94.2011 257.29 93.9562 256.791C93.7112 256.293 93.5856 255.762 93.5794 255.199L95.2862 254.964C95.4104 255.614 95.65 256.105 96.0052 256.436C96.3604 256.767 96.8748 256.993 97.5484 257.114C98.235 257.237 98.8046 257.192 99.2572 256.978C99.7099 256.765 100.076 256.403 100.354 255.891L101.838 256.679C101.483 257.538 100.902 258.169 100.095 258.572C99.2895 258.963 98.3298 259.059 97.2158 258.859Z" fill="white"/>
<path d="M109.959 268.515C109.881 267.069 110.096 265.799 110.603 264.704C111.11 263.596 111.873 262.718 112.893 262.07C113.912 261.422 115.138 261.059 116.57 260.982C118.016 260.903 119.28 261.132 120.364 261.666C121.447 262.201 122.3 262.992 122.923 264.039C123.559 265.072 123.916 266.312 123.994 267.757C124.071 269.19 123.85 270.46 123.33 271.569C122.823 272.677 122.06 273.562 121.041 274.223C120.022 274.871 118.79 275.234 117.344 275.312C115.912 275.39 114.654 275.161 113.571 274.626C112.5 274.078 111.646 273.28 111.01 272.234C110.387 271.187 110.036 269.947 109.959 268.515ZM113.763 268.309C113.834 269.61 114.151 270.615 114.717 271.322C115.281 272.017 116.103 272.335 117.18 272.277C118.258 272.218 119.046 271.813 119.546 271.062C120.045 270.297 120.26 269.264 120.189 267.963C120.119 266.662 119.795 265.664 119.217 264.97C118.64 264.277 117.812 263.959 116.734 264.017C115.657 264.075 114.875 264.48 114.388 265.231C113.901 265.969 113.692 266.995 113.763 268.309Z" fill="white"/>
<path d="M128.642 274.069L125.577 260.493L135.937 258.154L136.546 260.85L129.575 262.424L130.162 265.023L133.686 264.228C135.201 263.886 136.469 263.977 137.492 264.502C138.524 265.011 139.189 265.927 139.488 267.249C139.789 268.584 139.585 269.71 138.874 270.626C138.176 271.539 137.07 272.166 135.555 272.508L128.642 274.069ZM131.435 270.665L134.478 269.979C135.184 269.819 135.664 269.583 135.917 269.269C136.18 268.94 136.253 268.519 136.137 268.005C136.024 267.505 135.781 267.175 135.408 267.016C135.045 266.842 134.51 266.835 133.804 266.994L130.762 267.681L131.435 270.665Z" fill="white"/>
<path d="M143.799 270.337L138.706 257.385L145.063 254.886C146.557 254.298 147.828 254.223 148.877 254.659C149.92 255.083 150.687 255.92 151.179 257.169C151.665 258.406 151.673 259.541 151.203 260.575C150.732 261.608 149.75 262.419 148.256 263.006L145.298 264.169L147.198 269.001L143.799 270.337ZM144.272 261.56L146.789 260.571C147.365 260.344 147.745 260.053 147.931 259.698C148.111 259.33 148.11 258.913 147.927 258.448C147.744 257.982 147.461 257.676 147.078 257.53C146.695 257.383 146.216 257.423 145.64 257.65L143.123 258.639L144.272 261.56Z" fill="white"/>
<path d="M156.322 265.435L154.882 250.136L157.435 248.635L170.139 257.309L166.991 259.161L163.603 256.71L165.322 256.867L158.277 261.01L158.958 259.442L159.47 263.584L156.322 265.435ZM158.043 252.629L158.844 258.547L157.897 258.027L162.883 255.095L162.928 256.145L158.128 252.579L158.043 252.629Z" fill="white"/>
<path d="M175.449 253.193C174.531 253.941 173.632 254.505 172.751 254.883C171.862 255.251 170.998 255.471 170.158 255.545L169.31 252.849C169.959 252.812 170.631 252.646 171.325 252.352C172.019 252.058 172.698 251.641 173.361 251.1C174.085 250.51 174.537 249.971 174.718 249.485C174.898 248.998 174.818 248.545 174.477 248.127C174.186 247.77 173.837 247.613 173.431 247.656C173.034 247.69 172.561 247.932 172.01 248.381L169.317 250.576L167.571 248.434L169.973 246.476C170.514 246.035 170.845 245.629 170.967 245.258C171.099 244.879 171.02 244.511 170.729 244.154C170.463 243.827 170.104 243.678 169.652 243.707C169.2 243.736 168.663 244.004 168.04 244.511C167.469 244.977 166.975 245.516 166.557 246.128C166.141 246.722 165.85 247.333 165.683 247.961L163.213 246.587C163.411 245.831 163.795 245.052 164.363 244.249C164.923 243.436 165.631 242.68 166.488 241.982C167.885 240.843 169.155 240.266 170.298 240.251C171.451 240.228 172.381 240.65 173.088 241.517C173.612 242.16 173.868 242.86 173.856 243.616C173.846 244.354 173.587 245.067 173.077 245.754L172.878 245.509C173.741 245.026 174.563 244.848 175.345 244.974C176.138 245.092 176.829 245.514 177.42 246.238C177.935 246.87 178.224 247.569 178.287 248.333C178.341 249.086 178.139 249.88 177.68 250.712C177.223 251.526 176.479 252.353 175.449 253.193Z" fill="white"/>
<path d="M186.404 243.516L183.825 238.439C183.361 237.539 183.118 236.696 183.094 235.909C183.068 235.104 183.272 234.264 183.706 233.39L183.622 235.096L175.64 234.665L177.989 231.492L184.961 232.06L184.358 232.277L185.145 231.214L180.655 227.89L182.71 225.113L187.2 228.437L187.999 227.358L187.968 227.998L185.376 221.511L187.725 218.338L190.481 225.83L188.862 226.424C189.571 225.754 190.31 225.319 191.08 225.119C191.848 224.901 192.729 224.883 193.725 225.063L199.334 226.046L197.009 229.188L192.775 228.338C192.184 228.229 191.69 228.256 191.291 228.419C190.881 228.574 190.488 228.906 190.113 229.413L189.549 230.175L193.897 233.393L191.841 236.17L187.494 232.952L186.93 233.713C186.562 234.211 186.36 234.683 186.323 235.131C186.284 235.56 186.402 236.041 186.68 236.573L188.717 240.39L186.404 243.516Z" fill="white"/>
<path d="M200.711 222.882L188.09 217.016L189.513 213.955L197.515 217.674L197.298 218.14L192.251 208.065L193.374 205.648L205.994 211.515L204.571 214.576L196.57 210.856L196.786 210.391L201.834 220.465L200.711 222.882Z" fill="white"/>
<path d="M208.777 203.491C208.446 204.629 208.026 205.603 207.517 206.414C206.994 207.222 206.408 207.894 205.759 208.432L203.529 206.695C204.043 206.296 204.501 205.778 204.905 205.142C205.31 204.505 205.631 203.776 205.87 202.955C206.13 202.058 206.197 201.357 206.069 200.854C205.941 200.351 205.618 200.024 205.1 199.874C204.657 199.745 204.281 199.814 203.971 200.08C203.664 200.334 203.412 200.802 203.213 201.484L202.244 204.821L199.59 204.05L200.455 201.073C200.649 200.404 200.691 199.881 200.581 199.507C200.474 199.119 200.2 198.861 199.757 198.733C199.353 198.615 198.973 198.697 198.617 198.977C198.262 199.258 197.972 199.783 197.748 200.554C197.543 201.262 197.442 201.987 197.446 202.728C197.441 203.453 197.548 204.121 197.768 204.733L194.954 205.005C194.688 204.27 194.561 203.411 194.573 202.428C194.572 201.441 194.725 200.416 195.034 199.355C195.537 197.623 196.254 196.427 197.186 195.766C198.122 195.092 199.127 194.911 200.201 195.223C200.998 195.455 201.606 195.885 202.026 196.514C202.437 197.127 202.628 197.861 202.599 198.716L202.296 198.628C202.732 197.74 203.308 197.126 204.023 196.786C204.743 196.433 205.551 196.387 206.448 196.647C207.232 196.875 207.866 197.286 208.352 197.879C208.824 198.468 209.109 199.236 209.204 200.182C209.29 201.112 209.148 202.215 208.777 203.491Z" fill="white"/>
<path d="M211.073 194.146L197.267 192.387L197.729 188.764L203.055 189.443L203.764 183.882L198.438 183.203L198.899 179.58L212.705 181.339L212.243 184.962L206.721 184.258L206.012 189.82L211.535 190.523L211.073 194.146Z" fill="white"/>
<path d="M200.63 165.531L214.385 167.651L213.87 170.987L205.149 169.643L205.227 169.136L212.881 177.406L212.475 180.04L198.72 177.92L199.234 174.584L207.956 175.928L207.877 176.435L200.224 168.165L200.63 165.531Z" fill="white"/>
</svg>
