<svg width="320" height="400" viewBox="0 0 320 400" fill="none" xmlns="http://www.w3.org/2000/svg">
<g clip-path="url(#clip0_83_7)">
<rect width="320" height="400" fill="black"/>
<path d="M256.766 197.414C258.117 198.109 260.91 196.887 267.213 192.775C270.989 190.288 274.476 188.3 274.897 188.293C277.139 188.169 275.857 190.095 270.592 194.722C263.654 200.799 260.92 204.802 261.362 208.22C261.957 213.391 264.645 211.776 271.698 202.185C276.171 196.186 279.314 192.918 280.19 193.423C280.44 193.567 278.73 197.244 276.46 201.598C273.215 207.638 272.299 209.941 272.354 211.721C272.673 216.649 275.344 214.774 280.33 206.158C282.246 202.849 284.303 199.871 284.905 199.552C286.109 198.913 286.063 199.136 284.123 206.094C282.956 210.417 283.049 213.718 284.411 213.67C284.833 213.663 286.529 211.31 288.191 208.437C296.105 194.763 294.281 175.564 284.574 171.139C281.264 169.649 274.434 169.627 274.149 171.129C274.057 171.575 275.09 173.252 276.418 174.85C277.747 176.448 278.806 178.223 278.839 178.742C278.93 180.459 276.221 182.978 270.036 186.742C266.773 188.776 262.737 191.279 261.02 192.372C258.053 194.326 255.89 196.91 256.766 197.414Z" fill="white"/>
<path d="M37.2835 169.321C32.1002 167.751 26.9013 169.669 23.6807 174.224C17.7622 182.72 16.6423 198.642 21.2718 207.802C23.2088 211.665 23.4592 211.81 24.5071 209.999C25.3382 208.563 25.3847 206.175 24.5751 200.797C23.746 195.741 25.1617 195.89 27.12 201.014C31.39 212.381 33.6787 215.781 35.1964 213.158C35.883 211.972 35.1392 203.884 34.2629 203.38C33.4493 202.911 30.2793 192.094 30.9704 191.91C31.7602 191.698 35.2858 197.142 38.7074 203.775C40.2186 206.644 42.122 209.988 43.1473 211.244C44.7959 213.442 44.8946 213.416 45.9567 212.446C46.9924 211.377 47.3906 208.527 46.8835 205.654C46.499 203.434 44.9059 200.852 40.5111 195.323C38.256 192.443 36.1984 189.509 35.9506 188.784C35.597 187.664 35.9197 187.684 37.9851 188.873C39.3621 189.666 41.774 191.555 43.2374 193.064C47.4231 197.223 51.3636 200.075 52.8613 199.939C54.9777 199.743 53.4472 197.196 48.6524 192.936C36.1431 181.818 33.9312 179.296 35.0514 177.36C35.3766 176.798 36.7543 175.427 38.05 174.342C42.0455 170.899 42.0552 170.738 37.2835 169.321Z" fill="white"/>
<path d="M158.49 150.822C167.313 151.427 176.851 153.352 185.103 156.167C190.818 158.127 199.177 162.261 204.035 165.468C206.178 166.929 208.072 168.141 208.25 168.212C208.393 168.283 208.5 166.038 208.5 163.187C208.5 158.483 208.572 158.02 209.215 157.414C209.786 156.88 210.143 156.808 210.929 157.094L211.894 157.414L212.108 162.225C212.251 164.862 212.358 172.809 212.394 179.865C212.43 197.326 212.965 200.64 215.93 203.277C218.252 205.273 220.003 205.807 224.825 205.986L229.147 206.128L229.004 201.923C228.933 199.571 228.683 193.192 228.504 187.704C228.326 182.217 227.968 173.308 227.718 167.855C227.254 157.236 227.29 156.88 229.076 156.88C230.54 156.88 230.898 157.664 231.148 161.762C231.398 165.967 232.255 186.921 232.648 198.466C232.862 205.594 232.898 205.7 233.648 205.522C240.864 204.061 243.186 202.671 245.008 198.752C245.829 196.97 245.829 196.898 246.008 177.37C246.115 166.573 246.329 157.557 246.472 157.307C246.865 156.702 248.687 156.773 249.223 157.414C249.58 157.842 249.723 161.869 249.866 174.983C250.044 192.979 249.83 196.542 248.473 200.177C246.829 204.524 242.4 207.625 236.184 208.801L232.969 209.371V248.606C232.969 287.27 232.505 309.721 231.684 311.253C231.255 312.037 229.504 312.108 228.862 311.36C228.504 310.897 228.469 308.046 228.826 296.643C229.04 288.874 229.219 281.07 229.219 279.288V276.116L226.968 279.823C223.325 285.774 219.717 290.371 214.93 295.181C208.072 302.095 202.392 306.229 194.176 310.255C173.779 320.305 148.917 320.269 126.305 310.077C116.267 305.551 108.444 300.099 100.764 292.224C93.298 284.562 87.7969 276.33 83.6175 266.495L82.0814 262.896L77.1876 262.646C74.4727 262.504 72.2223 262.432 72.1508 262.468C72.1151 262.539 71.9722 273.301 71.8293 286.451C71.5793 312.144 71.615 311.895 69.7218 311.895C69.2574 311.895 68.6144 311.609 68.2929 311.289C67.7214 310.754 67.7214 309.4 67.9 295.003C68.2215 273.871 68.7216 248.178 69.3646 219.777C69.686 206.841 70.0433 189.451 70.2219 181.112C70.5434 163.864 70.5076 164.149 73.3297 162.866C75.0443 162.118 76.5089 162.225 78.0449 163.223C79.5095 164.185 86.6181 175.767 88.297 179.972C88.6542 180.791 89.0114 181.468 89.1543 181.433C89.2615 181.433 90.3331 180.043 91.5119 178.332C98.9063 167.713 110.266 159.552 124.054 154.991C134.414 151.57 147.023 150.038 158.49 150.822ZM141.915 154.92C135.45 155.668 130.841 156.666 125.305 158.519C111.087 163.223 100.692 170.991 93.0123 182.644L90.9404 185.745L92.1907 189.059C99.6565 208.979 101.443 230.93 97.1917 251.029C96.0486 256.517 95.0841 259.546 94.1554 260.722C92.9765 262.254 90.9404 263.074 88.4756 263.074C85.9037 263.074 85.9394 262.789 88.1541 267.564C93.2266 278.611 102.157 289.8 111.587 297.035C130.484 311.431 155.132 317.204 177.029 312.393C198.891 307.547 217.216 292.402 227.79 270.486L229.576 266.816V246.824C229.576 235.848 229.469 222.948 229.326 218.209L229.112 209.549L227.254 209.799C224.396 210.155 219.36 209.407 216.895 208.231C210.822 205.415 208.857 200.818 208.857 189.415C208.857 186.137 208.75 181.112 208.607 178.297L208.393 173.201L205.035 170.706C193.354 162.082 178.065 156.452 161.526 154.777C156.704 154.278 146.809 154.35 141.915 154.92ZM83.9747 204.097C83.8318 204.382 84.2605 206.199 84.9034 208.159C87.654 216.712 88.9043 227.26 88.1541 235.813C87.9398 238.521 87.404 242.405 87.011 244.472C86.2609 248.321 86.2966 249.176 87.1896 249.176C87.9398 249.176 87.9755 249.033 88.7971 245.078C91.2976 232.57 90.3689 218.28 86.3323 206.627C85.3321 203.741 84.4748 202.814 83.9747 204.097Z" fill="white"/>
<path d="M156.348 162.974C162.706 163.615 170.243 165.646 176.423 168.39C178.459 169.317 179.102 170.208 177.959 170.635C177.673 170.778 176.102 170.314 174.458 169.602C166.6 166.288 161.206 165.076 152.775 164.827C145.524 164.613 141.38 165.112 135.736 166.893C124.805 170.35 115.554 177.62 110.588 186.671C109.624 188.453 108.909 189.308 108.481 189.308C107.302 189.308 107.445 188.346 108.981 185.673C115.518 174.234 127.842 165.896 141.88 163.472C145.845 162.795 152.311 162.582 156.348 162.974Z" fill="white"/>
<path d="M160.847 179.01C183.852 181.041 202.748 195.723 209.357 216.641C211.464 223.34 211.857 226.298 211.857 234.565C211.857 241.158 211.75 242.726 211.072 245.826C206.892 265.069 193.532 280.927 176.6 286.914C170.635 289.017 166.92 289.587 159.561 289.587C152.131 289.587 149.13 289.159 142.986 287.164C134.52 284.384 127.59 280.036 120.803 273.23C111.015 263.466 105.443 251.884 103.835 237.951C101.906 220.953 107.586 202.743 118.124 192.159C128.019 182.181 143.415 177.442 160.847 179.01Z" fill="white"/>
<path d="M215.93 273.515C216.251 273.907 216.037 274.513 214.894 276.295C207.785 287.27 192.532 298.781 179.387 303.128C164.455 308.01 147.166 306.763 132.413 299.743C128.591 297.925 128.055 297.533 128.376 296.678C128.662 295.965 129.234 296.108 132.627 297.783C147.309 305.053 165.634 306.229 180.315 300.848C186.531 298.531 194.068 294.112 200.462 288.981C204.32 285.881 210.786 279.145 212.965 275.903C214.894 273.087 215.323 272.767 215.93 273.515Z" fill="white"/>
<path d="M207.821 275.76C208.249 276.259 207.999 276.651 205.749 278.753C197.711 286.415 187.388 293.043 178.314 296.393C170.741 299.208 161.954 300.455 154.81 299.814C148.487 299.208 142.414 297.569 142.414 296.429C142.414 295.502 143.057 295.466 145.629 296.215C153.738 298.638 163.99 298.638 172.778 296.215C183.316 293.328 193.568 287.306 204.07 277.791C205.677 276.366 207.07 275.19 207.142 275.19C207.249 275.19 207.57 275.439 207.821 275.76Z" fill="white"/>
<path d="M139.274 293.935C141.096 294.861 141.274 295.182 140.489 295.823C140.131 296.144 139.631 296.073 138.381 295.538C136.523 294.754 136.131 294.255 136.702 293.543C137.274 292.865 137.274 292.865 139.274 293.935Z" fill="white"/>
<path d="M308.676 29.3824C306.919 28.5072 305.876 28.5234 305.627 29.423C305.383 30.364 304.704 30.2619 304.44 29.2444C304.236 28.4296 304.021 28.3667 302.496 28.5957C300.892 28.8739 300.722 28.8484 300.635 27.939C300.536 26.9057 299.963 26.1678 298.629 25.3358C297.964 24.9404 297.678 25.0094 296.838 25.8404C295.345 27.2759 294.707 27.1699 294.545 25.4753C294.394 23.9046 293.613 23.6038 292.808 24.8067C292.55 25.1651 291.998 25.5098 291.542 25.5533C290.796 25.6244 290.735 25.4217 290.805 23.538C290.919 21.233 290.563 21.0167 288.802 22.2693C287.39 23.2383 287.22 23.2128 287.085 21.8074C286.998 20.8981 286.808 20.6659 286.368 20.8747C286.011 21.0756 285.4 20.8003 284.892 20.3065L284.01 19.3896L282.892 20.3723C280.925 22.1033 280.925 22.1033 280.984 20.0955C280.967 19.0543 280.888 18.2276 280.764 18.2395C279.852 18.3265 278.468 19.5848 278.152 20.6577C277.707 22.1184 277.31 21.906 275.966 19.6567L275.111 18.1533L275.2 19.5212C275.297 20.9719 275.223 21.0624 273.958 20.5158C273.263 20.2484 272.894 20.3253 272.44 20.8274C271.87 21.424 271.667 21.4852 270.953 21.0111C270.465 20.7239 269.53 20.5629 268.867 20.6262C267.665 20.7408 267.669 20.7822 268.027 22.3331C268.47 24.3347 268.228 24.8584 266.691 24.9633C265.986 25.0305 264.838 25.2652 264.108 25.5018C262.93 25.8644 262.78 26.0456 263.067 26.8525C263.243 27.3779 263.578 28.2636 263.758 28.8304C264.049 29.6786 263.94 29.8558 263.277 29.919C262.78 29.9665 262.267 29.8486 262.119 29.6125C261.781 29.1442 259.789 29.2926 259.128 29.8145C258.816 30.0528 258.806 30.3874 259.091 30.7357C259.849 31.6644 259.705 32.3455 258.835 32.4286C258.379 32.4721 258.034 32.797 258.07 33.169C258.101 33.4997 257.494 34.1416 256.738 34.5474C255.505 35.2073 255.393 35.3431 255.857 36.2582C256.378 37.3347 256.3 37.3839 254.755 37.4062C253.922 37.444 253.81 37.5798 254.088 38.3041C254.321 38.9909 254.225 39.2921 253.615 39.4754C253.134 39.6882 252.913 40.0013 253.069 40.3201C253.225 40.6389 253.525 41.1525 253.681 41.4713C253.882 41.8275 253.62 42.1445 252.936 42.4184C251.72 42.8263 251.712 42.7437 252.625 44.4085C253.397 45.9199 253.518 47.6185 252.837 47.9337C252.277 48.1957 250.611 51.3162 250.675 51.9776C250.702 52.2669 250.992 52.2392 251.545 51.8945C252.487 51.2623 252.926 51.4708 252.64 52.4157C252.522 52.9275 252.115 53.0497 251.022 52.9872C249.122 52.7931 248.858 53.5274 250.498 54.4971C252.002 55.3547 252.272 55.9963 251.112 56.107C249.165 56.2928 248.455 57.6119 249.726 58.6585C250.453 59.2566 249.646 60.001 248.237 60.1354C247.036 60.2501 247.055 60.4567 248.487 61.8635C250.058 63.4237 250.019 63.8863 248.251 63.763C246.524 63.6358 246.364 64.1516 247.919 64.6706C249.259 65.1267 249.283 65.3747 248.229 67.8946C247.752 69.0246 247.403 70.1841 247.431 70.4734C247.502 71.2174 246.24 72.0053 244.789 72.1437C242.635 72.3493 242.359 72.9596 243.76 74.4943C245.199 75.9837 245.391 76.6746 244.48 76.7615C243.982 76.809 243.927 77.1062 244.218 77.9545C244.443 78.5586 244.796 79.1923 244.986 79.4245C245.667 79.9852 245.618 81.6583 244.997 81.7176C243.919 81.8204 243.878 82.7003 244.972 83.6387L245.978 84.5437L245.125 85.668L244.229 86.7962L245.26 87.9492C245.82 88.5631 246.294 89.1436 246.306 89.2676C246.314 89.3503 245.339 89.6518 244.195 89.9279L242.031 90.4681L244.05 91.9022C245.668 93.0825 246.276 93.3165 247.209 93.0189C248.59 92.5951 249.311 93.5691 248.271 94.5026C247.768 94.926 247.709 95.1819 248.102 95.3529C248.895 95.7778 248.288 96.4197 246.962 96.5462C245.471 96.6886 245.481 97.2299 247.04 97.7902L248.214 98.2621L247.111 98.5342C246.456 98.6801 245.99 99.0582 246.022 99.3889C246.054 99.7196 245.705 100.003 245.249 100.047C244.047 100.161 244.273 100.766 245.822 101.66C247.458 102.589 247.539 102.998 246.203 103.459C245.639 103.68 245.219 104.096 245.251 104.426C245.326 105.212 244.373 105.302 241.974 104.697C240.948 104.461 240.016 104.342 239.904 104.478C239.833 104.61 240.094 105.586 240.57 106.625C241.533 108.827 241.415 109.339 239.979 109.184C239.093 109.102 238.823 109.336 238.541 110.322C238.397 111.003 237.922 111.716 237.519 111.88C236.914 112.104 236.841 112.653 237.031 114.637C237.237 116.787 237.348 117.068 238.094 116.997C238.55 116.954 238.95 117.207 238.982 117.538C239.014 117.869 238.668 118.194 238.213 118.237C237.425 118.312 236.291 120.081 236.799 125.371C237.306 130.662 238.496 129.472 239.283 129.397C239.739 129.354 240.139 129.607 240.171 129.938C240.203 130.269 238.581 129.463 238.125 129.506C237.379 129.578 238.601 131.005 238.807 133.155C239.033 135.511 239.082 135.59 240.369 135.926C241.138 136.102 242.194 136.21 242.774 136.155C243.644 136.072 243.739 136.188 243.619 137.117C243.458 138.05 243.594 138.162 244.671 138.059C245.334 137.996 246.058 138.136 246.202 138.33C246.589 138.877 247.994 138.702 248.146 138.103C248.234 137.719 248.524 137.692 249.091 137.93C249.57 138.134 250.675 138.321 251.561 138.403C252.952 138.52 253.152 138.418 253.516 137.424C253.969 136.046 254.259 136.018 255.136 137.311L255.778 138.334L256.024 136.976C256.156 136.171 256.443 135.685 256.787 135.777C257.047 135.877 257.736 135.645 258.247 135.304C258.915 134.865 259.409 134.776 259.768 135.034C260.482 135.508 263.051 134.387 263.461 133.43C263.774 132.774 263.902 132.804 264.939 133.581C266.247 134.582 266.811 134.362 266.03 133.185C265.198 131.929 265.275 131.421 266.234 131.83C266.71 131.994 267.268 132.149 267.475 132.129C267.931 132.086 267.34 128.972 266.698 127.949C266.011 126.888 266.719 125.11 267.838 125.004C268.459 124.944 269.003 124.517 269.271 123.824C269.539 123.131 270.084 122.704 270.705 122.644C271.534 122.565 271.605 122.433 271.169 121.808C270.432 120.668 270.507 120.578 272.289 120.408C273.2 120.321 273.934 120.125 273.922 120.001C273.859 119.34 272.177 117.498 271.263 117.127C269.738 116.48 270.026 115.994 271.91 116.022L273.629 116.067L273.249 114.727C272.874 113.428 272.915 113.424 274.133 113.474C275.226 113.537 275.342 113.442 275.076 112.842C274.821 112.366 274.984 111.891 275.6 111.332C276.369 110.633 276.395 110.464 275.81 109.602C275.469 109.092 275.198 108.451 275.212 108.157C275.229 107.906 275.073 107.587 274.809 107.445C274.106 107.095 274.225 106.583 275.195 106.24L276.041 105.909L275.013 105.215L273.985 104.52L275.287 104.146C276.137 103.856 276.636 103.392 276.859 102.661C277.011 102.063 277.423 101.565 277.754 101.533C278.707 101.442 278.116 99.2042 276.91 98.4017L275.841 97.7112L276.876 96.7365C277.566 96.0866 277.835 95.3937 277.751 94.5257C277.64 93.3683 277.715 93.2777 280.207 92.6646L282.74 92.0474L281.057 91.4989L279.374 90.9505L280.228 89.8262C280.935 88.9244 280.991 88.6272 280.483 88.1333C280.017 87.6355 280.051 87.5489 280.797 87.4777C282.04 87.3591 281.807 86.6723 280.285 86.0666C278.329 85.2939 278.548 84.5222 280.837 83.9701L282.76 83.5363L282.39 80.9855C282.064 78.8893 281.748 78.2104 280.791 77.3841L279.602 76.3296L280.721 76.2228C281.84 76.1161 282.161 75.5431 281.326 75.1223C280.888 74.9138 280.568 73.3176 280.941 73.282C281.065 73.2702 281.88 73.4844 282.74 73.736C284.726 74.3807 284.722 74.3394 283.77 73.1372L282.963 72.1297L284.101 72.2296C284.735 72.2943 285.224 72.1642 285.2 71.9162C285.18 71.7095 285.545 71.5913 286.013 71.6718C286.99 71.8288 287.707 70.5924 287.235 69.5947C286.825 68.7996 287.239 68.7601 289.51 69.3359C291.48 69.8153 291.625 69.5928 290.281 68.2195C288.978 66.8422 289.083 66.6237 291.099 66.7232L292.867 66.8465L291.993 66.0123C291.44 65.4811 291.288 65.2036 291.661 65.168C291.993 65.1364 292.077 64.7112 291.874 63.8964C291.532 62.5108 291.573 62.5068 293.497 62.9489C295.21 63.3694 295.514 63.0484 294.558 61.8049C293.895 60.9922 293.838 60.8308 294.398 60.5688C294.717 60.4132 294.851 60.0667 294.662 59.8345C294.464 59.5197 294.626 59.4625 295.268 59.6099C296.12 59.7788 296.153 59.6922 295.754 58.1452C295.412 56.7597 295.426 56.4664 295.965 56.415C296.545 56.3596 296.566 56.149 296.152 55.3126C295.01 53.0023 295.63 52.4843 297.777 53.9479C299.524 55.1577 299.81 55.0887 299.801 53.2542C299.761 51.9649 299.936 51.6145 300.716 51.4567C301.533 51.2536 301.637 51.0351 301.351 50.2282C301.007 49.2599 301.51 48.8365 302.082 49.5744C302.609 50.2749 303.576 49.8907 303.493 49.0227C303.445 48.5267 303.771 47.9951 304.289 47.737C304.891 47.471 304.996 47.2525 304.603 47.0814C304.206 46.869 304.257 46.5304 304.89 45.7192C305.336 45.1344 305.955 44.6165 306.287 44.5849C306.95 44.5216 306.904 43.6083 306.178 43.0102C305.769 42.6738 305.836 42.5006 306.313 42.2465C306.832 41.9884 306.854 41.7778 306.459 41.1481C305.776 40.1288 306.079 38.056 307.047 37.2545C307.471 36.8803 307.676 36.4019 307.483 36.1284C307.289 35.8549 307.554 35.1206 308.116 34.4413C308.786 33.5848 308.979 32.9824 308.762 32.4608C308.507 31.9846 308.671 31.5102 309.286 30.9509L310.209 30.112L308.676 29.3824ZM291.982 58.0464C291.857 58.0583 291.382 57.8951 290.861 57.6945C289.596 57.1479 289.478 57.6597 290.603 58.9288C291.777 60.2766 291.936 61.0541 291.034 60.8064C290.604 60.6806 290.3 61.0016 290.077 61.7319C289.807 62.8422 289.725 62.8501 288.509 62.3821C286.855 61.7057 286.605 62.1467 287.758 63.7052L288.759 64.9861L287.818 65.2011C287.08 65.3549 286.942 65.6601 287.096 66.3962C287.262 67.2563 287.146 67.3508 285.962 67.2135C284.612 67.092 282.064 65.3747 281.989 64.5894C281.906 63.7214 280.599 63.1787 278.9 63.3408C277.575 63.4673 277.103 63.3455 276.923 62.7787C276.698 62.1745 276.226 62.0527 274.983 62.1713C273.202 62.3413 273.243 62.3373 273.627 59.798C273.707 59.3315 273.36 59.1978 272.275 59.2179C271.484 59.2517 270.651 59.2895 270.485 59.3053C270.316 59.2798 270.568 58.4215 271.09 57.3288C271.571 56.2401 271.865 55.3779 271.741 55.3897C271.575 55.4056 270.583 55.9591 269.519 56.6445C267.194 58.1178 267.07 58.1297 267.148 57.2045C267.197 56.4073 267.156 56.4113 265.086 57.0676C263.622 57.4993 263.528 57.3832 264.03 56.0839C264.34 55.3869 264.245 55.2708 263.375 55.3539C262.587 55.429 262.364 55.2834 262.524 54.7677C262.676 54.1692 262.423 54.1516 260.375 54.5973C258.004 55.1573 257.694 54.9783 258.562 53.5608C258.849 53.0745 259.068 52.3028 259.029 51.8894C258.961 51.1868 258.705 51.1278 256.69 51.4869C255.459 51.7295 254.423 51.8284 254.415 51.7457C254.407 51.663 254.762 51.0035 255.159 50.34C255.592 49.6312 255.77 48.8635 255.622 48.6274C255.432 48.3952 255.023 47.1829 254.689 45.88C254.114 43.8075 254.128 43.5142 254.864 42.9018C255.445 42.4291 255.568 41.9587 255.334 41.2718C255.048 40.4649 255.115 40.2917 255.861 40.2205C256.482 40.1612 256.632 39.98 256.419 39.4998C256.16 38.9823 256.355 38.8385 257.573 38.8892C259.163 38.9043 259.335 38.5125 258.259 37.3221C257.282 36.2891 257.289 35.4959 258.284 35.401C258.698 35.3615 259.213 35.062 259.355 34.7982C259.493 34.4931 260.025 33.9417 260.536 33.601C261.284 33.1125 261.45 33.0967 261.708 33.6143C262.172 34.5294 263.271 34.2159 264.835 32.6485C266.249 31.2622 266.249 31.2622 266.34 32.2129C266.471 33.5769 267.168 34.3029 267.965 33.8931C268.326 33.7335 268.922 33.8435 269.33 34.1799C269.83 34.5911 270.463 34.6558 271.276 34.4114C272.333 34.1019 272.466 34.1727 272.326 34.8952C272.224 35.5723 272.405 35.7218 273.358 35.6309C274.228 35.5479 274.584 35.7642 274.862 36.4885C275.263 37.6181 277.312 38.9242 279.538 39.4626C280.435 39.6689 281.191 40.139 281.318 40.5858C281.571 41.4793 282.236 41.8747 283.437 41.76C284.225 41.6849 284.323 41.8423 284.239 43.1434C284.163 44.5272 284.261 44.6846 285.506 45.0246C286.623 45.3352 286.896 45.5594 286.805 46.3606C286.752 47.1164 286.95 47.4313 287.719 47.6081C288.58 47.8597 288.682 48.0585 288.458 49.2061C288.234 50.3537 288.336 50.5525 289.287 50.8789C290.458 51.3094 290.568 51.5909 290.024 52.8941C289.723 53.6737 289.788 53.9178 290.453 54.3131C290.854 54.5669 291.134 54.8738 291.025 55.051C290.913 55.1869 291.093 55.7537 291.484 56.342C292.22 57.4814 292.355 58.0108 291.982 58.0464ZM278.858 80.7803L276.635 80.7005L277.683 81.6016C278.83 82.6601 278.993 83.0615 278.165 83.1406C277.833 83.1722 277.53 83.4932 277.396 83.8397C277.303 84.1822 276.875 84.5151 276.419 84.5586C275.135 84.6811 275.044 85.4823 276.256 85.9089C277.505 86.2902 277.776 86.9318 276.823 87.0227C275.87 87.1137 276.136 87.7139 277.356 88.2232C277.964 88.4572 278.459 88.827 278.475 88.9924C278.531 89.571 275.93 90.3614 275.307 89.9621C274.947 89.7044 274.541 89.8266 274.05 90.374C273.671 90.7856 273.07 91.0515 272.639 90.9257C272.255 90.8373 271.483 91.0778 270.943 91.5465C270.012 92.3027 269.929 92.3106 269.278 91.622C268.948 91.2363 268.614 90.8093 268.602 90.6853C268.587 90.52 268.273 90.2997 267.929 90.2073C267.458 90.0855 267.154 90.4064 266.939 91.2194L266.591 92.3789L265.682 90.7554C265.025 89.5668 264.389 89.0435 263.359 88.7664C261.262 88.2575 260.983 88.4092 260.595 90.0312C260.422 90.8403 260.154 91.5333 260.03 91.5451C259.947 91.553 258.558 91.0182 257.028 90.33C254.498 89.2366 254.035 89.1974 254.291 90.1323C254.418 90.579 253.664 90.5676 251.981 90.0191C251.162 89.7636 250.235 89.6852 249.915 89.8408C249.516 90.0457 249.29 89.8588 249.234 89.2801C249.186 88.7841 248.807 88.3198 248.419 88.19C247.992 88.1056 247.29 87.7555 246.885 87.4604C246.171 86.9863 246.159 86.8623 246.693 85.8937C247.044 85.1928 247.093 84.3956 246.852 83.6261C246.599 82.7326 246.684 82.3074 247.082 82.1025C247.398 81.9056 247.652 81.5059 247.625 81.2165C247.593 80.8859 248.046 80.3838 248.686 80.0725L249.761 79.5111L247.904 78.8958C245.703 78.1881 245.802 77.4696 248.122 77.2482C250.194 77.0505 250.146 76.5545 247.9 75.8094C246.387 75.2865 245.297 74.3894 245.222 73.604C245.21 73.48 245.654 73.3125 246.234 73.2572C246.773 73.2058 247.706 72.9082 248.258 72.5635C249.607 71.809 249.892 72.1573 249.218 73.8484L248.64 75.2383L250.771 74.7847C252.694 74.3508 252.864 74.3763 252.687 75.1441C252.543 75.8252 252.762 75.9294 254.1 75.9269C255.769 75.8927 255.868 76.0501 255.506 78.3788C255.323 79.5225 255.368 79.5599 256.26 79.2662C256.787 79.0908 258.314 78.4446 259.596 77.8634C262.439 76.5493 262.646 76.5296 262.721 77.3149C262.8 78.1416 263.045 78.0765 264.603 76.885L265.929 75.8826L266.024 76.8746C266.127 77.9492 266.918 78.7914 267.706 78.7162C267.996 78.6886 268.739 78.1588 269.347 77.5168C270.262 76.5953 270.743 76.3825 271.886 76.5237C272.685 76.5726 273.508 76.8695 273.705 77.1843C273.899 77.4578 274.627 77.6386 275.331 77.5714C276.16 77.4923 276.941 77.7932 277.634 78.4778C278.509 79.3121 278.852 79.4044 279.268 78.9476C279.958 78.2978 280.85 78.88 280.965 80.0787C281.033 80.7814 280.83 80.8425 278.858 80.7803ZM268.343 120.242C268.682 121.169 268.607 121.26 267.8 121.128C266.824 120.971 266.642 121.697 267.505 122.408C268.277 123.043 267.719 123.764 266.434 123.886C265.44 123.981 265.252 124.208 265.034 125.855C264.896 127.036 264.988 127.987 265.292 128.542C265.949 129.73 265.555 129.977 263.992 129.375C262.38 128.695 262.172 128.714 262.538 129.472C262.895 130.147 262.165 130.383 261.687 129.762C260.971 128.829 260.748 129.559 261.23 131.098C262.117 133.808 260.979 134.584 259.461 132.268C258.93 131.526 258.411 130.909 258.245 130.924C258.079 130.94 257.853 131.629 257.804 132.426C257.642 134.235 257.149 134.324 256.332 132.775C255.568 131.347 254.934 131.282 255.065 132.646C255.188 133.927 254.568 134.445 254.1 133.489C253.842 132.971 253.576 133.247 252.939 134.893C251.997 137.277 250.985 137.624 248.966 136.19C247.71 135.308 247.669 135.312 247.081 136.161C246.681 136.783 246.32 136.943 245.882 136.734C245.179 136.384 245.51 135.477 246.381 135.394C247.706 135.267 241.227 136.594 242.781 134.486C246.784 129.14 243.534 122.276 238.213 118.237C236.186 116.72 239.631 112.095 243.711 111.038C239.722 113.046 242.975 110.775 242.901 109.572C242.818 108.704 242.586 107.6 242.373 107.12C242 106.28 242.083 106.272 243.448 106.559C244.727 106.812 245.175 106.686 246.948 105.557C249.39 103.989 249.473 103.982 249.422 105.196C249.373 105.993 249.596 106.139 251.062 106.166C252.151 106.187 252.544 106.358 252.232 106.596C251.459 107.254 252.215 107.724 253.79 107.574C254.991 107.459 255.21 107.564 255.021 108.207C254.613 109.623 254.753 109.776 256.174 109.766C256.969 109.773 257.871 110.021 258.151 110.328C258.432 110.635 259.213 110.936 259.884 110.955C260.596 110.97 261.226 110.994 261.309 110.986C261.395 111.019 261.253 111.283 261.037 111.638C260.482 112.399 260.792 112.578 263.107 112.733C264.622 112.839 264.887 112.98 264.97 113.848C265.041 114.592 265.272 114.821 266.018 114.749C268.172 114.544 268.792 114.902 268.678 116.331C268.624 117.504 268.772 117.74 269.855 118.137L271.075 118.646L269.512 118.921C268.115 119.179 267.999 119.274 268.343 120.242Z" fill="white"/>
<path d="M110.617 3.3037C110.534 3.59517 109.615 3.88664 108.614 4.01155C107.612 4.09483 105.775 4.5945 104.523 5.09417C102.353 5.96858 102.269 6.05186 102.561 7.25938C102.687 7.96724 103.187 8.84165 103.605 9.17476C104.398 9.84098 104.815 12.381 104.273 13.2554C104.106 13.5052 104.189 14.2963 104.481 15.0458C104.899 16.2534 104.857 16.4615 103.98 17.1278C103.187 17.7107 103.062 18.1271 103.187 20.0425C103.354 22.0412 103.271 22.3326 102.394 22.7907C101.059 23.4569 100.307 24.2064 100.975 24.2064C101.351 24.2064 101.351 24.4146 100.975 25.0808C100.558 25.747 100.558 26.0385 100.933 26.1634C101.184 26.2467 101.935 26.788 102.603 27.3709C103.229 27.9122 104.064 28.3702 104.44 28.3702C105.4 28.3702 105.692 28.8283 105.149 29.4945C104.773 29.9525 104.773 30.2856 105.149 30.8686C105.4 31.3266 105.525 31.9928 105.358 32.3676C105.191 32.784 105.358 33.2004 105.775 33.4502C106.61 33.8666 106.693 35.0741 106.026 35.7403C105.316 36.4482 105.9 37.5308 106.944 37.5308C107.445 37.5308 107.904 37.8639 108.029 38.3636C108.154 38.8216 108.447 39.1963 108.655 39.1963C109.448 39.1963 110.617 41.0701 110.367 41.9861C110.241 42.5691 110.325 42.9438 110.617 42.9438C111.494 42.9438 111.619 44.193 110.826 44.7759C110.2 45.2756 110.158 45.4422 110.617 46.0251C111.368 46.8995 110.826 49.2313 109.782 49.4811C108.739 49.7726 108.78 50.3139 109.907 50.8968L110.826 51.3965L109.866 52.146C109.323 52.604 108.655 52.9371 108.363 52.9371C108.071 52.9371 107.737 53.2286 107.57 53.5617C107.403 54.0197 106.735 54.1863 105.191 54.1863C103.271 54.1863 103.062 54.2696 103.271 55.0191C103.48 55.7686 103.271 55.8518 101.142 55.8935C98.9717 55.9351 95.5491 56.5181 96.8013 56.643C97.0517 56.643 97.3022 56.8512 97.3022 57.0594C97.3022 57.4341 96.0082 57.9754 93.2117 58.7666C91.3334 59.2662 91.2082 59.641 92.7943 59.8908C94.13 60.099 94.2135 60.3488 93.2535 61.3482L92.3352 62.2226L93.3787 63.5967C94.6726 65.2622 94.3387 65.512 90.9995 65.512C88.4117 65.512 87.8273 66.0117 89.5804 66.6779C90.1647 66.8861 90.6239 67.2192 90.5821 67.3858C90.5821 67.594 89.6221 68.4684 88.4534 69.3428C86.4917 70.8418 86.3665 71.0084 87.2013 71.2998C87.6604 71.4664 88.2865 72.0493 88.5787 72.549C89.0378 73.4651 89.0378 73.4651 86.1995 73.2152C83.9456 73.007 83.236 73.0903 82.6517 73.59C82.0256 74.1729 81.7334 74.1313 79.8134 73.1736C77.1421 71.7995 76.2656 71.7579 76.683 73.007C77.3925 75.2555 79.5212 78.8781 80.2308 79.0447C81.1908 79.2945 81.2743 80.0023 80.3978 80.0023C80.0221 80.0023 79.6464 80.3355 79.4795 80.7102C79.3543 81.1266 78.8534 81.9594 78.436 82.5839C77.7682 83.5416 77.7264 83.8331 78.1856 84.5826C78.4777 85.0406 78.9369 85.3321 79.1873 85.2488C79.4378 85.1656 80.523 84.9157 81.6082 84.7908C83.3195 84.4993 83.5282 84.5826 83.5282 85.2905C83.5282 86.04 83.7786 86.1232 85.7404 85.9983C86.9091 85.9151 87.6186 85.9567 87.2847 86.0816C86.9508 86.2482 86.5334 86.6229 86.3665 86.8727C86.1995 87.1642 85.5317 87.539 84.9056 87.6639C84.2378 87.8304 82.7352 88.6216 81.5247 89.4543C79.8551 90.5786 79.3543 91.1615 79.4378 91.8278C79.563 92.7438 79.6464 92.7438 83.1108 92.2858L84.9891 91.9943L83.7369 93.0353C82.1508 94.3677 82.4847 94.7008 84.5717 93.9513C86.7839 93.1602 87.7439 93.1602 87.4517 93.9513C87.1595 94.7008 87.9943 94.7841 89.6221 94.1595C90.2482 93.9097 90.8326 93.8264 90.9578 93.9097C91.0413 94.0346 90.3734 94.451 89.4134 94.8258C87.4934 95.5753 87.5352 95.5336 88.203 96.6162C88.6204 97.3241 88.5369 97.5739 87.7439 98.2401L86.7421 98.9896L87.8691 99.864C89.1213 100.863 89.2465 101.238 88.3282 101.238C87.9943 101.238 87.7021 101.488 87.7021 101.821C87.7021 102.237 87.9943 102.321 88.6621 102.196C89.4969 101.988 89.4969 102.029 88.37 103.278C86.6586 105.069 87.243 105.485 90.7491 104.861C92.7943 104.528 93.6708 104.528 93.8795 104.861C94.0465 105.111 94.5474 105.402 95.0065 105.485C95.7161 105.61 95.6326 105.735 94.4639 106.401C92.1265 107.609 92.7943 108.483 96.4674 108.858C98.1787 109.066 99.7648 109.358 100.015 109.608C100.224 109.857 100.224 109.982 99.89 109.982C99.5978 109.982 99.3891 110.274 99.3891 110.607C99.3891 111.107 99.8065 111.231 101.184 111.148C102.77 111.023 102.937 111.107 102.812 111.939C102.687 112.73 102.895 112.897 103.73 112.897C104.982 112.897 105.024 113.022 104.147 114.354C103.354 115.562 103.48 115.645 107.027 115.937C108.697 116.103 109.907 115.978 110.993 115.52C112.12 115.062 112.704 115.021 113.247 115.354C113.664 115.604 114.457 115.812 115 115.812C115.542 115.812 116.085 116.103 116.252 116.436C116.377 116.811 117.003 117.061 117.754 117.061C118.547 117.061 119.007 117.269 119.007 117.644C119.007 118.393 119.925 118.726 121.97 118.726C123.514 118.726 123.556 118.768 123.097 119.601C122.638 120.309 122.68 120.517 123.306 120.85C123.681 121.1 124.015 121.641 124.015 122.058C124.015 123.098 125.309 125.93 126.019 126.346C126.269 126.513 126.52 127.054 126.52 127.471C126.52 127.929 126.812 128.303 127.187 128.303C127.521 128.303 128.106 128.97 128.44 129.761C128.774 130.552 129.274 131.218 129.567 131.218C129.859 131.218 130.902 131.593 131.862 132.051C132.864 132.55 133.824 132.8 133.991 132.675C134.2 132.592 135.243 132.634 136.37 132.842C137.789 133.133 139.25 133.05 141.337 132.634C147.264 131.426 148.182 131.052 150.52 128.803C151.73 127.637 153.233 126.43 153.817 126.18C154.568 125.805 154.861 125.43 154.694 124.931C154.151 123.307 158.242 122.182 160.12 123.473C162.082 124.806 165.922 124.556 164.544 123.182C163.709 122.349 164.043 122.058 165.796 122.058C167.842 122.058 168.635 122.474 171.473 124.847C174.102 127.096 174.77 126.929 173.685 124.306C173.226 123.265 172.85 122.307 172.85 122.224C172.85 122.141 173.351 122.058 174.019 122.058C174.645 122.058 176.482 122.89 178.193 123.931C179.862 124.972 181.449 125.805 181.782 125.805C182.701 125.805 182.868 124.764 182.367 122.307C182.075 121.017 181.991 119.892 182.158 119.726C182.534 119.309 185.706 121.1 187.96 122.974C189.838 124.514 190.798 124.722 190.798 123.598C190.798 123.307 190.13 121.724 189.337 120.059C188.544 118.393 188.085 117.061 188.294 117.061C188.502 117.061 189.755 118.393 191.049 119.976C192.384 121.599 193.72 122.89 194.012 122.89C194.805 122.89 194.68 122.474 193.303 120.392C192.635 119.351 192.05 118.31 192.05 118.102C192.05 117.561 193.261 119.06 195.598 122.557C198.228 126.471 198.729 126.346 197.643 121.933C197.393 120.892 197.476 120.808 198.687 120.808C200.231 120.808 200.356 120.309 199.063 119.434C198.144 118.81 198.144 118.768 198.937 118.768C199.396 118.726 200.774 119.184 201.984 119.767C204.739 121.058 204.823 120.475 202.068 118.976C199.605 117.644 197.268 117.602 197.268 118.893C197.268 120.1 196.433 120.142 195.89 118.935C194.847 116.686 195.264 116.52 202.485 116.103C205.198 115.978 205.073 114.812 202.193 113.147C200.983 112.439 199.689 111.523 199.271 111.107C198.645 110.482 199.021 110.565 201.609 111.44C204.823 112.522 207.243 112.772 207.703 112.064C207.828 111.856 207.41 111.356 206.784 110.982C199.605 106.61 193.303 101.779 193.303 100.614C193.303 100.322 193.094 99.989 192.802 99.9057C191.842 99.5726 192.885 98.8647 194.638 98.6149C195.598 98.49 196.475 98.1569 196.558 97.907C196.683 97.6156 197.435 97.5739 198.77 97.7405C200.607 97.9903 200.816 97.9487 200.816 97.1992C200.816 96.6579 200.023 96.0333 198.019 95.0339C196.433 94.2428 195.431 93.535 195.723 93.4517C196.892 93.0353 196.057 92.1192 193.219 90.8701L190.172 89.5376L191.257 88.6216C191.883 88.1219 192.76 87.3724 193.261 86.9977C193.72 86.5813 194.137 86.0816 194.137 85.8318C194.137 85.2072 192.426 84.2495 190.673 83.9164C188.711 83.5833 189.296 83.0836 192.134 82.7089C193.219 82.5423 194.263 82.2508 194.388 82.0426C194.805 81.3348 193.678 80.4187 192.426 80.4187C191.675 80.4187 191.216 80.2105 191.216 79.8358C191.216 78.9614 190.339 78.7948 188.127 79.2112C185.998 79.586 185.372 79.461 185.372 78.5866C185.372 78.2535 185.122 77.7955 184.829 77.5457C184.496 77.2958 184.329 76.588 184.454 75.8801C184.621 74.7559 184.454 74.5477 183.118 73.8814C182.116 73.4234 181.49 73.2985 181.198 73.59C180.572 74.2146 178.276 73.7982 178.276 73.0487C178.276 72.5074 177.901 72.4241 176.398 72.6323C175.271 72.7988 174.52 72.7572 174.52 72.5074C174.52 71.8411 173.643 72.0077 171.389 73.1319C170.262 73.6732 169.052 74.1729 168.718 74.1729C168.384 74.1729 167.758 74.506 167.341 74.8808C166.673 75.4637 166.464 75.5054 166.172 75.0473C165.922 74.6309 165.379 74.5477 164.168 74.7142C162.791 74.964 162.29 74.7975 160.829 73.7565C159.619 72.8821 159.035 72.1326 158.868 71.1333C158.492 69.093 159.327 66.4281 160.913 64.7209C162.332 63.1386 163.25 63.1386 163.25 64.6793C163.25 65.2206 163.459 65.4288 163.835 65.3038C164.168 65.1789 164.628 65.512 164.92 66.095C165.254 66.6363 165.629 67.0943 165.838 67.0943C166.005 67.0943 166.172 67.594 166.172 68.1769C166.172 69.2179 166.255 69.2595 167.758 68.9681C170.555 68.4268 172.182 68.3018 177.024 68.1769C179.654 68.1353 182.367 67.8438 182.993 67.594C184.579 66.9278 184.913 66.9694 183.953 67.7189C183.494 68.052 183.202 68.3851 183.327 68.4268C185.372 69.7176 186.708 70.0923 189.212 70.3005C190.84 70.3838 192.551 70.7169 193.052 71.05C193.511 71.3415 195.223 72.0077 196.767 72.5074C198.353 73.007 199.73 73.6732 199.856 74.0064C199.981 74.3395 200.816 74.7975 201.734 75.089C202.652 75.3388 203.487 75.8385 203.612 76.1299C203.737 76.463 204.572 77.0044 205.449 77.3375C206.283 77.7122 207.118 78.2535 207.243 78.5866C207.369 78.9197 207.953 79.1696 208.496 79.1696C209.247 79.1696 209.497 79.3361 209.33 79.7941C209.163 80.2105 209.623 80.6269 210.916 81.2099C212.294 81.7928 212.878 82.3341 213.296 83.4584C213.63 84.2911 214.214 85.0406 214.548 85.0823C214.923 85.1656 215.216 85.5819 215.216 86.04C215.216 86.6645 215.508 86.8727 216.468 86.9144C217.177 86.956 218.012 87.0809 218.346 87.2475C219.056 87.539 224.941 88.7465 225.358 88.7048C225.525 88.7048 224.899 88.3301 223.981 87.9137C222.52 87.2475 222.437 87.1226 223.355 87.1226C224.983 87.0393 225.609 86.498 224.857 85.8734C224.398 85.457 224.315 85.1239 224.607 84.5826C225.233 83.4167 225.108 82.584 224.19 81.6679C223.563 81.0433 223.438 80.6269 223.689 80.0856C224.19 79.1696 223.897 78.3784 222.603 76.9627L221.518 75.8385L223.188 75.7968C225.483 75.7552 223.814 75.089 221.268 75.0057C219.765 75.0057 219.557 74.8808 220.141 74.5477C221.268 73.8814 220.976 73.4651 218.972 72.9654C216.76 72.4241 216.092 71.3831 216.384 69.0513C216.635 67.2609 215.299 63.6383 214.047 62.5557C212.92 61.6813 213.212 61.2649 214.631 61.7646C215.299 62.0144 215.967 62.0977 216.092 61.9727C216.217 61.8895 215.842 61.0567 215.216 60.2239C214.631 59.3495 214.172 58.2253 214.172 57.684C214.172 57.1426 214.005 56.6846 213.755 56.6846C213.087 56.6846 213.254 58.8915 214.005 59.9324C214.631 60.8485 214.631 60.8901 213.463 60.5987C212.836 60.4321 212.252 60.1406 212.169 59.9324C212.085 59.7659 211.292 59.7242 210.457 59.8492C209.038 60.0574 208.788 59.9741 207.995 58.8915C206.743 57.1426 206.409 55.5187 207.243 55.1856C208.454 54.7276 207.953 54.3945 205.95 54.3945C204.155 54.3945 203.946 54.2696 203.821 53.3952C203.612 51.8962 200.356 48.8982 197.727 47.7323C194.638 46.3582 194.388 45.6503 196.475 43.9432C197.852 42.7773 198.019 42.4442 197.643 41.8196C197.393 41.4032 196.725 40.9452 196.183 40.7786C195.64 40.6121 194.346 40.2373 193.303 39.9458C190.673 39.1963 190.673 38.3636 193.303 35.6154C195.431 33.3669 195.473 33.3253 194.763 32.2843C194.096 31.285 194.137 31.2017 194.847 30.6187C196.224 29.5778 198.77 29.0781 199.814 29.6611C200.649 30.0774 201.108 29.9525 203.32 28.8283C204.697 28.1204 206.033 27.6208 206.242 27.7457C206.492 27.9122 207.202 27.6207 207.87 27.1627C208.496 26.7047 209.163 26.4549 209.33 26.5798C209.456 26.7463 210.123 26.3716 210.75 25.7886C211.376 25.1641 212.586 24.5395 213.463 24.4146C214.297 24.248 215.132 23.9565 215.257 23.7067C215.383 23.4985 215.758 23.5401 216.134 23.8733C216.635 24.2896 216.843 24.248 217.303 23.6651C218.137 22.4992 218.43 22.8739 217.72 24.248C216.718 26.1218 217.344 26.2883 218.805 24.4978C220.35 22.6241 222.186 21.5415 222.812 22.1661C223.063 22.4159 224.19 22.6657 225.4 22.7074C226.569 22.749 227.612 22.9156 227.737 23.0405C228.03 23.332 230.576 22.4575 231.41 21.7497C232.245 21.0835 232.704 21.3749 233.372 22.9572C233.664 23.6234 234.04 24.2064 234.249 24.2064C234.457 24.2064 234.624 24.4562 234.624 24.7477C234.624 25.4972 237.254 26.7047 238.339 26.4132C239.884 26.0385 239.299 26.9129 237.504 27.6624C236.169 28.2453 235.877 28.5368 236.127 29.1197C236.503 29.9942 236.503 32.0761 236.127 32.9922C235.918 33.4918 236.127 33.7417 237.087 33.9082C239.007 34.3246 238.631 35.0325 236.544 35.0325C234.583 35.0325 234.165 35.4072 233.915 37.6973C233.831 38.5301 234.165 39.3629 235.042 40.4455C235.751 41.3199 236.294 42.3192 236.294 42.694C236.294 43.61 234.666 43.5684 233.957 42.6107C233.414 41.9445 233.372 41.9861 233.122 42.8605C232.913 43.5268 232.621 43.735 232.12 43.5684C231.619 43.4018 230.868 43.7766 229.991 44.6094C228.823 45.6503 228.697 45.9418 229.198 46.2749C229.532 46.4831 230.2 46.6913 230.659 46.733C231.118 46.733 230.743 47.0244 229.699 47.3992C228.489 47.8156 227.946 48.2319 228.113 48.6067C228.405 49.3978 226.277 50.4388 224.398 50.4388C223.104 50.4388 222.937 50.5637 223.146 51.2299C223.355 51.8962 223.021 52.146 221.101 52.7289C219.64 53.187 218.68 53.7283 218.555 54.2279C218.346 54.8525 217.887 55.0191 216.217 55.0191C214.047 55.0191 213.838 55.1856 214.798 56.4348C215.341 57.1426 215.424 57.1843 215.424 56.5597C215.424 56.06 215.8 55.8518 216.76 55.8518C217.595 55.8518 218.513 55.4771 219.139 54.8525C219.765 54.3112 221.56 53.4368 223.146 52.9371C224.774 52.3958 226.36 51.7296 226.694 51.3965C227.028 51.0634 227.946 50.4388 228.697 49.9808C229.407 49.5644 230.033 48.9814 230.033 48.69C230.033 48.3985 230.784 47.8156 231.703 47.4408C232.83 46.9828 233.372 46.4831 233.372 45.9418C233.372 45.4005 233.831 45.0258 235.042 44.651C236.92 44.1097 237.463 42.9855 236.753 41.1534C236.461 40.3622 236.461 39.9875 236.795 39.7793C237.087 39.5711 236.962 39.3629 236.377 39.1547C235.334 38.7799 235.125 37.1144 236.085 37.1144C236.419 37.1144 236.711 36.8646 236.711 36.5314C236.711 36.1983 237.129 35.8652 237.671 35.782C238.423 35.6987 238.59 35.4072 238.548 34.3246C238.464 33.242 238.673 32.9505 239.591 32.7007C240.384 32.4925 240.468 32.3676 239.967 32.2427C239.591 32.1594 239.007 31.5348 238.715 30.8269C238.423 30.1607 238.005 29.6194 237.797 29.6194C237.546 29.6194 238.089 28.9532 238.965 28.1621C240.468 26.788 240.677 25.8719 239.424 25.8719C239.132 25.8719 238.798 25.5804 238.631 25.2473C238.506 24.9142 238.13 24.6228 237.755 24.6228C237.296 24.6228 237.17 24.3729 237.379 23.6234C237.63 22.4992 236.837 21.708 236.461 22.7074C236.336 23.0821 236.085 23.3736 235.918 23.3736C235.584 23.3736 235.668 21.1667 236.044 20.5422C236.461 19.8759 235.334 19.9176 234.708 20.5422C234.29 20.9585 234.082 20.9585 233.79 20.4589C233.497 19.9592 233.122 19.9592 231.619 20.334C229.616 20.8753 229.24 20.7503 230.033 19.8343C230.367 19.4179 230.409 19.2097 230.075 19.2097C229.49 19.2097 227.946 20.7087 227.946 21.2917C227.946 21.4998 227.57 21.708 227.111 21.708C226.652 21.708 226.277 21.5831 226.277 21.3749C226.277 20.792 224.315 20.1674 223.605 20.5422C223.23 20.7503 222.353 20.792 221.643 20.6671C220.767 20.4589 219.974 20.6254 218.889 21.2917C217.762 21.9579 217.303 22.0412 217.052 21.6664C216.76 21.2084 216.426 21.25 215.007 22.0412C214.673 22.2493 213.546 22.7907 212.503 23.2487C207.243 25.6221 204.656 26.6631 203.445 26.9129C202.068 27.2044 201.149 27.9122 202.151 27.9955C202.443 27.9955 202.235 28.2037 201.692 28.4119C201.024 28.6617 200.523 28.6617 200.189 28.3702C199.814 28.0371 198.353 28.0371 195.348 28.3702C191.09 28.7866 191.007 28.7866 190.297 27.8706C189.462 26.7463 189.379 25.9552 189.963 24.3729C190.214 23.7483 190.256 23.0821 190.047 22.8739C189.88 22.7074 188.419 23.0821 186.833 23.79C183.661 25.1224 182.45 25.289 181.156 24.5811C180.363 24.1647 180.322 24.0814 180.989 23.3736C181.908 22.3743 181.24 22.0412 179.403 22.6241C177.442 23.2487 177.149 22.9156 178.276 21.3333C179.278 19.8759 179.028 19.751 176.815 20.6671C175.522 21.2084 175.104 21.25 174.061 20.792C173.393 20.5005 172.85 20.0009 172.85 19.751C172.85 18.835 171.89 19.1681 170.889 20.334C170.012 21.4166 169.97 21.4582 169.929 20.6254C169.929 19.4179 168.927 18.6684 167.842 19.0015C167.341 19.1681 166.673 19.0432 166.339 18.7517C166.005 18.5019 165.128 18.252 164.377 18.2937C163.542 18.2937 162.666 18.0022 162.123 17.4609C161.288 16.7114 161.163 16.6697 161.163 17.2527C161.163 17.7524 160.829 17.9605 160.078 17.9605C159.368 17.9605 158.909 18.2104 158.784 18.7517C158.617 19.4179 158.242 19.5428 157.073 19.4595C156.238 19.4179 155.528 19.1681 155.403 18.8766C155.153 18.1271 154.568 18.2937 154.276 19.2097C153.859 20.4589 153.233 20.2507 151.062 18.0855L149.059 16.1284V17.7107C149.059 19.1681 148.975 19.293 148.141 19.0015C145.928 18.3353 145.386 18.3353 144.76 19.0015C144.342 19.3763 143.257 19.751 142.297 19.7927C141.087 19.9176 140.377 20.209 139.876 20.8753C139.292 21.6664 138.708 21.8746 136.913 21.9162C135.577 21.9579 134.283 21.708 133.741 21.3749C133.114 21.0002 132.781 20.9585 132.781 21.25C132.781 21.4999 132.447 21.708 131.988 21.708C131.528 21.708 130.735 20.9169 129.942 19.6261C129.233 18.4602 128.356 17.5442 128.022 17.5442C127.688 17.5442 126.812 16.7947 126.102 15.8786C125.393 14.9626 124.558 14.2131 124.266 14.2131C124.015 14.2131 122.763 13.1721 121.511 11.8813C120.259 10.6321 118.547 9.2164 117.754 8.80001C116.961 8.38363 115.96 7.67577 115.542 7.21774C115.083 6.75971 114.54 6.42661 114.248 6.55152C113.998 6.6348 113.414 5.8853 112.954 4.84433C112.036 2.76239 111.327 2.346 111.744 4.09483C112.12 5.80202 113.998 8.38363 114.833 8.38363C115.25 8.38363 115.793 8.6751 116.085 9.00821C116.377 9.34132 116.836 9.63279 117.087 9.63279C117.379 9.63279 118.13 10.2157 118.84 10.9236C119.507 11.6315 120.634 12.5475 121.386 13.0055C122.221 13.5468 122.638 14.0465 122.471 14.4629C122.346 14.796 123.014 16.6697 123.932 18.71C125.226 21.4166 125.685 22.9988 125.81 24.9142C125.894 26.3716 125.768 27.5375 125.601 27.5375C125.393 27.5375 125.351 28.8283 125.518 30.4106C125.852 33.8249 125.476 36.2816 124.641 36.2816C124.349 36.2816 124.015 35.9069 123.932 35.4488C123.765 34.2413 123.014 34.4079 122.847 35.657C122.721 36.5315 122.554 36.698 122.012 36.4482C119.341 35.3656 118.589 35.8236 118.589 38.655V40.4455H116.46C114.958 40.4455 114.165 40.6537 113.789 41.1117C113.08 42.111 111.744 41.4865 111.285 39.9458C110.909 38.6967 109.448 37.4891 107.654 36.8646C106.819 36.5731 106.693 35.8236 107.32 35.199C107.654 34.8659 107.612 34.3662 107.278 33.5335C106.986 32.8672 106.819 31.9928 106.86 31.5764C106.902 31.2017 106.777 30.8686 106.527 30.8686C106.318 30.8686 106.193 30.2856 106.318 29.4945C106.527 28.287 106.401 28.0788 104.607 26.9962C103.563 26.3716 102.478 25.8719 102.269 25.8719C101.309 25.8719 102.227 24.831 103.271 24.706C104.189 24.5811 104.398 24.3729 104.398 23.4152C104.398 22.749 104.69 21.9995 105.024 21.708C105.608 21.2084 105.608 21.0835 105.024 20.4589C104.147 19.5012 104.231 18.2937 105.274 16.9612C105.984 16.0452 106.067 15.6288 105.733 14.6711C105.441 13.8383 105.441 13.3386 105.733 13.0472C106.067 12.7141 106.067 12.381 105.692 11.9646C105.4 11.6315 105.274 11.0069 105.4 10.5905C105.525 10.1741 105.483 9.13313 105.274 8.30035C105.066 7.42594 105.066 6.80136 105.233 6.92627C105.4 7.00955 105.984 6.71808 106.568 6.17677C107.111 5.67711 108.154 5.26072 108.906 5.21908C110.534 5.17744 111.201 4.5945 110.993 3.55353C110.909 3.05386 110.742 2.97058 110.617 3.3037ZM157.198 43.4435C156.572 45.5671 155.988 54.6443 156.363 55.8518C156.572 56.5597 156.781 56.643 157.24 56.2266C157.532 55.9768 158.116 55.8935 158.492 56.0184C159.202 56.3099 160.746 55.8935 164.252 54.561C165.379 54.1447 166.381 53.8532 166.464 53.9365C166.548 54.0197 165.588 54.9774 164.294 56.1017C163 57.1843 161.455 58.9331 160.871 59.9741C160.245 61.0151 159.243 62.5557 158.617 63.3468C157.49 64.8042 155.654 68.8431 155.153 70.9251C154.902 72.0493 153.191 73.007 152.899 72.1742C152.815 71.9244 152.481 71.8411 152.148 71.9661C151.396 72.2575 150.311 71.3831 150.311 70.5087C150.311 70.1756 150.019 69.551 149.643 69.1346C148.516 67.8855 149.518 63.1803 151.48 60.5154C152.315 59.3911 153.358 58.3502 153.817 58.2253C154.527 58.0171 154.568 57.559 154.443 52.5624C154.36 49.606 154.151 47.0244 153.984 46.8579C153.817 46.6913 153.066 47.0661 152.315 47.6907C151.563 48.3152 149.977 49.4395 148.808 50.2306C146.972 51.4381 146.638 51.8962 146.346 53.4368C146.179 54.4361 146.054 56.185 146.095 57.3925C146.179 58.7249 145.803 60.9734 145.094 63.4717L143.967 67.3858L142.214 67.9271C141.295 68.2602 140.21 68.8431 139.834 69.3012C139.375 69.8841 138.916 70.009 138.29 69.8008C137.789 69.6759 137.372 69.3845 137.372 69.1763C137.372 68.9681 137.163 68.3018 136.871 67.6356C136.621 67.011 136.454 66.2615 136.495 66.0533C136.579 65.8035 136.871 63.3885 137.205 60.6819C137.706 56.2266 137.706 55.6437 137.121 54.9774C136.537 54.3529 136.579 54.0197 137.372 51.6463C137.873 50.189 138.332 48.9398 138.374 48.8982C138.457 48.8149 139.375 49.606 140.502 50.6054L142.506 52.4791L143.8 51.6047C144.509 51.105 145.845 50.0224 146.763 49.2313C147.681 48.3985 150.061 46.8162 152.064 45.692C154.068 44.6094 156.113 43.2353 156.614 42.694C157.115 42.1527 157.615 41.6947 157.657 41.6947C157.699 41.6947 157.49 42.4858 157.198 43.4435ZM125.56 54.8525C126.645 55.5187 127.772 55.602 127.772 55.0191C127.772 54.103 128.607 54.686 129.775 56.4348C131.361 58.7666 131.57 59.3911 131.904 63.3885C132.154 66.4281 131.946 67.5523 131.403 66.0533C131.236 65.7202 130.401 65.0957 129.483 64.6376C128.565 64.138 126.687 62.8472 125.309 61.6813C122.763 59.5577 121.803 59.3079 122.221 60.8485C122.429 61.598 122.221 61.5564 120.217 60.4321C117.963 59.1829 116.502 58.8498 116.502 59.5577C116.502 59.7659 116.794 60.1406 117.17 60.4738C117.504 60.7652 117.713 61.3482 117.587 61.8062C117.504 62.2642 117.587 62.9304 117.88 63.3468C118.547 64.4711 117.546 65.512 115.918 65.3455C114.874 65.2622 114.624 65.3871 114.624 66.0533C114.624 66.9278 113.956 67.2192 110.45 67.8855C109.532 68.052 108.113 68.5933 107.32 69.0513C106.527 69.551 105.107 70.1339 104.189 70.4254C103.271 70.7169 102.353 71.0916 102.144 71.2998C101.56 71.7995 102.687 72.9237 103.772 72.9237C104.273 72.9237 104.94 73.2152 105.233 73.5483C105.525 73.8814 105.984 74.1729 106.234 74.1729C106.485 74.1729 106.986 74.3395 107.32 74.5893C107.82 74.8808 107.82 75.089 107.153 75.7968C106.193 76.8794 106.61 77.504 108.28 77.504C109.574 77.504 109.532 77.5457 107.32 78.7532C106.067 79.461 104.94 80.1689 104.815 80.3355C104.69 80.502 104.064 80.8768 103.438 81.1682C102.812 81.4181 102.311 81.9177 102.394 82.2508C102.478 82.5423 102.06 83.2085 101.476 83.6666L100.433 84.4993L101.685 84.999C102.353 85.2488 103.313 85.3737 103.813 85.2488C104.356 85.0823 104.94 85.2488 105.233 85.6236C105.65 86.1232 105.65 86.2482 105.107 86.2482C104.189 86.2482 103.73 87.0809 104.44 87.4973C104.773 87.7472 104.44 87.9554 103.438 88.1219C102.603 88.2885 101.893 88.5799 101.893 88.7465C101.893 89.2462 103.939 89.6625 104.857 89.3711C106.401 88.8714 105.65 89.6209 103.772 90.412C101.518 91.3697 101.226 92.494 103.271 92.494C103.98 92.5356 105.066 92.9104 105.608 93.3684L106.61 94.1595L104.189 96.6995C101.643 99.3227 101.518 100.447 103.772 99.5726C104.648 99.2395 105.024 99.2395 105.233 99.6142C105.441 99.9057 106.026 99.989 106.86 99.7808C108.53 99.406 108.488 99.6975 106.652 100.78C104.815 101.863 105.149 102.487 107.654 102.487L109.615 102.529L107.862 103.57C105.525 104.986 105.4 106.235 107.612 106.235C108.822 106.235 109.031 106.36 108.655 106.734C107.862 107.526 108.071 108.317 109.114 108.317C109.657 108.317 110.2 108.691 110.45 109.233C110.7 109.816 111.368 110.274 112.12 110.399C113.121 110.565 113.205 110.69 112.662 110.898C112.245 111.065 111.911 111.481 111.911 111.856C111.911 112.314 112.37 112.481 113.706 112.522C114.666 112.522 115.834 112.689 116.294 112.897C117.003 113.147 116.836 113.272 115.459 113.522C114.54 113.688 112.913 114.063 111.827 114.396C110.784 114.729 108.947 114.979 107.779 114.896C105.692 114.771 105.65 114.729 105.859 113.646C106.109 112.689 105.984 112.481 105.066 112.231C104.44 112.106 104.106 111.773 104.231 111.44C104.481 110.815 103.229 109.982 102.06 109.982C101.685 109.982 101.1 109.649 100.85 109.233C100.474 108.733 99.2639 108.4 97.01 108.067L93.7543 107.609L95.7578 106.693C97.97 105.652 98.2622 104.777 96.5926 104.111C95.3822 103.612 90.9995 103.57 89.5804 103.986C88.8291 104.236 88.8291 104.194 89.7056 103.195C91.083 101.738 90.8326 99.8224 89.2882 99.6559C88.6204 99.5726 88.1195 99.406 88.1195 99.2811C88.1195 98.948 90.6656 96.6579 91.083 96.6579C91.2917 96.6579 91.4587 96.4497 91.4587 96.2415C91.4587 95.9916 91.1665 95.8251 90.7908 95.8251C89.7891 95.8251 90.5404 95.0339 92.1682 94.3677C94.13 93.535 93.7126 93.2018 90.8326 93.2851C89.5804 93.2851 88.5369 93.1602 88.5369 92.952C88.5369 92.7438 88.036 92.494 87.41 92.4107C86.283 92.2858 86.3247 92.2441 88.2865 90.9117C90.2482 89.6625 90.3317 89.038 88.4117 90.0789C87.4517 90.5786 80.6064 91.7861 80.3143 91.4946C79.9386 91.1199 84.1125 88.7881 86.4499 88.1635C87.8273 87.7888 88.9543 87.2475 88.9543 87.0393C88.9543 86.7895 89.3717 86.2482 89.9143 85.7901C90.8743 84.999 90.6239 84.8324 88.6204 84.999C88.0778 85.0406 86.9926 84.7492 86.1578 84.3744C85.0726 83.8331 84.1125 83.7498 82.6934 83.9164C80.2308 84.2495 79.2708 83.5 80.6064 82.2925C81.0656 81.8761 81.4412 81.2931 81.4412 81.0433C81.4412 80.7518 81.8169 80.4187 82.276 80.2938C83.4865 79.9607 83.2778 79.5443 80.9404 77.7122C78.9786 76.2132 76.9751 73.5067 77.3925 73.0487C77.5177 72.9654 78.3943 73.4651 79.4378 74.1729C80.4395 74.8808 81.9421 75.547 82.7769 75.6719C84.9891 76.0467 88.1195 75.5054 88.1195 74.7559C88.1195 74.4227 88.4117 74.1729 88.7456 74.1729C89.5387 74.1729 89.5387 72.9654 88.7456 71.7995C88.1613 70.9667 88.203 70.8418 89.4969 69.8425C90.4152 69.1346 91.1665 68.8848 91.7926 69.0513C92.7943 69.3012 93.0865 68.4684 92.2517 67.6356C91.5421 66.9278 92.0848 66.3865 93.7961 66.095C95.0065 65.8452 95.2152 65.637 94.9648 65.0957C94.2969 63.4301 94.5474 62.7639 96.1335 62.3059C96.9682 62.0977 97.9283 61.6396 98.2204 61.3482C99.0135 60.557 99.3891 60.7652 99.3891 62.0977C99.3891 63.3885 99.7648 63.555 101.267 62.9721C101.727 62.7639 102.311 62.8055 102.603 63.0137C102.937 63.3052 103.897 63.0554 105.483 62.3475C106.777 61.7646 109.073 61.0567 110.575 60.8485C114.749 60.1823 115.793 59.2662 113.414 58.3502C112.62 58.0587 112.746 57.9338 114.624 57.1426C116.961 56.1433 120.134 54.6443 121.094 54.1447C121.887 53.6866 124.391 54.0614 125.56 54.8525ZM129.775 67.8855C131.779 69.3428 132.321 70.6336 131.361 71.5913C130.735 72.2159 130.694 72.1743 130.694 71.1333C130.694 70.4671 130.276 69.551 129.65 68.9681C127.897 67.1776 125.56 67.8022 124.934 70.2172L124.6 71.4664L123.848 70.3421C123.014 69.0513 123.181 68.5933 125.017 67.4691C126.812 66.3865 127.772 66.4697 129.775 67.8855ZM129.274 69.3428C131.027 71.05 129.942 72.6739 127.354 72.1326C126.144 71.8828 125.852 71.6329 125.768 70.6336C125.518 68.5933 127.73 67.7605 129.274 69.3428ZM86.1578 74.4644C85.6152 74.5477 84.7804 74.5477 84.2795 74.4644C83.7369 74.3811 84.1543 74.2978 85.1978 74.2978C86.2413 74.2978 86.6586 74.3811 86.1578 74.4644ZM179.195 77.8371C179.57 78.2119 177.031 81.2515 174.151 82.0843C170.195 82.2175 172.796 82.7583 164.168 80.2522C163.793 80.3771 164.043 80.0856 164.753 79.6276C167.842 77.5457 177.65 76.2965 179.195 77.8371ZM131.32 80.8768C131.57 81.5846 131.862 81.7095 132.822 81.5013C133.615 81.3348 134.033 81.4597 134.033 81.7928C134.033 82.0426 134.701 83.1253 135.535 84.1662C136.954 85.9567 136.996 86.04 136.161 86.4147C134.868 86.956 135.076 87.6222 136.454 87.3308C140.252 86.4564 141.88 86.5396 144.092 87.6639C146.304 88.7465 147.389 88.9963 147.389 88.4134C147.389 88.2468 147.014 87.8721 146.555 87.5806C145.386 86.8727 145.469 86.5813 147.598 84.999C148.641 84.2495 149.56 83.2502 149.727 82.8338C149.852 82.3341 150.353 82.0843 151.146 82.0843C151.939 82.0843 152.523 81.7928 152.815 81.2515C153.441 80.1273 153.984 80.2105 154.318 81.5013L154.568 82.5423L155.487 81.7095C156.697 80.5853 156.906 80.6269 157.073 81.9594C157.156 82.7505 157.407 83.0836 157.824 82.9587C159.995 82.4174 160.328 82.4174 160.328 83.0836C160.328 83.4584 160.537 83.7498 160.746 83.7498C160.996 83.7498 161.163 84.1246 161.163 84.5826C161.163 85.2488 161.455 85.4154 162.624 85.4154C163.459 85.4154 164.419 85.7485 164.836 86.1649C165.504 86.8311 165.504 87.0809 165.045 88.2468C164.502 89.5376 164.502 89.5793 165.629 89.5793C166.297 89.5793 168.593 89.2878 170.763 88.9547C175.396 88.2468 181.782 88.1219 181.407 88.7465C181.282 88.9547 179.904 89.1629 178.36 89.1629C175.563 89.1629 169.553 90.0373 168.175 90.6202C167.257 90.995 167.215 91.4946 168.05 91.8278C168.384 91.9527 168.676 92.3274 168.676 92.6189C168.676 93.1186 169.887 93.2851 174.395 93.535C182.492 93.9513 182.742 94.3677 174.937 94.3677C169.845 94.3677 168.175 94.4926 167.758 94.9507C167.299 95.4087 167.299 95.5336 167.758 95.7002C168.175 95.8667 168.092 96.0333 167.549 96.4497C166.84 96.9493 166.882 97.0326 167.842 97.4074C168.426 97.6156 169.762 97.9903 170.805 98.2401C171.849 98.49 173.935 99.1978 175.396 99.7808C178.276 100.905 178.193 100.905 171.64 99.7808C165.838 98.7398 163.542 99.0729 165.671 100.655C166.339 101.113 166.297 101.196 165.212 101.613C164.544 101.863 163.793 102.071 163.459 102.071C162.207 102.071 162.457 102.862 163.751 103.07C169.01 103.861 172.934 104.653 174.311 105.194C175.229 105.527 175.522 105.735 174.937 105.652C173.56 105.402 165.588 104.236 163.375 103.945C162.415 103.861 161.497 103.945 161.372 104.153C161.247 104.403 161.33 104.569 161.581 104.569C161.831 104.569 161.956 104.736 161.789 104.944C161.664 105.194 160.662 105.485 159.577 105.61C158.492 105.777 157.031 106.068 156.28 106.276C155.57 106.526 153.692 106.859 152.106 107.068C147.723 107.65 146.388 107.942 145.72 108.525C145.386 108.816 143.633 109.399 141.88 109.816C139.834 110.274 138.624 110.773 138.624 111.107C138.624 111.856 137.414 111.773 135.911 110.94C134.325 110.107 129.316 110.107 127.939 110.982C127.438 111.315 126.895 111.481 126.77 111.315C126.603 111.19 125.977 111.065 125.351 111.023C124.683 111.023 124.266 110.815 124.307 110.524C124.516 109.608 123.64 107.9 122.972 107.9C122.638 107.9 122.346 107.526 122.346 107.068C122.346 106.61 122.221 106.235 122.054 106.235C121.845 106.235 120.175 107.567 118.297 109.149C116.377 110.773 114.833 111.939 114.833 111.731C114.833 111.523 116.043 110.19 117.546 108.775C120.217 106.193 120.885 104.777 119.633 104.319C119.132 104.111 119.09 103.903 119.466 103.487C120.927 101.738 114.123 103.945 112.036 105.902C111.494 106.401 111.076 106.61 111.076 106.36C111.076 105.235 115.96 102.113 117.838 102.029C118.756 101.988 118.756 101.988 117.754 101.696L116.711 101.405L117.671 100.863C118.172 100.614 118.464 100.156 118.339 99.9057C118.172 99.6559 118.38 99.1978 118.756 98.9064C119.633 98.2818 119.507 97.1159 118.506 96.4913C118.005 96.1998 116.627 96.2831 113.497 96.7828C111.118 97.1992 108.655 97.6156 107.946 97.6988L106.693 97.907L108.071 97.2824C109.907 96.408 114.874 95.4087 117.17 95.4087C119.048 95.4087 119.382 95.1172 118.506 94.2428C118.214 93.9513 118.172 93.7431 118.422 93.7431C119.174 93.7431 121.302 91.7028 120.927 91.3697C120.76 91.2032 117.671 90.0373 114.081 88.8298C108.071 86.8311 107.737 86.6645 110.033 86.8727C113.08 87.1642 117.838 88.4967 119.841 89.6625L121.302 90.4953L122.429 89.1212C123.181 88.2052 123.598 87.2475 123.598 86.3731C123.598 84.9574 123.932 84.6659 124.725 85.457C125.017 85.7485 125.226 85.3321 125.434 83.9997C125.727 82.1676 126.186 81.6263 126.728 82.5007C126.854 82.7505 127.605 82.2508 128.356 81.4597C129.942 79.7941 130.944 79.586 131.32 80.8768ZM157.824 107.401C157.824 107.859 154.401 111.898 152.064 114.188C148.558 117.602 146.137 120.35 146.137 120.933C146.137 121.266 145.803 121.974 145.386 122.516C144.927 123.057 144.468 124.015 144.301 124.639C144.175 125.264 143.716 125.93 143.299 126.138C142.506 126.555 137.539 125.972 136.537 125.347C136.203 125.139 135.41 124.722 134.742 124.431C133.949 124.098 133.699 123.765 133.866 123.307C134.45 122.016 135.034 117.561 135.076 114.646C135.076 112.147 135.16 111.689 135.702 111.898C136.036 112.064 137.038 112.272 137.914 112.397C139.083 112.522 139.459 112.439 139.459 111.939C139.459 111.565 140.168 111.19 141.546 110.94C142.714 110.69 143.633 110.648 143.633 110.857C143.633 111.023 143.048 112.814 142.339 114.854C140.711 119.518 140.294 121.183 140.711 121.433C140.878 121.558 141.17 121.017 141.295 120.267C141.421 119.559 142.297 117.769 143.174 116.311C144.509 114.105 144.76 113.397 144.593 112.064C144.342 110.149 145.135 109.399 146.054 110.732C147.014 112.147 148.141 111.898 148.475 110.232C148.767 108.483 149.351 108.192 152.941 108.109C154.527 108.025 156.029 107.775 156.28 107.526C156.822 106.984 157.824 106.901 157.824 107.401ZM147.807 109.774C147.807 110.565 146.972 110.982 146.471 110.482C146.137 110.149 146.179 109.816 146.555 109.399C147.139 108.691 147.807 108.9 147.807 109.774ZM159.452 110.565C160.245 112.647 159.577 113.272 158.158 111.773C157.282 110.815 157.156 110.399 157.448 109.649C157.949 108.317 158.742 108.691 159.452 110.565ZM158.325 112.689C159.327 113.855 159.41 114.105 158.868 114.563C158.075 115.229 157.323 114.896 156.614 113.605C156.071 112.564 156.196 111.19 156.864 111.273C157.031 111.273 157.699 111.898 158.325 112.689ZM133.532 112.98C134.2 113.646 134.158 114.604 133.407 115.562C132.822 116.311 132.739 116.353 131.988 115.645C131.32 115.021 131.278 114.729 131.654 113.688C132.154 112.397 132.739 112.189 133.532 112.98ZM156.488 114.396C157.574 116.062 157.574 117.269 156.405 117.269C155.528 117.269 154.235 114.521 154.652 113.522C154.986 112.564 155.445 112.772 156.488 114.396ZM154.485 115.853C155.445 117.685 155.32 118.893 154.235 118.643C153.316 118.477 152.44 116.228 152.857 115.062C153.316 113.813 153.483 113.896 154.485 115.853ZM152.481 117.186C153.483 119.684 153.567 120.559 152.774 120.725C151.897 120.892 150.603 117.852 150.979 116.436C151.355 114.979 151.688 115.145 152.481 117.186ZM132.154 116.644C132.739 117.311 132.822 117.852 132.572 119.767C132.447 121.017 132.196 122.058 132.029 122.058C129.984 122.016 128.982 120.392 131.027 120.392C132.071 120.35 132.113 120.35 131.32 119.892C130.151 119.268 130.151 119.268 130.485 118.768C130.652 118.435 130.986 118.435 131.57 118.726C131.988 118.976 132.363 119.018 132.363 118.81C132.363 118.602 131.904 118.227 131.32 117.977C130.694 117.685 130.276 117.144 130.276 116.644C130.276 115.604 131.194 115.562 132.154 116.644ZM151.104 119.892C151.688 121.516 151.688 121.683 151.021 122.349C149.601 123.806 147.765 121.225 148.641 118.976C149.226 117.352 150.311 117.769 151.104 119.892ZM148.141 122.016C148.808 124.223 148.767 125.264 147.974 125.555C147.598 125.722 147.222 125.763 147.222 125.722C146.388 124.264 146.221 123.223 146.638 121.891C146.888 121.058 147.222 120.392 147.389 120.392C147.556 120.392 147.89 121.1 148.141 122.016ZM130.36 125.18C130.234 125.805 130.318 125.888 130.61 125.472C131.069 124.764 132.614 125.014 132.447 125.763C132.363 126.096 132.614 126.18 133.198 126.013C134.492 125.597 134.868 126.096 134.325 127.429C133.824 128.761 133.198 128.761 133.198 127.429C133.198 127.013 133.031 126.638 132.781 126.638C132.572 126.638 132.363 126.971 132.363 127.346C132.363 127.929 132.238 127.929 131.445 127.179C130.902 126.679 130.109 126.221 129.692 126.138C128.815 126.013 126.812 122.64 127.187 121.974C127.605 121.308 130.527 124.264 130.36 125.18ZM130.861 122.307C131.236 122.432 131.528 122.932 131.528 123.348C131.528 124.056 131.403 124.098 130.694 123.723C130.234 123.473 129.859 123.015 129.859 122.682C129.859 121.974 129.942 121.974 130.861 122.307ZM146.346 125.638C146.68 127.97 145.97 128.97 144.301 128.553C143.007 128.22 142.923 127.471 144.05 126.43C144.509 126.013 144.885 125.347 144.885 124.972C144.885 124.223 145.219 123.723 145.761 123.723C145.887 123.723 146.179 124.597 146.346 125.638ZM136.036 128.22C136.12 128.803 135.953 129.136 135.577 129.136C134.868 129.136 134.492 128.345 134.784 127.554C135.076 126.763 135.911 127.179 136.036 128.22ZM142.548 127.429C142.673 127.637 142.506 128.012 142.214 128.262C141.546 128.803 140.878 128.178 141.337 127.471C141.671 126.971 142.255 126.929 142.548 127.429ZM140.461 128.137C140.836 129.136 140.461 129.303 139.501 128.636C139 128.303 138.749 127.887 138.916 127.762C139.417 127.262 140.21 127.471 140.461 128.137ZM138.374 128.678L139.542 129.469L138.582 129.761C137.914 129.969 137.497 129.844 137.08 129.303C135.953 127.762 136.537 127.471 138.374 128.678Z" fill="white"/>
<path d="M134.241 89.2044C131.444 89.8707 128.23 93.7847 128.188 96.5745C128.188 98.0735 131.319 102.196 133.239 103.32C134.7 104.111 135.368 104.236 137.58 104.069C143.799 103.57 149.35 97.9486 148.474 93.1185C148.223 91.8277 147.889 91.4529 146.303 90.7867C144.049 89.7874 139.375 88.7464 137.371 88.7881C136.578 88.8297 135.159 88.9962 134.241 89.2044ZM138.915 90.9949C138.206 91.5362 138.248 91.6195 139.291 92.4523C140.209 93.1601 140.293 93.3683 139.709 93.5765C139.333 93.7014 138.415 93.5349 137.622 93.1601C136.369 92.5772 136.035 92.5772 134.449 93.1185C132.279 93.868 132.362 93.868 132.362 93.1601C132.362 92.827 132.696 92.4523 133.155 92.2857C133.573 92.1608 134.366 91.7028 134.867 91.2447C135.535 90.6618 136.411 90.412 137.747 90.412C139.458 90.4536 139.583 90.4952 138.915 90.9949ZM132.655 95.6585C133.615 95.9083 134.199 96.9076 133.782 97.5738C133.656 97.782 133.239 97.5738 132.905 97.1158C132.571 96.6161 131.945 96.2414 131.486 96.2414C131.027 96.2414 130.776 96.0332 130.902 95.825C131.194 95.367 131.402 95.3253 132.655 95.6585ZM140.919 96.2414C141.044 96.4496 140.835 96.6578 140.418 96.6578C139.959 96.6578 139.416 96.866 139.124 97.1574C138.749 97.5322 138.623 97.5322 138.623 97.0325C138.623 96.6578 138.749 96.2414 138.915 96.1165C139.333 95.7001 140.627 95.7834 140.919 96.2414Z" fill="white"/>
<path d="M124.851 94.576C124.851 94.7842 125.059 94.9924 125.268 94.9924C125.518 94.9924 125.685 94.7842 125.685 94.576C125.685 94.3262 125.518 94.1597 125.268 94.1597C125.059 94.1597 124.851 94.3262 124.851 94.576Z" fill="white"/>
<path d="M152.188 94.9923C152.063 95.2005 152.146 95.4087 152.355 95.4087C152.605 95.4087 152.814 95.2005 152.814 94.9923C152.814 94.7425 152.73 94.5759 152.647 94.5759C152.522 94.5759 152.313 94.7425 152.188 94.9923Z" fill="white"/>
<path d="M172.329 82.7659C171.612 82.7659 171.031 82.5079 170.765 82.0319C170.493 81.5461 170.614 80.9521 171.051 80.426C171.47 79.8287 172.024 79.3341 172.578 78.9872C173.127 78.6428 173.708 78.4243 174.179 78.4243C174.582 78.4243 174.921 78.7072 175.144 79.0801C175.373 79.4621 175.514 79.9867 175.514 80.5951C175.514 81.1992 175.099 81.7465 174.532 82.1272C173.956 82.5141 173.175 82.7659 172.329 82.7659Z" fill="black" stroke="white" stroke-width="0.556486"/>
<path d="M124.017 97.0741C124.017 97.2823 124.225 97.4905 124.476 97.4905C124.684 97.4905 124.768 97.2823 124.643 97.0741C124.517 96.8243 124.309 96.6577 124.184 96.6577C124.1 96.6577 124.017 96.8243 124.017 97.0741Z" fill="white"/>
<path d="M151.979 98.6981C151.979 98.9063 152.188 99.2394 152.397 99.3643C152.647 99.4892 152.814 99.4476 152.814 99.1977C152.814 98.9895 152.647 98.6564 152.397 98.5315C152.188 98.4066 151.979 98.4482 151.979 98.6981Z" fill="white"/>
<path d="M150.312 101.655C150.312 101.863 150.52 102.071 150.729 102.071C150.979 102.071 151.146 101.863 151.146 101.655C151.146 101.405 150.979 101.238 150.729 101.238C150.52 101.238 150.312 101.405 150.312 101.655Z" fill="white"/>
<path d="M109.532 10.5487C109.281 10.8402 108.947 11.8395 108.78 12.7556C108.655 13.6717 108.196 14.7543 107.862 15.129C107.153 15.9201 106.151 21.9161 106.652 22.4158C106.819 22.5824 107.278 22.4991 107.695 22.2492C108.363 21.8329 108.488 21.9578 108.572 23.4984C108.613 24.4561 108.655 26.2882 108.613 27.5374C108.572 28.7865 108.739 30.2022 108.947 30.6603C109.156 31.1183 109.49 32.2425 109.657 33.1586C109.949 34.491 110.283 34.9074 111.285 35.2405C112.829 35.7402 113.163 36.1566 113.163 37.614C113.163 39.0297 113.747 39.4044 116.001 39.4044H117.796L117.504 36.7812C117.253 34.3245 117.295 34.1996 118.13 34.1996C118.631 34.1996 119.674 34.4494 120.467 34.7825L121.887 35.4071L122.179 33.5334C122.471 31.5347 122.888 31.2432 123.598 32.5757C124.391 33.9914 124.516 33.2002 124.224 29.4527C123.932 25.9551 123.89 25.8718 122.93 26.1216C122.053 26.3298 121.928 26.2466 121.928 25.1223C121.928 23.7899 120.968 22.5824 120.467 23.3735C119.925 24.2895 119.549 23.3318 119.758 21.4997C119.925 19.9175 119.841 19.626 119.215 19.626C118.631 19.626 118.547 19.3762 118.714 18.3768C118.881 17.6273 118.798 17.0444 118.464 16.8362C118.172 16.6696 117.754 16.1283 117.504 15.6703C117.212 15.129 116.586 14.8375 115.834 14.8375C115.041 14.8375 114.582 14.5877 114.499 14.1297C114.415 13.7549 113.914 13.1303 113.372 12.7972C112.787 12.4225 112.453 11.8812 112.579 11.5481C112.996 10.4238 110.325 9.54941 109.532 10.5487Z" fill="white"/>
<path d="M224.816 25.8718C222.145 26.6213 219.724 27.6206 218.18 28.7032C216.677 29.7442 216.552 29.7442 216.009 29.0363C215.509 28.2868 215.342 28.3285 212.503 29.7442C210.917 30.577 209.289 31.1599 208.914 30.9934C208.496 30.8684 207.662 31.3681 206.576 32.3674C205.491 33.4084 204.823 33.7832 204.698 33.4501C204.114 31.8261 195.766 34.3661 193.262 36.9477C192.093 38.1552 191.968 38.4467 192.468 38.7798C192.802 38.988 193.387 39.1962 193.721 39.1962C195.933 39.2378 199.147 40.945 199.147 42.1109C199.147 42.3191 198.479 43.2352 197.728 44.1096L196.267 45.6919L198.855 46.941C200.274 47.6072 201.86 48.6066 202.402 49.1895C202.945 49.7308 203.78 50.2305 204.281 50.2305C205.241 50.2305 205.282 50.3554 204.823 52.1875C204.573 53.3534 204.573 53.3534 206.618 53.3534C207.745 53.3534 209.916 52.9786 211.46 52.479C213.338 51.896 214.757 51.7295 215.801 51.896C217.178 52.1042 217.596 51.9793 219.223 50.6885C220.225 49.8557 222.437 48.5649 224.107 47.7738C227.112 46.3164 227.78 45.442 226.695 44.3594C226.361 44.0263 226.82 43.6932 228.156 43.1935C229.199 42.7771 230.243 42.0693 230.493 41.5696C230.91 40.8201 230.827 40.5703 229.783 39.7375C228.782 38.9047 228.656 38.6965 229.199 38.3634C229.533 38.1136 230.326 37.8221 230.952 37.6972C232.58 37.3225 232.997 36.6562 232.58 35.1572C232.371 34.4494 232.371 33.6582 232.58 33.3251C233.456 31.9511 232.997 30.8684 231.203 30.0357C230.201 29.6193 229.742 29.2445 230.117 29.2445C230.493 29.2029 231.328 28.9947 231.996 28.7449C233.456 28.2036 232.914 27.8288 229.533 27.121C227.112 26.6629 226.444 26.1216 227.863 25.7469C228.239 25.622 228.03 25.5387 227.321 25.5387C226.653 25.5387 225.526 25.7052 224.816 25.8718Z" fill="white"/>
<path d="M221.893 89.9954C221.768 90.2036 222.728 90.8698 224.063 91.4944C225.399 92.0774 227.068 92.8269 227.736 93.1183L228.988 93.7013H227.027C223.437 93.7846 224.898 94.9504 230.616 96.6576C234.081 97.6986 234.248 97.7819 232.954 98.0317C232.202 98.1983 231.075 98.3232 230.408 98.3232C229.74 98.3232 229.197 98.5314 229.197 98.7812C229.197 99.1143 229.823 99.1976 231.117 98.9894C232.202 98.8645 234.248 98.7396 235.709 98.7396C237.211 98.7396 238.38 98.573 238.38 98.3232C238.38 98.0733 237.962 97.9068 237.462 97.9068C236.418 97.9068 227.11 95.117 226.735 94.7006C226.609 94.5757 227.653 94.5757 229.114 94.7006C230.616 94.8255 231.702 94.7422 231.702 94.534C231.702 94.2842 230.533 93.5764 229.114 92.9518C227.653 92.2856 226.108 91.4528 225.649 91.078C224.815 90.4534 224.815 90.4534 225.858 90.4118C226.442 90.4118 227.194 90.2036 227.528 89.9954C227.945 89.704 227.235 89.579 225.148 89.579C223.521 89.579 222.018 89.7456 221.893 89.9954Z" fill="white"/>
<path d="M228.364 99.4474C228.364 99.6556 228.572 100.03 228.823 100.28C229.115 100.572 228.948 100.78 228.197 100.988C226.903 101.321 226.819 101.862 227.988 102.487C229.365 103.237 228.739 103.32 226.068 102.654C222.729 101.904 222.395 101.904 222.645 102.903C222.854 103.653 222.729 103.611 221.352 102.695C219.724 101.571 217.762 101.28 218.012 102.154C218.096 102.445 219.39 103.32 220.851 104.069C224.482 105.943 230.701 111.231 229.658 111.564C229.491 111.606 227.821 110.981 226.026 110.19C224.19 109.357 221.685 108.275 220.433 107.817C219.181 107.317 217.637 106.568 216.969 106.151C214.924 104.694 211.042 103.403 208.538 103.237C206.284 103.112 206.033 103.195 206.033 103.944C206.033 104.652 206.785 104.985 211.042 106.151C219.557 108.483 220.517 108.775 225.15 110.69C229.491 112.48 230.451 112.605 230.451 111.481C230.451 110.94 228.072 108.566 225.651 106.734C224.524 105.86 224.565 105.86 226.318 106.817C228.531 108.067 228.781 108.108 228.781 107.276C228.781 106.942 228.072 106.318 227.237 105.86C226.36 105.443 225.192 104.611 224.691 104.028L223.689 102.987L227.195 103.778C229.073 104.194 230.993 104.569 231.411 104.569C232.705 104.569 232.162 103.903 229.992 102.903C227.237 101.571 227.988 101.363 231.661 102.445C235.084 103.403 235.96 102.945 233.122 101.696C232.037 101.196 231.077 100.822 230.993 100.822C230.868 100.822 230.242 100.447 229.574 99.9471C228.906 99.4891 228.364 99.2809 228.364 99.4474ZM211.96 104.819C215.174 105.901 214.965 106.235 211.626 105.36C207.745 104.361 207.452 104.236 208.83 104.194C209.456 104.153 210.875 104.444 211.96 104.819Z" fill="white"/>
<path d="M214.798 108.941C215.174 110.565 215.466 110.94 218.513 112.939L221.059 114.646L217.929 114.354C213.087 113.855 210.708 113.896 210.541 114.396C210.415 114.729 211.417 114.937 213.504 115.062C215.216 115.146 216.76 115.354 216.927 115.52C217.094 115.687 216.843 116.27 216.342 116.77C215.842 117.311 215.549 117.852 215.675 118.019C216.05 118.393 218.346 116.603 218.346 115.937C218.346 115.562 218.972 115.395 220.224 115.395C221.268 115.395 222.102 115.187 222.102 114.979C222.102 114.729 220.809 113.73 219.181 112.689C217.302 111.481 216.009 110.316 215.424 109.275C214.589 107.776 214.548 107.776 214.798 108.941Z" fill="white"/>
<path d="M209.163 116.769C209.163 117.102 209.455 117.519 209.831 117.644C210.207 117.81 210.415 118.06 210.248 118.227C209.622 118.81 207.327 118.601 206.074 117.852C203.445 116.27 202.193 117.102 204.238 119.101C205.699 120.517 206.45 120.1 205.156 118.601L204.363 117.727L205.824 118.56C207.494 119.517 209.288 120.059 208.913 119.517C208.662 119.101 209.33 119.018 211.793 119.143C213.421 119.226 213.838 118.643 212.628 117.935C212.043 117.602 212.21 117.519 213.337 117.685L214.798 117.893L213.337 117.227C211.125 116.186 209.163 115.978 209.163 116.769Z" fill="white"/>
<path d="M189.383 237.719C188.674 237.573 187.94 237.661 187.222 237.749C185.821 237.921 184.416 238.083 183.01 238.245C182.392 237.762 181.733 237.331 181.034 236.973C181.029 236.991 181.03 237.011 181.026 237.029C180.914 236.992 180.798 236.964 180.681 236.954C180.35 236.928 180.022 237.001 179.703 237.1C179.172 234.894 178.044 232.831 176.443 231.219C174.482 229.245 171.84 227.956 169.074 227.625C169.077 227.643 169.084 227.662 169.087 227.68C168.968 227.683 168.85 227.697 168.737 227.728C168.362 227.834 168.035 228.065 167.733 228.309C166.547 229.272 165.617 230.537 165.03 231.945C164.64 232.083 164.284 232.284 164.004 232.576C164.819 231.142 164.736 229.394 164.093 227.851C164.937 227.14 165.565 226.174 165.849 225.109C166.195 223.814 165.641 222.694 165.244 221.414C164.494 218.999 162.472 217.016 160.038 216.31C159.282 216.091 158.444 216.061 157.858 215.535C158.486 213.905 158.871 212.277 159.087 210.545C159.442 210.598 159.749 210.651 159.94 210.954C159.795 209.69 159.329 208.545 158.91 207.342C157.816 209.834 157.247 212.553 157.249 215.274C156.667 215.778 156.83 216.765 157.207 217.436C157.584 218.107 158.245 218.563 158.895 218.975C160.71 220.125 162.621 221.123 164.602 221.957C164.858 223.245 164.795 224.667 164.111 225.791C163.892 226.153 163.79 226.614 163.715 227.082C163.462 226.634 163.164 226.212 162.825 225.835C161.195 224.021 158.835 223.064 156.543 222.219C156.531 221.276 156.253 220.782 155.489 220.228C155.935 219.399 155.868 218.319 155.322 217.552C154.776 216.784 153.788 216.444 152.855 216.591C152.359 216.156 151.265 216.112 150.618 216.244C151.21 212.471 150.344 208.489 148.237 205.3C146.13 202.112 142.803 199.748 139.094 198.804C136.5 198.143 133.512 198.762 131.654 200.685C133.224 199.785 135.154 199.627 136.919 200.026C138.685 200.425 140.299 201.345 141.714 202.472C142.12 202.796 142.542 203.193 142.585 203.71C142.623 204.161 142.052 204.68 141.622 204.608C143.678 205.371 145.46 206.85 146.573 208.736C147.718 210.676 148.149 213.027 147.765 215.246C147.557 216.449 147.1 217.637 146.28 218.543C146.17 218.663 146.053 218.777 145.93 218.885C145.67 218.913 145.411 218.951 145.153 218.997C144.378 217.327 143.191 215.848 141.71 214.751L144.788 219.073C142.829 219.497 140.965 220.459 139.443 221.977C137.921 223.495 136.957 225.355 136.532 227.309L132.199 224.239C133.299 225.716 134.783 226.899 136.456 227.673C136.409 227.93 136.372 228.189 136.344 228.448C136.235 228.571 136.121 228.688 136 228.797C135.093 229.616 133.902 230.071 132.696 230.278C130.471 230.661 128.115 230.232 126.17 229.09C124.28 227.979 122.797 226.201 122.032 224.15C122.104 224.579 121.584 225.149 121.132 225.112C120.613 225.068 120.216 224.647 119.891 224.242C118.762 222.831 117.839 221.221 117.439 219.459C117.039 217.698 117.198 215.773 118.099 214.207C116.172 216.061 115.552 219.041 116.214 221.629C117.16 225.329 119.53 228.648 122.726 230.75C125.922 232.852 129.914 233.716 133.696 233.125C133.564 233.771 133.608 234.862 134.044 235.357C133.896 236.287 134.238 237.273 135.007 237.818C135.777 238.363 136.859 238.43 137.69 237.984C138.245 238.747 138.74 239.025 139.686 239.036C140.532 241.322 141.491 243.677 143.311 245.303C143.689 245.641 144.112 245.938 144.56 246.191C144.09 246.265 143.628 246.367 143.266 246.586C142.14 247.267 140.715 247.33 139.423 247.075C138.587 245.099 137.586 243.193 136.434 241.383C136.021 240.734 135.564 240.074 134.891 239.698C134.219 239.322 133.229 239.16 132.724 239.74C129.997 239.739 127.271 240.307 124.773 241.397C125.978 241.815 127.126 242.28 128.394 242.424C128.09 242.234 128.037 241.928 127.983 241.573C129.72 241.358 131.352 240.974 132.986 240.348C133.512 240.932 133.543 241.768 133.763 242.523C134.47 244.951 136.457 246.967 138.879 247.715C140.162 248.112 141.285 248.665 142.583 248.32C143.65 248.036 144.619 247.409 145.331 246.568C146.877 247.208 148.63 247.292 150.068 246.479C149.774 246.758 149.574 247.113 149.435 247.503C148.024 248.088 146.756 249.016 145.791 250.199C145.545 250.501 145.314 250.826 145.208 251.2C145.177 251.313 145.163 251.431 145.159 251.549C145.141 251.546 145.122 251.539 145.105 251.537C145.437 254.297 146.729 256.932 148.708 258.888C150.324 260.485 152.392 261.61 154.602 262.14C154.503 262.458 154.43 262.785 154.456 263.115C154.465 263.232 154.494 263.347 154.532 263.46C154.514 263.464 154.493 263.463 154.476 263.468C154.834 264.166 155.266 264.823 155.751 265.439C155.588 266.841 155.425 268.244 155.253 269.641C155.164 270.358 155.077 271.089 155.222 271.797C155.368 272.504 155.792 273.196 156.46 273.471C157.129 273.748 158.034 273.464 158.273 272.782C157.669 273.042 157.014 272.418 156.915 271.77C156.816 271.121 157.116 270.485 157.407 269.897C157.205 268.897 157.101 267.893 157.084 266.893C158.065 267.804 159.186 268.565 160.407 269.119C162.943 270.271 165.871 270.541 168.575 269.873C169.131 272.229 169.723 274.591 170.279 276.947C170.445 277.65 170.616 278.367 170.998 278.981C171.381 279.594 172.018 280.096 172.742 280.124C173.465 280.152 174.215 279.574 174.203 278.852C173.726 279.304 172.895 278.946 172.577 278.371C172.26 277.796 172.32 277.097 172.389 276.444C170.853 273.958 170.015 271.185 169.963 268.266C166.277 267.654 162.402 267.138 158.716 266.525C157.979 266.403 157.526 265.843 157.15 265.196C157.227 264.352 157.369 263.513 157.583 262.684C158.144 262.13 158.936 261.771 159.367 261.141C160.887 262.24 162.471 263.252 164.118 264.153C166.311 265.352 168.655 266.383 171.143 266.639C171.883 266.715 172.636 266.705 173.38 266.622C176.148 266.623 178.917 265.571 181.028 263.464C183.14 261.357 184.195 258.596 184.194 255.834C184.277 255.092 184.288 254.34 184.211 253.603C183.954 251.12 182.922 248.782 181.719 246.594C180.816 244.951 179.802 243.372 178.699 241.855C179.331 241.425 179.691 240.636 180.246 240.075C181.078 239.862 181.919 239.719 182.765 239.643C183.413 240.018 183.975 240.469 184.098 241.205C184.711 244.882 185.228 248.748 185.842 252.425C188.769 252.477 191.548 253.313 194.04 254.845C194.694 254.776 195.396 254.716 195.972 255.033C196.548 255.349 196.907 256.179 196.454 256.655C197.178 256.667 197.757 255.918 197.729 255.197C197.701 254.475 197.197 253.839 196.583 253.458C195.968 253.076 195.249 252.905 194.545 252.74C192.183 252.185 189.815 251.594 187.453 251.04C188.123 248.342 187.853 245.421 186.698 242.892C186.142 241.675 185.38 240.556 184.466 239.577C185.469 239.593 186.475 239.697 187.477 239.899C188.067 239.608 188.704 239.31 189.355 239.408C190.005 239.506 190.63 240.16 190.37 240.763C191.053 240.525 191.337 239.622 191.06 238.955C190.785 238.286 190.093 237.864 189.383 237.719ZM155.582 260.049C153.063 258.655 150.483 257.27 148.022 255.869C147.11 255.35 147.02 254.215 146.889 253.176C146.876 253.073 146.845 252.97 146.803 252.867C146.95 252.813 147.091 252.731 147.217 252.639C147.468 252.457 147.686 252.232 147.945 252.062C148.484 251.707 149.168 251.603 149.78 251.393C150.223 252.325 150.881 253.161 151.557 253.951C153.064 255.713 154.716 257.349 156.478 258.857C156.149 259.231 155.848 259.628 155.582 260.049ZM171.495 234.061C170.703 233.387 169.866 232.731 168.932 232.288C169.142 231.678 169.246 230.996 169.602 230.458C169.773 230.2 169.998 229.982 170.18 229.732C170.273 229.605 170.355 229.465 170.41 229.318C170.512 229.36 170.615 229.39 170.719 229.404C171.76 229.534 172.898 229.625 173.418 230.535C174.823 232.989 176.211 235.564 177.608 238.076C177.187 238.342 176.789 238.642 176.415 238.97C174.902 237.213 173.263 235.564 171.495 234.061Z" fill="#131313"/>
<path d="M14.6317 238.525L34.4487 238.143L34.5496 243.343L26.9039 243.49L27.0588 251.473L34.7045 251.325L34.8054 256.525L14.9884 256.908L14.8875 251.708L22.8143 251.555L22.6594 243.572L14.7326 243.725L14.6317 238.525Z" fill="white"/>
<path d="M15.129 259.845L36.3327 265.293L37.1165 269.436L19.3717 282.274L18.4051 277.164L23.3213 273.807L22.2831 276.033L20.1199 264.598L21.8948 266.266L16.0956 264.955L15.129 259.845ZM31.4696 268.325L23.1494 266.545L24.3017 265.527L25.8326 273.62L24.4034 273.174L31.4957 268.463L31.4696 268.325Z" fill="white"/>
<path d="M23.3902 294.062C22.6624 292.034 22.4299 290.137 22.6926 288.371C22.9617 286.624 23.6744 285.086 24.8309 283.757C25.9936 282.447 27.5459 281.445 29.4877 280.751C31.4295 280.058 33.2578 279.853 34.9725 280.136C36.7112 280.431 38.2403 281.168 39.56 282.349C40.886 283.547 41.913 285.16 42.6408 287.188C43.1028 288.476 43.3471 289.712 43.3738 290.896C43.4181 292.075 43.2523 293.139 42.8763 294.089L38.5146 294.005C38.806 292.985 38.9431 292.091 38.9257 291.321C38.9324 290.562 38.7806 289.751 38.4705 288.886C37.9009 287.299 36.9933 286.24 35.7475 285.71C34.5258 285.191 33.0499 285.24 31.3199 285.858C29.5723 286.482 28.3826 287.384 27.7507 288.565C27.1429 289.757 27.1238 291.147 27.6934 292.735C28.0035 293.599 28.3936 294.325 28.8635 294.914C29.3575 295.513 30.0413 296.115 30.915 296.718L27.5976 299.544C26.7026 299.048 25.8888 298.334 25.156 297.402C24.4408 296.463 23.8522 295.35 23.3902 294.062Z" fill="white"/>
<path d="M29.7991 307.883L43.6101 300.558L40.7809 295.25L44.4821 293.286L52.5863 308.493L48.8852 310.456L46.0559 305.147L32.2449 312.473L29.7991 307.883Z" fill="white"/>
<path d="M44.8057 314.901C46.4507 313.657 48.1225 312.899 49.8212 312.625C51.5348 312.34 53.1815 312.54 54.7611 313.225C56.3408 313.91 57.7483 315.066 58.9837 316.693C60.2304 318.335 60.9707 320.007 61.2044 321.709C61.4382 323.412 61.1856 325.047 60.4467 326.616C59.7341 328.188 58.5553 329.596 56.9103 330.839C55.2803 332.071 53.6028 332.822 51.8778 333.092C50.1642 333.377 48.5101 333.183 46.9154 332.509C45.3358 331.824 43.9226 330.66 42.6759 329.019C41.4405 327.392 40.7059 325.727 40.4721 324.025C40.2646 322.326 40.5247 320.685 41.2523 319.101C41.9912 317.533 43.1757 316.133 44.8057 314.901ZM48.0869 319.221C46.6064 320.34 45.6741 321.514 45.29 322.744C44.9208 323.963 45.201 325.184 46.1303 326.408C47.0597 327.632 48.168 328.238 49.4552 328.229C50.7573 328.208 52.1486 327.638 53.6291 326.519C55.1096 325.4 56.0288 324.223 56.3866 322.99C56.7444 321.756 56.4586 320.528 55.5292 319.304C54.5998 318.08 53.4972 317.481 52.2214 317.505C50.9605 317.519 49.5823 318.091 48.0869 319.221Z" fill="white"/>
<path d="M51.8326 339.953L58.0256 338.048C58.8934 337.783 59.6815 337.724 60.3898 337.874C61.1246 338.023 61.786 338.373 62.3741 338.924L63.2768 339.769L63.012 340.215C61.3161 338.626 60.3889 337 60.2305 335.336C60.0721 333.673 60.6481 332.145 61.9586 330.752C63.2947 329.333 64.7866 328.65 66.4345 328.704C68.096 328.77 69.7679 329.591 71.4502 331.167L78.5691 337.835L64.9832 352.27L61.2288 348.754L66.297 343.369L65.1892 342.331C64.8199 341.985 64.4475 341.752 64.072 341.631C63.6965 341.511 63.2854 341.524 62.8386 341.67L55.9563 343.815L51.8326 339.953ZM66.0544 338.172L68.783 340.727L72.1168 337.185L69.3882 334.629C67.8427 333.182 66.5175 333.045 65.4127 334.219C64.295 335.406 64.5089 336.724 66.0544 338.172Z" fill="white"/>
<path d="M88.8373 373.991L91.411 369.797L69.0768 356.157L79.4452 339.262L83.7873 341.914L75.5955 355.262L80.9452 358.529L89.137 345.181L93.4311 347.804L85.2393 361.152L90.613 364.434L98.8048 351.086L103.099 353.708L94.9071 367.056L97.378 368.566L92.6276 376.306L88.8373 373.991Z" fill="white"/>
<path d="M99.3808 373.255L106.017 354.577L110.549 356.18L106.341 368.022L105.652 367.779L119.269 359.263L122.847 360.528L116.21 379.206L111.678 377.603L115.886 365.761L116.575 366.004L102.959 374.52L99.3808 373.255Z" fill="white"/>
<path d="M121.005 380.451L124.508 360.942L129.24 361.787L127.019 374.157L126.3 374.028L138.345 363.414L142.081 364.082L138.578 383.59L133.846 382.745L136.067 370.375L136.786 370.504L124.741 381.118L121.005 380.451ZM133.554 360.987C132.354 360.773 131.364 360.405 130.581 359.885C129.817 359.368 129.261 358.754 128.912 358.044C128.564 357.335 128.385 356.579 128.377 355.778L130.808 355.441C130.984 356.368 131.325 357.067 131.831 357.538C132.337 358.009 133.069 358.33 134.028 358.502C135.006 358.676 135.818 358.612 136.462 358.308C137.107 358.005 137.628 357.488 138.026 356.76L140.138 357.88C139.633 359.103 138.805 360.002 137.654 360.577C136.507 361.134 135.14 361.271 133.554 360.987Z" fill="white"/>
<path d="M150.942 374.617C150.831 372.559 151.136 370.75 151.859 369.191C152.581 367.613 153.667 366.362 155.119 365.439C156.571 364.517 158.317 364 160.357 363.89C162.416 363.78 164.216 364.105 165.759 364.866C167.302 365.628 168.517 366.754 169.405 368.246C170.311 369.717 170.819 371.482 170.931 373.541C171.041 375.581 170.726 377.39 169.986 378.969C169.264 380.547 168.178 381.806 166.727 382.748C165.275 383.671 163.52 384.188 161.461 384.298C159.421 384.408 157.63 384.083 156.087 383.321C154.562 382.54 153.346 381.404 152.439 379.914C151.551 378.423 151.052 376.657 150.942 374.617ZM156.36 374.325C156.461 376.178 156.913 377.608 157.719 378.616C158.523 379.605 159.693 380.058 161.227 379.975C162.762 379.893 163.885 379.316 164.597 378.246C165.307 377.156 165.613 375.685 165.512 373.832C165.412 371.98 164.95 370.559 164.127 369.571C163.304 368.583 162.125 368.131 160.591 368.213C159.056 368.296 157.942 368.872 157.249 369.942C156.555 370.993 156.259 372.454 156.36 374.325Z" fill="white"/>
<path d="M176.94 382.562L172.566 363.232L187.322 359.909L188.191 363.748L178.262 365.984L179.099 369.685L184.119 368.555C186.277 368.069 188.084 368.2 189.541 368.948C191.012 369.673 191.96 370.977 192.386 372.86C192.816 374.761 192.525 376.363 191.514 377.666C190.52 378.966 188.944 379.859 186.787 380.345L176.94 382.562ZM180.917 377.719L185.251 376.743C186.257 376.516 186.94 376.18 187.3 375.734C187.674 375.265 187.779 374.665 187.613 373.934C187.452 373.221 187.106 372.752 186.574 372.526C186.057 372.277 185.295 372.266 184.289 372.493L179.955 373.469L180.917 377.719Z" fill="white"/>
<path d="M198.007 377.371L190.74 358.934L199.796 355.381C201.925 354.546 203.737 354.439 205.231 355.061C206.718 355.665 207.813 356.857 208.513 358.635C209.208 360.396 209.22 362.012 208.55 363.482C207.881 364.953 206.481 366.105 204.352 366.94L200.138 368.594L202.849 375.472L198.007 377.371ZM198.674 364.88L202.26 363.473C203.081 363.152 203.623 362.738 203.887 362.232C204.144 361.708 204.142 361.115 203.88 360.452C203.619 359.79 203.216 359.354 202.67 359.146C202.125 358.937 201.442 358.993 200.622 359.315L197.035 360.722L198.674 364.88Z" fill="white"/>
<path d="M215.357 370.584L213.297 348.817L216.935 346.683L235.05 359.031L230.563 361.663L225.733 358.175L228.183 358.399L218.142 364.29L219.112 362.059L219.844 367.952L215.357 370.584ZM217.804 352.365L218.949 360.786L217.599 360.046L224.705 355.877L224.769 357.371L217.925 352.294L217.804 352.365Z" fill="white"/>
<path d="M242.119 353.462C240.811 354.527 239.529 355.328 238.273 355.866C237.006 356.389 235.774 356.703 234.576 356.807L233.367 352.972C234.292 352.92 235.25 352.684 236.24 352.266C237.229 351.848 238.197 351.254 239.142 350.485C240.175 349.646 240.82 348.88 241.077 348.187C241.334 347.495 241.22 346.851 240.734 346.256C240.319 345.749 239.821 345.525 239.242 345.586C238.676 345.635 238.001 345.979 237.216 346.617L233.376 349.74L230.886 346.692L234.311 343.907C235.082 343.28 235.554 342.703 235.728 342.175C235.917 341.635 235.803 341.112 235.388 340.604C235.009 340.139 234.497 339.928 233.853 339.969C233.208 340.01 232.442 340.391 231.555 341.112C230.741 341.775 230.036 342.541 229.44 343.412C228.847 344.256 228.432 345.126 228.194 346.02L224.672 344.065C224.955 342.989 225.502 341.881 226.312 340.739C227.11 339.583 228.12 338.508 229.341 337.514C231.334 335.894 233.145 335.073 234.774 335.053C236.418 335.02 237.744 335.621 238.752 336.854C239.499 337.768 239.864 338.764 239.848 339.84C239.834 340.889 239.464 341.903 238.737 342.88L238.453 342.532C239.683 341.845 240.856 341.592 241.971 341.772C243.101 341.94 244.087 342.539 244.929 343.569C245.664 344.469 246.076 345.462 246.165 346.549C246.243 347.621 245.954 348.75 245.3 349.934C244.649 351.092 243.588 352.268 242.119 353.462Z" fill="white"/>
<path d="M257.168 340.15L253.495 332.929C252.834 331.649 252.488 330.45 252.455 329.33C252.418 328.185 252.709 326.99 253.329 325.746L253.208 328.174L241.829 327.566L245.179 323.05L255.119 323.853L254.259 324.162L255.382 322.649L248.982 317.924L251.914 313.972L258.314 318.697L259.453 317.162L259.408 318.072L255.717 308.846L259.068 304.33L262.992 314.986L260.684 315.833C261.695 314.879 262.75 314.26 263.847 313.975C264.941 313.664 266.198 313.637 267.618 313.893L275.614 315.288L272.296 319.759L266.261 318.553C265.419 318.398 264.714 318.436 264.145 318.669C263.561 318.89 263.001 319.362 262.465 320.084L261.661 321.168L267.857 325.743L264.925 329.695L258.729 325.12L257.925 326.204C257.4 326.911 257.111 327.584 257.058 328.221C257.002 328.831 257.171 329.515 257.566 330.273L260.468 335.702L257.168 340.15Z" fill="white"/>
<path d="M277.055 311.495L259.076 303.158L261.106 298.8L272.506 304.086L272.197 304.748L265.013 290.415L266.616 286.974L284.595 295.311L282.565 299.669L271.165 294.383L271.474 293.721L278.658 308.054L277.055 311.495Z" fill="white"/>
<path d="M288.307 284.441C287.835 286.06 287.236 287.448 286.509 288.603C285.764 289.753 284.929 290.711 284.003 291.477L280.829 289.006C281.56 288.437 282.214 287.7 282.79 286.794C283.367 285.887 283.825 284.849 284.166 283.68C284.538 282.402 284.633 281.405 284.451 280.689C284.269 279.973 283.809 279.507 283.071 279.294C282.441 279.111 281.905 279.209 281.463 279.588C281.026 279.95 280.666 280.616 280.383 281.588L278.999 286.339L275.219 285.243L276.453 281.005C276.731 280.052 276.792 279.308 276.635 278.775C276.483 278.223 276.092 277.856 275.462 277.674C274.886 277.507 274.345 277.623 273.838 278.023C273.331 278.422 272.918 279.171 272.598 280.269C272.305 281.276 272.16 282.308 272.165 283.363C272.158 284.395 272.31 285.347 272.622 286.218L268.615 286.608C268.236 285.561 268.056 284.338 268.073 282.938C268.072 281.533 268.292 280.074 268.732 278.563C269.45 276.097 270.473 274.393 271.802 273.451C273.136 272.491 274.567 272.233 276.097 272.677C277.231 273.005 278.098 273.617 278.696 274.513C279.281 275.385 279.553 276.43 279.51 277.647L279.078 277.522C279.7 276.258 280.521 275.383 281.541 274.898C282.566 274.395 283.717 274.329 284.995 274.699C286.111 275.023 287.015 275.606 287.706 276.451C288.379 277.29 288.783 278.383 288.918 279.729C289.04 281.053 288.836 282.623 288.307 284.441Z" fill="white"/>
<path d="M291.429 271.645L271.768 269.146L272.427 263.987L280.013 264.951L281.024 257.031L273.438 256.067L274.097 250.907L293.759 253.407L293.1 258.566L285.235 257.566L284.224 265.486L292.088 266.486L291.429 271.645Z" fill="white"/>
<path d="M276.419 232.078L296.008 235.09L295.274 239.841L282.854 237.931L282.965 237.209L293.862 248.982L293.283 252.733L273.693 249.721L274.427 244.97L286.848 246.879L286.736 247.602L275.839 235.828L276.419 232.078Z" fill="white"/>
</g>
<rect x="0.5" y="0.5" width="319" height="399" stroke="black"/>
<defs>
<clipPath id="clip0_83_7">
<rect width="320" height="400" fill="white"/>
</clipPath>
</defs>
</svg>
